<svg enable-background="new 0 0 1160 159" viewBox="0 0 1160 159" xmlns="http://www.w3.org/2000/svg" xmlns:xlink="http://www.w3.org/1999/xlink"><clipPath id="a"><path d="m0 0h1160v159h-1160z"/></clipPath><g clip-path="url(#a)" fill="#b32f29" opacity=".3"><circle cx="-320" cy="274" r="8"/><circle cx="-297" cy="251" r="8"/><circle cx="-274" cy="228" r="8"/><circle cx="-252" cy="206" r="8"/><circle cx="-229" cy="183" r="8"/><circle cx="-206" cy="160" r="8"/><circle cx="-184" cy="137" r="8"/><circle cx="-160" cy="114" r="8"/><circle cx="-138" cy="91" r="8"/><circle cx="-115" cy="69" r="8"/><circle cx="-92" cy="46" r="8"/><circle cx="-69" cy="23" r="8"/><circle cx="-47" cy="1" r="8"/><circle cx="-23" cy="-23" r="8"/><circle cx="-1" cy="-45" r="8"/><circle cx="22" cy="-68" r="8"/><circle cx="45" cy="-91" r="8"/><circle cx="67" cy="-113" r="8"/><circle cx="90" cy="-136" r="8"/><circle cx="113" cy="-159" r="8"/><circle cx="136" cy="-182" r="8"/><circle cx="159" cy="-205" r="8"/><circle cx="182" cy="-228" r="8"/><circle cx="-298" cy="297" r="8"/><circle cx="-274" cy="274" r="8"/><circle cx="-252" cy="251" r="8"/><circle cx="-229" cy="228" r="8"/><circle cx="-206" cy="206" r="8"/><circle cx="-184" cy="183" r="8"/><circle cx="-161" cy="160" r="8"/><circle cx="-138" cy="137" r="8"/><circle cx="-115" cy="114" r="8"/><circle cx="-92" cy="91" r="8"/><circle cx="-69" cy="69" r="8"/><circle cx="-47" cy="46" r="8"/><circle cx="-24" cy="23" r="8"/><circle cx="-1" r="8"/><circle cx="22" cy="-23" r="8"/><circle cx="45" cy="-45" r="8"/><circle cx="67" cy="-68" r="8"/><circle cx="90" cy="-91" r="8"/><circle cx="113" cy="-113" r="8"/><circle cx="136" cy="-137" r="8"/><circle cx="159" cy="-159" r="8"/><circle cx="182" cy="-182" r="8"/><circle cx="204" cy="-205" r="8"/><circle cx="-275" cy="320" r="8"/><circle cx="-252" cy="296" r="8"/><circle cx="-229" cy="274" r="8"/><circle cx="-206" cy="251" r="8"/><circle cx="-184" cy="228" r="8"/><circle cx="-161" cy="206" r="8"/><circle cx="-138" cy="183" r="8"/><circle cx="-115" cy="160" r="8"/><circle cx="-92" cy="137" r="8"/><circle cx="-69" cy="114" r="8"/><circle cx="-47" cy="91" r="8"/><circle cx="-24" cy="69" r="8"/><circle cx="-1" cy="46" r="8"/><circle cx="22" cy="23" r="8"/><circle cx="45" r="8"/><circle cx="67" cy="-23" r="8"/><circle cx="90" cy="-45" r="8"/><circle cx="113" cy="-68" r="8"/><circle cx="136" cy="-91" r="8"/><circle cx="159" cy="-114" r="8"/><circle cx="182" cy="-137" r="8"/><circle cx="204" cy="-159" r="8"/><circle cx="227" cy="-182" r="8"/><circle cx="-252" cy="342" r="8"/><circle cx="-229" cy="319" r="8"/><circle cx="-206" cy="296" r="8"/><circle cx="-184" cy="274" r="8"/><circle cx="-161" cy="251" r="8"/><circle cx="-138" cy="228" r="8"/><circle cx="-115" cy="206" r="8"/><circle cx="-92" cy="182" r="8"/><circle cx="-69" cy="160" r="8"/><circle cx="-47" cy="137" r="8"/><circle cx="-24" cy="114" r="8"/><circle cx="-1" cy="91" r="8"/><circle cx="21" cy="69" r="8"/><circle cx="45" cy="45" r="8"/><circle cx="67" cy="23" r="8"/><circle cx="90" r="8"/><circle cx="113" cy="-23" r="8"/><circle cx="136" cy="-45" r="8"/><circle cx="158" cy="-68" r="8"/><circle cx="182" cy="-91" r="8"/><circle cx="204" cy="-114" r="8"/><circle cx="227" cy="-137" r="8"/><circle cx="250" cy="-159" r="8"/><circle cx="204" cy="-250" r="8"/><circle cx="228" cy="-274" r="8"/><circle cx="227" cy="-228" r="8"/><circle cx="250" cy="-251" r="8"/><circle cx="250" cy="-205" r="8"/><circle cx="273" cy="-228" r="8"/><circle cx="272" cy="-182" r="8"/><circle cx="296" cy="-205" r="8"/><circle cx="-230" cy="365" r="8"/><circle cx="-206" cy="342" r="8"/><circle cx="-184" cy="319" r="8"/><circle cx="-161" cy="296" r="8"/><circle cx="-138" cy="274" r="8"/><circle cx="-115" cy="251" r="8"/><circle cx="-93" cy="228" r="8"/><circle cx="-69" cy="205" r="8"/><circle cx="-47" cy="182" r="8"/><circle cx="-24" cy="160" r="8"/><circle cx="-1" cy="137" r="8"/><circle cx="21" cy="114" r="8"/><circle cx="44" cy="91" r="8"/><circle cx="67" cy="68" r="8"/><circle cx="90" cy="45" r="8"/><circle cx="113" cy="23" r="8"/><circle cx="136" r="8"/><circle cx="158" cy="-23" r="8"/><circle cx="181" cy="-45" r="8"/><circle cx="204" cy="-69" r="8"/><circle cx="227" cy="-91" r="8"/><circle cx="250" cy="-114" r="8"/><circle cx="272" cy="-137" r="8"/><circle cx="-207" cy="388" r="8"/><circle cx="-184" cy="364" r="8"/><circle cx="-161" cy="342" r="8"/><circle cx="-138" cy="319" r="8"/><circle cx="-115" cy="296" r="8"/><circle cx="-93" cy="274" r="8"/><circle cx="-70" cy="251" r="8"/><circle cx="-47" cy="228" r="8"/><circle cx="-24" cy="205" r="8"/><circle cx="-1" cy="182" r="8"/><circle cx="21" cy="160" r="8"/><circle cx="44" cy="137" r="8"/><circle cx="67" cy="114" r="8"/><circle cx="90" cy="91" r="8"/><circle cx="113" cy="68" r="8"/><circle cx="136" cy="45" r="8"/><circle cx="158" cy="23" r="8"/><circle cx="181" r="8"/><circle cx="204" cy="-23" r="8"/><circle cx="227" cy="-46" r="8"/><circle cx="250" cy="-69" r="8"/><circle cx="272" cy="-91" r="8"/><circle cx="295" cy="-114" r="8"/><circle cx="-184" cy="410" r="8"/><circle cx="-161" cy="387" r="8"/><circle cx="-138" cy="364" r="8"/><circle cx="-115" cy="342" r="8"/><circle cx="-93" cy="319" r="8"/><circle cx="-70" cy="296" r="8"/><circle cx="-47" cy="274" r="8"/><circle cx="-24" cy="250" r="8"/><circle cx="-1" cy="228" r="8"/><circle cx="21" cy="205" r="8"/><circle cx="44" cy="182" r="8"/><circle cx="67" cy="160" r="8"/><circle cx="89" cy="137" r="8"/><circle cx="113" cy="114" r="8"/><circle cx="136" cy="91" r="8"/><circle cx="158" cy="68" r="8"/><circle cx="181" cy="45" r="8"/><circle cx="204" cy="23" r="8"/><circle cx="226" r="8"/><circle cx="250" cy="-23" r="8"/><circle cx="272" cy="-46" r="8"/><circle cx="295" cy="-69" r="8"/><circle cx="318" cy="-91" r="8"/><circle cx="-161" cy="433" r="8"/><circle cx="-138" cy="410" r="8"/><circle cx="-115" cy="387" r="8"/><circle cx="-93" cy="364" r="8"/><circle cx="-70" cy="342" r="8"/><circle cx="-47" cy="319" r="8"/><circle cx="-25" cy="296" r="8"/><circle cx="-1" cy="273" r="8"/><circle cx="21" cy="250" r="8"/><circle cx="44" cy="228" r="8"/><circle cx="67" cy="205" r="8"/><circle cx="89" cy="182" r="8"/><circle cx="112" cy="160" r="8"/><circle cx="136" cy="136" r="8"/><circle cx="158" cy="114" r="8"/><circle cx="181" cy="91" r="8"/><circle cx="204" cy="68" r="8"/><circle cx="226" cy="45" r="8"/><circle cx="249" cy="23" r="8"/><circle cx="272" cy="-1" r="8"/><circle cx="295" cy="-23" r="8"/><circle cx="318" cy="-46" r="8"/><circle cx="340" cy="-69" r="8"/><circle cx="295" cy="-159" r="8"/><circle cx="318" cy="-183" r="8"/><circle cx="318" cy="-137" r="8"/><circle cx="341" cy="-160" r="8"/><circle cx="340" cy="-114" r="8"/><circle cx="364" cy="-137" r="8"/><circle cx="363" cy="-91" r="8"/><circle cx="386" cy="-115" r="8"/><circle cx="45" cy="274" r="8"/><circle cx="68" cy="251" r="8"/><circle cx="91" cy="228" r="8"/><circle cx="113" cy="206" r="8"/><circle cx="136" cy="183" r="8"/><circle cx="159" cy="160" r="8"/><circle cx="182" cy="137" r="8"/><circle cx="205" cy="114" r="8"/><circle cx="228" cy="91" r="8"/><circle cx="250" cy="69" r="8"/><circle cx="273" cy="46" r="8"/><circle cx="296" cy="23" r="8"/><circle cx="318" cy="1" r="8"/><circle cx="342" cy="-23" r="8"/><circle cx="364" cy="-45" r="8"/><circle cx="387" cy="-68" r="8"/><circle cx="410" cy="-91" r="8"/><circle cx="432" cy="-113" r="8"/><circle cx="455" cy="-136" r="8"/><circle cx="478" cy="-159" r="8"/><circle cx="501" cy="-182" r="8"/><circle cx="524" cy="-205" r="8"/><circle cx="547" cy="-228" r="8"/><circle cx="67" cy="297" r="8"/><circle cx="91" cy="274" r="8"/><circle cx="113" cy="251" r="8"/><circle cx="136" cy="228" r="8"/><circle cx="159" cy="206" r="8"/><circle cx="182" cy="183" r="8"/><circle cx="204" cy="160" r="8"/><circle cx="228" cy="137" r="8"/><circle cx="250" cy="114" r="8"/><circle cx="273" cy="91" r="8"/><circle cx="296" cy="69" r="8"/><circle cx="318" cy="46" r="8"/><circle cx="341" cy="23" r="8"/><circle cx="364" r="8"/><circle cx="387" cy="-23" r="8"/><circle cx="410" cy="-45" r="8"/><circle cx="432" cy="-68" r="8"/><circle cx="455" cy="-91" r="8"/><circle cx="478" cy="-113" r="8"/><circle cx="501" cy="-137" r="8"/><circle cx="524" cy="-159" r="8"/><circle cx="547" cy="-182" r="8"/><circle cx="569" cy="-205" r="8"/><circle cx="90" cy="320" r="8"/><circle cx="113" cy="296" r="8"/><circle cx="136" cy="274" r="8"/><circle cx="159" cy="251" r="8"/><circle cx="182" cy="228" r="8"/><circle cx="204" cy="206" r="8"/><circle cx="227" cy="183" r="8"/><circle cx="250" cy="160" r="8"/><circle cx="273" cy="137" r="8"/><circle cx="296" cy="114" r="8"/><circle cx="318" cy="91" r="8"/><circle cx="341" cy="69" r="8"/><circle cx="364" cy="46" r="8"/><circle cx="387" cy="23" r="8"/><circle cx="410" r="8"/><circle cx="432" cy="-23" r="8"/><circle cx="455" cy="-45" r="8"/><circle cx="478" cy="-68" r="8"/><circle cx="501" cy="-91" r="8"/><circle cx="524" cy="-114" r="8"/><circle cx="547" cy="-137" r="8"/><circle cx="569" cy="-159" r="8"/><circle cx="592" cy="-182" r="8"/><circle cx="113" cy="342" r="8"/><circle cx="136" cy="319" r="8"/><circle cx="159" cy="296" r="8"/><circle cx="182" cy="274" r="8"/><circle cx="204" cy="251" r="8"/><circle cx="227" cy="228" r="8"/><circle cx="250" cy="206" r="8"/><circle cx="273" cy="182" r="8"/><circle cx="296" cy="160" r="8"/><circle cx="318" cy="137" r="8"/><circle cx="341" cy="114" r="8"/><circle cx="364" cy="91" r="8"/><circle cx="386" cy="69" r="8"/><circle cx="410" cy="45" r="8"/><circle cx="432" cy="23" r="8"/><circle cx="455" r="8"/><circle cx="478" cy="-23" r="8"/><circle cx="501" cy="-45" r="8"/><circle cx="523" cy="-68" r="8"/><circle cx="547" cy="-91" r="8"/><circle cx="569" cy="-114" r="8"/><circle cx="592" cy="-137" r="8"/><circle cx="615" cy="-159" r="8"/><circle cx="569" cy="-250" r="8"/><circle cx="593" cy="-274" r="8"/><circle cx="592" cy="-228" r="8"/><circle cx="615" cy="-251" r="8"/><circle cx="615" cy="-205" r="8"/><circle cx="638" cy="-228" r="8"/><circle cx="637" cy="-182" r="8"/><circle cx="661" cy="-205" r="8"/><circle cx="136" cy="365" r="8"/><circle cx="159" cy="342" r="8"/><circle cx="182" cy="319" r="8"/><circle cx="204" cy="296" r="8"/><circle cx="227" cy="274" r="8"/><circle cx="250" cy="251" r="8"/><circle cx="272" cy="228" r="8"/><circle cx="296" cy="205" r="8"/><circle cx="318" cy="182" r="8"/><circle cx="341" cy="160" r="8"/><circle cx="364" cy="137" r="8"/><circle cx="386" cy="114" r="8"/><circle cx="409" cy="91" r="8"/><circle cx="432" cy="68" r="8"/><circle cx="455" cy="45" r="8"/><circle cx="478" cy="23" r="8"/><circle cx="501" r="8"/><circle cx="523" cy="-23" r="8"/><circle cx="546" cy="-45" r="8"/><circle cx="569" cy="-69" r="8"/><circle cx="592" cy="-91" r="8"/><circle cx="615" cy="-114" r="8"/><circle cx="637" cy="-137" r="8"/><circle cx="158" cy="388" r="8"/><circle cx="182" cy="364" r="8"/><circle cx="204" cy="342" r="8"/><circle cx="227" cy="319" r="8"/><circle cx="250" cy="296" r="8"/><circle cx="272" cy="274" r="8"/><circle cx="295" cy="251" r="8"/><circle cx="318" cy="228" r="8"/><circle cx="341" cy="205" r="8"/><circle cx="364" cy="182" r="8"/><circle cx="386" cy="160" r="8"/><circle cx="409" cy="137" r="8"/><circle cx="432" cy="114" r="8"/><circle cx="455" cy="91" r="8"/><circle cx="478" cy="68" r="8"/><circle cx="501" cy="45" r="8"/><circle cx="523" cy="23" r="8"/><circle cx="546" r="8"/><circle cx="569" cy="-23" r="8"/><circle cx="592" cy="-46" r="8"/><circle cx="615" cy="-69" r="8"/><circle cx="637" cy="-91" r="8"/><circle cx="660" cy="-114" r="8"/><circle cx="181" cy="410" r="8"/><circle cx="204" cy="387" r="8"/><circle cx="227" cy="364" r="8"/><circle cx="250" cy="342" r="8"/><circle cx="272" cy="319" r="8"/><circle cx="295" cy="296" r="8"/><circle cx="318" cy="274" r="8"/><circle cx="341" cy="250" r="8"/><circle cx="364" cy="228" r="8"/><circle cx="386" cy="205" r="8"/><circle cx="409" cy="182" r="8"/><circle cx="432" cy="160" r="8"/><circle cx="455" cy="137" r="8"/><circle cx="478" cy="114" r="8"/><circle cx="501" cy="91" r="8"/><circle cx="523" cy="68" r="8"/><circle cx="546" cy="45" r="8"/><circle cx="569" cy="23" r="8"/><circle cx="591" r="8"/><circle cx="615" cy="-23" r="8"/><circle cx="637" cy="-46" r="8"/><circle cx="660" cy="-69" r="8"/><circle cx="683" cy="-91" r="8"/><circle cx="204" cy="433" r="8"/><circle cx="227" cy="410" r="8"/><circle cx="250" cy="387" r="8"/><circle cx="272" cy="364" r="8"/><circle cx="295" cy="342" r="8"/><circle cx="318" cy="319" r="8"/><circle cx="340" cy="296" r="8"/><circle cx="364" cy="273" r="8"/><circle cx="386" cy="250" r="8"/><circle cx="409" cy="228" r="8"/><circle cx="432" cy="205" r="8"/><circle cx="455" cy="182" r="8"/><circle cx="477" cy="160" r="8"/><circle cx="501" cy="136" r="8"/><circle cx="523" cy="114" r="8"/><circle cx="546" cy="91" r="8"/><circle cx="569" cy="68" r="8"/><circle cx="591" cy="45" r="8"/><circle cx="614" cy="23" r="8"/><circle cx="637" cy="-1" r="8"/><circle cx="660" cy="-23" r="8"/><circle cx="683" cy="-46" r="8"/><circle cx="705" cy="-69" r="8"/><circle cx="660" cy="-159" r="8"/><circle cx="683" cy="-183" r="8"/><circle cx="683" cy="-137" r="8"/><circle cx="706" cy="-160" r="8"/><circle cx="705" cy="-114" r="8"/><circle cx="729" cy="-137" r="8"/><circle cx="728" cy="-91" r="8"/><circle cx="751" cy="-115" r="8"/><circle cx="409" cy="274" r="8"/><circle cx="432" cy="251" r="8"/><circle cx="455" cy="228" r="8"/><circle cx="478" cy="206" r="8"/><circle cx="501" cy="183" r="8"/><circle cx="523" cy="160" r="8"/><circle cx="546" cy="137" r="8"/><circle cx="569" cy="114" r="8"/><circle cx="592" cy="91" r="8"/><circle cx="615" cy="69" r="8"/><circle cx="637" cy="46" r="8"/><circle cx="660" cy="23" r="8"/><circle cx="683" cy="1" r="8"/><circle cx="706" cy="-23" r="8"/><circle cx="729" cy="-45" r="8"/><circle cx="751" cy="-68" r="8"/><circle cx="774" cy="-91" r="8"/><circle cx="797" cy="-113" r="8"/><circle cx="820" cy="-136" r="8"/><circle cx="843" cy="-159" r="8"/><circle cx="866" cy="-182" r="8"/><circle cx="888" cy="-205" r="8"/><circle cx="911" cy="-228" r="8"/><circle cx="432" cy="297" r="8"/><circle cx="455" cy="274" r="8"/><circle cx="478" cy="251" r="8"/><circle cx="501" cy="228" r="8"/><circle cx="523" cy="206" r="8"/><circle cx="546" cy="183" r="8"/><circle cx="569" cy="160" r="8"/><circle cx="592" cy="137" r="8"/><circle cx="615" cy="114" r="8"/><circle cx="637" cy="91" r="8"/><circle cx="660" cy="69" r="8"/><circle cx="683" cy="46" r="8"/><circle cx="705" cy="23" r="8"/><circle cx="729" r="8"/><circle cx="751" cy="-23" r="8"/><circle cx="774" cy="-45" r="8"/><circle cx="797" cy="-68" r="8"/><circle cx="820" cy="-91" r="8"/><circle cx="842" cy="-113" r="8"/><circle cx="866" cy="-137" r="8"/><circle cx="888" cy="-159" r="8"/><circle cx="911" cy="-182" r="8"/><circle cx="934" cy="-205" r="8"/><circle cx="455" cy="320" r="8"/><circle cx="478" cy="296" r="8"/><circle cx="501" cy="274" r="8"/><circle cx="523" cy="251" r="8"/><circle cx="546" cy="228" r="8"/><circle cx="569" cy="206" r="8"/><circle cx="591" cy="183" r="8"/><circle cx="615" cy="160" r="8"/><circle cx="637" cy="137" r="8"/><circle cx="660" cy="114" r="8"/><circle cx="683" cy="91" r="8"/><circle cx="705" cy="69" r="8"/><circle cx="728" cy="46" r="8"/><circle cx="751" cy="23" r="8"/><circle cx="774" r="8"/><circle cx="797" cy="-23" r="8"/><circle cx="820" cy="-45" r="8"/><circle cx="842" cy="-68" r="8"/><circle cx="865" cy="-91" r="8"/><circle cx="888" cy="-114" r="8"/><circle cx="911" cy="-137" r="8"/><circle cx="934" cy="-159" r="8"/><circle cx="956" cy="-182" r="8"/><circle cx="477" cy="342" r="8"/><circle cx="501" cy="319" r="8"/><circle cx="523" cy="296" r="8"/><circle cx="546" cy="274" r="8"/><circle cx="569" cy="251" r="8"/><circle cx="591" cy="228" r="8"/><circle cx="614" cy="206" r="8"/><circle cx="637" cy="182" r="8"/><circle cx="660" cy="160" r="8"/><circle cx="683" cy="137" r="8"/><circle cx="705" cy="114" r="8"/><circle cx="728" cy="91" r="8"/><circle cx="751" cy="69" r="8"/><circle cx="774" cy="45" r="8"/><circle cx="797" cy="23" r="8"/><circle cx="820" r="8"/><circle cx="842" cy="-23" r="8"/><circle cx="865" cy="-45" r="8"/><circle cx="888" cy="-68" r="8"/><circle cx="911" cy="-91" r="8"/><circle cx="934" cy="-114" r="8"/><circle cx="956" cy="-137" r="8"/><circle cx="979" cy="-159" r="8"/><circle cx="934" cy="-250" r="8"/><circle cx="957" cy="-274" r="8"/><circle cx="956" cy="-228" r="8"/><circle cx="980" cy="-251" r="8"/><circle cx="979" cy="-205" r="8"/><circle cx="1002" cy="-228" r="8"/><circle cx="1002" cy="-182" r="8"/><circle cx="1025" cy="-205" r="8"/><circle cx="500" cy="365" r="8"/><circle cx="523" cy="342" r="8"/><circle cx="546" cy="319" r="8"/><circle cx="569" cy="296" r="8"/><circle cx="591" cy="274" r="8"/><circle cx="614" cy="251" r="8"/><circle cx="637" cy="228" r="8"/><circle cx="660" cy="205" r="8"/><circle cx="683" cy="182" r="8"/><circle cx="705" cy="160" r="8"/><circle cx="728" cy="137" r="8"/><circle cx="751" cy="114" r="8"/><circle cx="774" cy="91" r="8"/><circle cx="797" cy="68" r="8"/><circle cx="820" cy="45" r="8"/><circle cx="842" cy="23" r="8"/><circle cx="865" r="8"/><circle cx="888" cy="-23" r="8"/><circle cx="910" cy="-45" r="8"/><circle cx="934" cy="-69" r="8"/><circle cx="956" cy="-91" r="8"/><circle cx="979" cy="-114" r="8"/><circle cx="1002" cy="-137" r="8"/><circle cx="523" cy="388" r="8"/><circle cx="546" cy="364" r="8"/><circle cx="569" cy="342" r="8"/><circle cx="591" cy="319" r="8"/><circle cx="614" cy="296" r="8"/><circle cx="637" cy="274" r="8"/><circle cx="659" cy="251" r="8"/><circle cx="683" cy="228" r="8"/><circle cx="705" cy="205" r="8"/><circle cx="728" cy="182" r="8"/><circle cx="751" cy="160" r="8"/><circle cx="774" cy="137" r="8"/><circle cx="796" cy="114" r="8"/><circle cx="820" cy="91" r="8"/><circle cx="842" cy="68" r="8"/><circle cx="865" cy="45" r="8"/><circle cx="888" cy="23" r="8"/><circle cx="910" r="8"/><circle cx="933" cy="-23" r="8"/><circle cx="956" cy="-46" r="8"/><circle cx="979" cy="-69" r="8"/><circle cx="1002" cy="-91" r="8"/><circle cx="1024" cy="-114" r="8"/><circle cx="545" cy="410" r="8"/><circle cx="569" cy="387" r="8"/><circle cx="591" cy="364" r="8"/><circle cx="614" cy="342" r="8"/><circle cx="637" cy="319" r="8"/><circle cx="659" cy="296" r="8"/><circle cx="682" cy="274" r="8"/><circle cx="705" cy="250" r="8"/><circle cx="728" cy="228" r="8"/><circle cx="751" cy="205" r="8"/><circle cx="774" cy="182" r="8"/><circle cx="796" cy="160" r="8"/><circle cx="819" cy="137" r="8"/><circle cx="842" cy="114" r="8"/><circle cx="865" cy="91" r="8"/><circle cx="888" cy="68" r="8"/><circle cx="910" cy="45" r="8"/><circle cx="933" cy="23" r="8"/><circle cx="956" r="8"/><circle cx="979" cy="-23" r="8"/><circle cx="1002" cy="-46" r="8"/><circle cx="1024" cy="-69" r="8"/><circle cx="1047" cy="-91" r="8"/><circle cx="568" cy="433" r="8"/><circle cx="591" cy="410" r="8"/><circle cx="614" cy="387" r="8"/><circle cx="637" cy="364" r="8"/><circle cx="659" cy="342" r="8"/><circle cx="682" cy="319" r="8"/><circle cx="705" cy="296" r="8"/><circle cx="728" cy="273" r="8"/><circle cx="751" cy="250" r="8"/><circle cx="774" cy="228" r="8"/><circle cx="796" cy="205" r="8"/><circle cx="819" cy="182" r="8"/><circle cx="842" cy="160" r="8"/><circle cx="865" cy="136" r="8"/><circle cx="888" cy="114" r="8"/><circle cx="910" cy="91" r="8"/><circle cx="933" cy="68" r="8"/><circle cx="956" cy="45" r="8"/><circle cx="978" cy="23" r="8"/><circle cx="1002" cy="-1" r="8"/><circle cx="1024" cy="-23" r="8"/><circle cx="1047" cy="-46" r="8"/><circle cx="1070" cy="-69" r="8"/><circle cx="1024" cy="-159" r="8"/><circle cx="1048" cy="-183" r="8"/><circle cx="1047" cy="-137" r="8"/><circle cx="1071" cy="-160" r="8"/><circle cx="1070" cy="-114" r="8"/><circle cx="1093" cy="-137" r="8"/><circle cx="1093" cy="-91" r="8"/><circle cx="1116" cy="-115" r="8"/><circle cx="774" cy="274" r="8"/><circle cx="797" cy="251" r="8"/><circle cx="820" cy="228" r="8"/><circle cx="842" cy="206" r="8"/><circle cx="865" cy="183" r="8"/><circle cx="888" cy="160" r="8"/><circle cx="910" cy="137" r="8"/><circle cx="934" cy="114" r="8"/><circle cx="956" cy="91" r="8"/><circle cx="979" cy="69" r="8"/><circle cx="1002" cy="46" r="8"/><circle cx="1024" cy="23" r="8"/><circle cx="1047" cy="1" r="8"/><circle cx="1071" cy="-23" r="8"/><circle cx="1093" cy="-45" r="8"/><circle cx="1116" cy="-68" r="8"/><circle cx="1139" cy="-91" r="8"/><circle cx="1161" cy="-113" r="8"/><circle cx="1184" cy="-136" r="8"/><circle cx="1207" cy="-159" r="8"/><circle cx="1230" cy="-182" r="8"/><circle cx="1253" cy="-205" r="8"/><circle cx="1275" cy="-228" r="8"/><circle cx="796" cy="297" r="8"/><circle cx="820" cy="274" r="8"/><circle cx="842" cy="251" r="8"/><circle cx="865" cy="228" r="8"/><circle cx="888" cy="206" r="8"/><circle cx="910" cy="183" r="8"/><circle cx="933" cy="160" r="8"/><circle cx="956" cy="137" r="8"/><circle cx="979" cy="114" r="8"/><circle cx="1002" cy="91" r="8"/><circle cx="1024" cy="69" r="8"/><circle cx="1047" cy="46" r="8"/><circle cx="1070" cy="23" r="8"/><circle cx="1093" r="8"/><circle cx="1116" cy="-23" r="8"/><circle cx="1139" cy="-45" r="8"/><circle cx="1161" cy="-68" r="8"/><circle cx="1184" cy="-91" r="8"/><circle cx="1207" cy="-113" r="8"/><circle cx="1230" cy="-137" r="8"/><circle cx="1253" cy="-159" r="8"/><circle cx="1275" cy="-182" r="8"/><circle cx="1298" cy="-205" r="8"/><circle cx="819" cy="320" r="8"/><circle cx="842" cy="296" r="8"/><circle cx="865" cy="274" r="8"/><circle cx="888" cy="251" r="8"/><circle cx="910" cy="228" r="8"/><circle cx="933" cy="206" r="8"/><circle cx="956" cy="183" r="8"/><circle cx="979" cy="160" r="8"/><circle cx="1002" cy="137" r="8"/><circle cx="1024" cy="114" r="8"/><circle cx="1047" cy="91" r="8"/><circle cx="1070" cy="69" r="8"/><circle cx="1093" cy="46" r="8"/><circle cx="1116" cy="23" r="8"/><circle cx="1139" r="8"/><circle cx="1161" cy="-23" r="8"/><circle cx="1184" cy="-45" r="8"/><circle cx="1207" cy="-68" r="8"/><circle cx="1229" cy="-91" r="8"/><circle cx="1253" cy="-114" r="8"/><circle cx="1275" cy="-137" r="8"/><circle cx="1298" cy="-159" r="8"/><circle cx="1321" cy="-182" r="8"/><circle cx="842" cy="342" r="8"/><circle cx="865" cy="319" r="8"/><circle cx="888" cy="296" r="8"/><circle cx="910" cy="274" r="8"/><circle cx="933" cy="251" r="8"/><circle cx="956" cy="228" r="8"/><circle cx="978" cy="206" r="8"/><circle cx="1002" cy="182" r="8"/><circle cx="1024" cy="160" r="8"/><circle cx="1047" cy="137" r="8"/><circle cx="1070" cy="114" r="8"/><circle cx="1093" cy="91" r="8"/><circle cx="1115" cy="69" r="8"/><circle cx="1139" cy="45" r="8"/><circle cx="1161" cy="23" r="8"/><circle cx="1184" r="8"/><circle cx="1207" cy="-23" r="8"/><circle cx="1229" cy="-45" r="8"/><circle cx="1252" cy="-68" r="8"/><circle cx="1275" cy="-91" r="8"/><circle cx="1298" cy="-114" r="8"/><circle cx="1321" cy="-137" r="8"/><circle cx="1344" cy="-159" r="8"/><circle cx="1298" cy="-250" r="8"/><circle cx="1321" cy="-274" r="8"/><circle cx="1321" cy="-228" r="8"/><circle cx="1344" cy="-251" r="8"/><circle cx="1344" cy="-205" r="8"/><circle cx="1367" cy="-228" r="8"/><circle cx="1366" cy="-182" r="8"/><circle cx="1390" cy="-205" r="8"/><circle cx="864" cy="365" r="8"/><circle cx="888" cy="342" r="8"/><circle cx="910" cy="319" r="8"/><circle cx="933" cy="296" r="8"/><circle cx="956" cy="274" r="8"/><circle cx="978" cy="251" r="8"/><circle cx="1001" cy="228" r="8"/><circle cx="1024" cy="205" r="8"/><circle cx="1047" cy="182" r="8"/><circle cx="1070" cy="160" r="8"/><circle cx="1093" cy="137" r="8"/><circle cx="1115" cy="114" r="8"/><circle cx="1138" cy="91" r="8"/><circle cx="1161" cy="68" r="8"/><circle cx="1184" cy="45" r="8"/><circle cx="1207" cy="23" r="8"/><circle cx="1229" r="8"/><circle cx="1252" cy="-23" r="8"/><circle cx="1275" cy="-45" r="8"/><circle cx="1298" cy="-69" r="8"/><circle cx="1321" cy="-91" r="8"/><circle cx="1344" cy="-114" r="8"/><circle cx="1366" cy="-137" r="8"/><circle cx="887" cy="388" r="8"/><circle cx="910" cy="364" r="8"/><circle cx="933" cy="342" r="8"/><circle cx="956" cy="319" r="8"/><circle cx="978" cy="296" r="8"/><circle cx="1001" cy="274" r="8"/><circle cx="1024" cy="251" r="8"/><circle cx="1047" cy="228" r="8"/><circle cx="1070" cy="205" r="8"/><circle cx="1093" cy="182" r="8"/><circle cx="1115" cy="160" r="8"/><circle cx="1138" cy="137" r="8"/><circle cx="1161" cy="114" r="8"/><circle cx="1184" cy="91" r="8"/><circle cx="1207" cy="68" r="8"/><circle cx="1229" cy="45" r="8"/><circle cx="1252" cy="23" r="8"/><circle cx="1275" r="8"/><circle cx="1298" cy="-23" r="8"/><circle cx="1321" cy="-46" r="8"/><circle cx="1344" cy="-69" r="8"/><circle cx="1366" cy="-91" r="8"/><circle cx="1389" cy="-114" r="8"/><circle cx="910" cy="410" r="8"/><circle cx="933" cy="387" r="8"/><circle cx="956" cy="364" r="8"/><circle cx="978" cy="342" r="8"/><circle cx="1001" cy="319" r="8"/><circle cx="1024" cy="296" r="8"/><circle cx="1047" cy="274" r="8"/><circle cx="1070" cy="250" r="8"/><circle cx="1093" cy="228" r="8"/><circle cx="1115" cy="205" r="8"/><circle cx="1138" cy="182" r="8"/><circle cx="1161" cy="160" r="8"/><circle cx="1183" cy="137" r="8"/><circle cx="1207" cy="114" r="8"/><circle cx="1229" cy="91" r="8"/><circle cx="1252" cy="68" r="8"/><circle cx="1275" cy="45" r="8"/><circle cx="1298" cy="23" r="8"/><circle cx="1320" r="8"/><circle cx="1344" cy="-23" r="8"/><circle cx="1366" cy="-46" r="8"/><circle cx="1389" cy="-69" r="8"/><circle cx="1412" cy="-91" r="8"/><circle cx="932" cy="433" r="8"/><circle cx="956" cy="410" r="8"/><circle cx="978" cy="387" r="8"/><circle cx="1001" cy="364" r="8"/><circle cx="1024" cy="342" r="8"/><circle cx="1047" cy="319" r="8"/><circle cx="1069" cy="296" r="8"/><circle cx="1093" cy="273" r="8"/><circle cx="1115" cy="250" r="8"/><circle cx="1138" cy="228" r="8"/><circle cx="1161" cy="205" r="8"/><circle cx="1183" cy="182" r="8"/><circle cx="1206" cy="160" r="8"/><circle cx="1229" cy="136" r="8"/><circle cx="1252" cy="114" r="8"/><circle cx="1275" cy="91" r="8"/><circle cx="1298" cy="68" r="8"/><circle cx="1320" cy="45" r="8"/><circle cx="1343" cy="23" r="8"/><circle cx="1366" cy="-1" r="8"/><circle cx="1389" cy="-23" r="8"/><circle cx="1412" cy="-46" r="8"/><circle cx="1434" cy="-69" r="8"/><circle cx="1389" cy="-159" r="8"/><circle cx="1412" cy="-183" r="8"/><circle cx="1412" cy="-137" r="8"/><circle cx="1435" cy="-160" r="8"/><circle cx="1434" cy="-114" r="8"/><circle cx="1458" cy="-137" r="8"/><circle cx="1457" cy="-91" r="8"/><circle cx="1480" cy="-115" r="8"/></g></svg>