<svg enable-background="new 0 0 280 208.7" viewBox="0 0 280 208.7" xmlns="http://www.w3.org/2000/svg" xmlns:xlink="http://www.w3.org/1999/xlink"><clipPath id="a"><path d="m0 0h280v208.7h-280z"/></clipPath><g clip-path="url(#a)" fill="#919396" opacity=".1"><circle cx="-534.6" cy="268.2" r="5.8"/><circle cx="-517.8" cy="251.4" r="5.8"/><circle cx="-501.4" cy="235" r="5.8"/><circle cx="-485" cy="218.6" r="5.8"/><circle cx="-468.6" cy="202.2" r="5.8"/><circle cx="-452.2" cy="185.8" r="5.8"/><circle cx="-435.8" cy="169.4" r="5.8"/><circle cx="-418.9" cy="152.5" r="5.8"/><circle cx="-402.5" cy="136.1" r="5.8"/><circle cx="-386.1" cy="119.7" r="5.8"/><circle cx="-369.7" cy="103.3" r="5.8"/><circle cx="-353.3" cy="87" r="5.8"/><circle cx="-336.9" cy="70.6" r="5.8"/><circle cx="-320.1" cy="53.7" r="5.8"/><circle cx="-303.7" cy="37.3" r="5.8"/><circle cx="-287.3" cy="20.9" r="5.8"/><circle cx="-270.9" cy="4.5" r="5.8"/><circle cx="-254.5" cy="-11.9" r="5.8"/><circle cx="-238.1" cy="-28.3" r="5.8"/><circle cx="-221.3" cy="-45.1" r="5.8"/><circle cx="-204.9" cy="-61.5" r="5.8"/><circle cx="-188.5" cy="-77.9" r="5.8"/><circle cx="-172.1" cy="-94.3" r="5.8"/><circle cx="-518.2" cy="284.6" r="5.8"/><circle cx="-501.4" cy="267.8" r="5.8"/><circle cx="-485" cy="251.4" r="5.8"/><circle cx="-468.6" cy="235" r="5.8"/><circle cx="-452.2" cy="218.6" r="5.8"/><circle cx="-435.8" cy="202.2" r="5.8"/><circle cx="-419.4" cy="185.8" r="5.8"/><circle cx="-402.5" cy="168.9" r="5.8"/><circle cx="-386.1" cy="152.5" r="5.8"/><circle cx="-369.7" cy="136.1" r="5.8"/><circle cx="-353.3" cy="119.7" r="5.8"/><circle cx="-336.9" cy="103.3" r="5.8"/><circle cx="-320.5" cy="87" r="5.8"/><circle cx="-303.7" cy="70.1" r="5.8"/><circle cx="-287.3" cy="53.7" r="5.8"/><circle cx="-270.9" cy="37.3" r="5.8"/><circle cx="-254.5" cy="20.9" r="5.8"/><circle cx="-238.1" cy="4.5" r="5.8"/><circle cx="-221.7" cy="-11.9" r="5.8"/><circle cx="-204.9" cy="-28.7" r="5.8"/><circle cx="-188.5" cy="-45.1" r="5.8"/><circle cx="-172.1" cy="-61.5" r="5.8"/><circle cx="-155.7" cy="-77.9" r="5.8"/><circle cx="-501.8" cy="301" r="5.8"/><circle cx="-485" cy="284.2" r="5.8"/><circle cx="-468.6" cy="267.8" r="5.8"/><circle cx="-452.2" cy="251.4" r="5.8"/><circle cx="-435.8" cy="235" r="5.8"/><circle cx="-419.4" cy="218.6" r="5.8"/><circle cx="-403" cy="202.2" r="5.8"/><circle cx="-386.1" cy="185.3" r="5.8"/><circle cx="-369.7" cy="168.9" r="5.8"/><circle cx="-353.3" cy="152.5" r="5.8"/><circle cx="-336.9" cy="136.1" r="5.8"/><circle cx="-320.5" cy="119.7" r="5.8"/><circle cx="-304.1" cy="103.3" r="5.8"/><circle cx="-287.3" cy="86.5" r="5.8"/><circle cx="-270.9" cy="70.1" r="5.8"/><circle cx="-254.5" cy="53.7" r="5.8"/><circle cx="-238.1" cy="37.3" r="5.8"/><circle cx="-221.7" cy="20.9" r="5.8"/><circle cx="-205.3" cy="4.5" r="5.8"/><circle cx="-188.5" cy="-12.3" r="5.8"/><circle cx="-172.1" cy="-28.7" r="5.8"/><circle cx="-155.7" cy="-45.1" r="5.8"/><circle cx="-139.3" cy="-61.5" r="5.8"/><circle cx="-485.4" cy="317.4" r="5.8"/><circle cx="-468.6" cy="300.6" r="5.8"/><circle cx="-452.2" cy="284.2" r="5.8"/><circle cx="-435.8" cy="267.8" r="5.8"/><circle cx="-419.4" cy="251.4" r="5.8"/><circle cx="-403" cy="235" r="5.8"/><circle cx="-386.6" cy="218.6" r="5.8"/><circle cx="-369.7" cy="201.7" r="5.8"/><circle cx="-353.3" cy="185.3" r="5.8"/><circle cx="-336.9" cy="168.9" r="5.8"/><circle cx="-320.5" cy="152.5" r="5.8"/><circle cx="-304.1" cy="136.1" r="5.8"/><circle cx="-287.7" cy="119.7" r="5.8"/><circle cx="-270.9" cy="102.9" r="5.8"/><circle cx="-254.5" cy="86.5" r="5.8"/><circle cx="-238.1" cy="70.1" r="5.8"/><circle cx="-221.7" cy="53.7" r="5.8"/><circle cx="-205.3" cy="37.3" r="5.8"/><circle cx="-188.9" cy="20.9" r="5.8"/><circle cx="-172.1" cy="4.1" r="5.8"/><circle cx="-155.7" cy="-12.3" r="5.8"/><circle cx="-139.3" cy="-28.7" r="5.8"/><circle cx="-122.9" cy="-45.1" r="5.8"/><circle cx="-155.7" cy="-110.7" r="5.8"/><circle cx="-138.8" cy="-127.6" r="5.8"/><circle cx="-139.3" cy="-94.3" r="5.8"/><circle cx="-122.4" cy="-111.2" r="5.8"/><circle cx="-122.9" cy="-77.9" r="5.8"/><circle cx="-106" cy="-94.8" r="5.8"/><circle cx="-106.5" cy="-61.5" r="5.8"/><circle cx="-89.6" cy="-78.4" r="5.8"/><circle cx="-469" cy="333.8" r="5.8"/><circle cx="-452.2" cy="317" r="5.8"/><circle cx="-435.8" cy="300.6" r="5.8"/><circle cx="-419.4" cy="284.2" r="5.8"/><circle cx="-403" cy="267.8" r="5.8"/><circle cx="-386.6" cy="251.4" r="5.8"/><circle cx="-370.2" cy="235" r="5.8"/><circle cx="-353.3" cy="218.1" r="5.8"/><circle cx="-336.9" cy="201.7" r="5.8"/><circle cx="-320.5" cy="185.3" r="5.8"/><circle cx="-304.1" cy="168.9" r="5.8"/><circle cx="-287.7" cy="152.5" r="5.8"/><circle cx="-271.3" cy="136.1" r="5.8"/><circle cx="-254.5" cy="119.3" r="5.8"/><circle cx="-238.1" cy="102.9" r="5.8"/><circle cx="-221.7" cy="86.5" r="5.8"/><circle cx="-205.3" cy="70.1" r="5.8"/><circle cx="-188.9" cy="53.7" r="5.8"/><circle cx="-172.5" cy="37.3" r="5.8"/><circle cx="-155.7" cy="20.5" r="5.8"/><circle cx="-139.3" cy="4.1" r="5.8"/><circle cx="-122.9" cy="-12.3" r="5.8"/><circle cx="-106.5" cy="-28.7" r="5.8"/><circle cx="-452.6" cy="350.2" r="5.8"/><circle cx="-435.8" cy="333.4" r="5.8"/><circle cx="-419.4" cy="317" r="5.8"/><circle cx="-403" cy="300.6" r="5.8"/><circle cx="-386.6" cy="284.2" r="5.8"/><circle cx="-370.2" cy="267.8" r="5.8"/><circle cx="-353.8" cy="251.4" r="5.8"/><circle cx="-336.9" cy="234.5" r="5.8"/><circle cx="-320.5" cy="218.1" r="5.8"/><circle cx="-304.1" cy="201.7" r="5.8"/><circle cx="-287.7" cy="185.3" r="5.8"/><circle cx="-271.3" cy="168.9" r="5.8"/><circle cx="-254.9" cy="152.5" r="5.8"/><circle cx="-238.1" cy="135.7" r="5.8"/><circle cx="-221.7" cy="119.3" r="5.8"/><circle cx="-205.3" cy="102.9" r="5.8"/><circle cx="-188.9" cy="86.5" r="5.8"/><circle cx="-172.5" cy="70.1" r="5.8"/><circle cx="-156.1" cy="53.7" r="5.8"/><circle cx="-139.3" cy="36.9" r="5.8"/><circle cx="-122.9" cy="20.5" r="5.8"/><circle cx="-106.5" cy="4.1" r="5.8"/><circle cx="-90.1" cy="-12.3" r="5.8"/><circle cx="-436.2" cy="366.6" r="5.8"/><circle cx="-419.4" cy="349.8" r="5.8"/><circle cx="-403" cy="333.4" r="5.8"/><circle cx="-386.6" cy="317" r="5.8"/><circle cx="-370.2" cy="300.6" r="5.8"/><circle cx="-353.8" cy="284.2" r="5.8"/><circle cx="-337.4" cy="267.8" r="5.8"/><circle cx="-320.5" cy="250.9" r="5.8"/><circle cx="-304.1" cy="234.5" r="5.8"/><circle cx="-287.7" cy="218.1" r="5.8"/><circle cx="-271.3" cy="201.7" r="5.8"/><circle cx="-254.9" cy="185.3" r="5.8"/><circle cx="-238.5" cy="168.9" r="5.8"/><circle cx="-221.7" cy="152.1" r="5.8"/><circle cx="-205.3" cy="135.7" r="5.8"/><circle cx="-188.9" cy="119.3" r="5.8"/><circle cx="-172.5" cy="102.9" r="5.8"/><circle cx="-156.1" cy="86.5" r="5.8"/><circle cx="-139.7" cy="70.1" r="5.8"/><circle cx="-122.9" cy="53.3" r="5.8"/><circle cx="-106.5" cy="36.9" r="5.8"/><circle cx="-90.1" cy="20.5" r="5.8"/><circle cx="-73.7" cy="4.1" r="5.8"/><circle cx="-419.8" cy="383" r="5.8"/><circle cx="-403" cy="366.2" r="5.8"/><circle cx="-386.6" cy="349.8" r="5.8"/><circle cx="-370.2" cy="333.4" r="5.8"/><circle cx="-353.8" cy="317" r="5.8"/><circle cx="-337.4" cy="300.6" r="5.8"/><circle cx="-321" cy="284.2" r="5.8"/><circle cx="-304.1" cy="267.3" r="5.8"/><circle cx="-287.7" cy="250.9" r="5.8"/><circle cx="-271.3" cy="234.5" r="5.8"/><circle cx="-254.9" cy="218.1" r="5.8"/><circle cx="-238.5" cy="201.7" r="5.8"/><circle cx="-222.1" cy="185.3" r="5.8"/><circle cx="-205.3" cy="168.5" r="5.8"/><circle cx="-188.9" cy="152.1" r="5.8"/><circle cx="-172.5" cy="135.7" r="5.8"/><circle cx="-156.1" cy="119.3" r="5.8"/><circle cx="-139.7" cy="102.9" r="5.8"/><circle cx="-123.3" cy="86.5" r="5.8"/><circle cx="-106.5" cy="69.7" r="5.8"/><circle cx="-90.1" cy="53.3" r="5.8"/><circle cx="-73.7" cy="36.9" r="5.8"/><circle cx="-57.3" cy="20.5" r="5.8"/><circle cx="-90.1" cy="-45.1" r="5.8"/><circle cx="-73.2" cy="-62" r="5.8"/><circle cx="-73.7" cy="-28.7" r="5.8"/><circle cx="-56.8" cy="-45.6" r="5.8"/><circle cx="-57.3" cy="-12.3" r="5.8"/><circle cx="-40.4" cy="-29.2" r="5.8"/><circle cx="-40.9" cy="4.1" r="5.8"/><circle cx="-24" cy="-12.8" r="5.8"/><circle cx="-270.9" cy="268.2" r="5.8"/><circle cx="-254" cy="251.4" r="5.8"/><circle cx="-237.7" cy="235" r="5.8"/><circle cx="-221.3" cy="218.6" r="5.8"/><circle cx="-204.9" cy="202.2" r="5.8"/><circle cx="-188.5" cy="185.8" r="5.8"/><circle cx="-172.1" cy="169.4" r="5.8"/><circle cx="-155.2" cy="152.5" r="5.8"/><circle cx="-138.8" cy="136.1" r="5.8"/><circle cx="-122.4" cy="119.7" r="5.8"/><circle cx="-106" cy="103.3" r="5.8"/><circle cx="-89.6" cy="87" r="5.8"/><circle cx="-73.2" cy="70.6" r="5.8"/><circle cx="-56.4" cy="53.7" r="5.8"/><circle cx="-40" cy="37.3" r="5.8"/><circle cx="-23.6" cy="20.9" r="5.8"/><circle cx="-7.2" cy="4.5" r="5.8"/><circle cx="9.2" cy="-11.9" r="5.8"/><circle cx="25.6" cy="-28.3" r="5.8"/><circle cx="42.4" cy="-45.1" r="5.8"/><circle cx="58.8" cy="-61.5" r="5.8"/><circle cx="75.2" cy="-77.9" r="5.8"/><circle cx="91.6" cy="-94.3" r="5.8"/><circle cx="-254.5" cy="284.6" r="5.8"/><circle cx="-237.7" cy="267.8" r="5.8"/><circle cx="-221.3" cy="251.4" r="5.8"/><circle cx="-204.9" cy="235" r="5.8"/><circle cx="-188.5" cy="218.6" r="5.8"/><circle cx="-172.1" cy="202.2" r="5.8"/><circle cx="-155.7" cy="185.8" r="5.8"/><circle cx="-138.8" cy="168.9" r="5.8"/><circle cx="-122.4" cy="152.5" r="5.8"/><circle cx="-106" cy="136.1" r="5.8"/><circle cx="-89.6" cy="119.7" r="5.8"/><circle cx="-73.2" cy="103.3" r="5.8"/><circle cx="-56.8" cy="87" r="5.8"/><circle cx="-40" cy="70.1" r="5.8"/><circle cx="-23.6" cy="53.7" r="5.8"/><circle cx="-7.2" cy="37.3" r="5.8"/><circle cx="9.2" cy="20.9" r="5.8"/><circle cx="25.6" cy="4.5" r="5.8"/><circle cx="42" cy="-11.9" r="5.8"/><circle cx="58.8" cy="-28.7" r="5.8"/><circle cx="75.2" cy="-45.1" r="5.8"/><circle cx="91.6" cy="-61.5" r="5.8"/><circle cx="108" cy="-77.9" r="5.8"/><circle cx="-238.1" cy="301" r="5.8"/><circle cx="-221.3" cy="284.2" r="5.8"/><circle cx="-204.9" cy="267.8" r="5.8"/><circle cx="-188.5" cy="251.4" r="5.8"/><circle cx="-172.1" cy="235" r="5.8"/><circle cx="-155.7" cy="218.6" r="5.8"/><circle cx="-139.3" cy="202.2" r="5.8"/><circle cx="-122.4" cy="185.3" r="5.8"/><circle cx="-106" cy="168.9" r="5.8"/><circle cx="-89.6" cy="152.5" r="5.8"/><circle cx="-73.2" cy="136.1" r="5.8"/><circle cx="-56.8" cy="119.7" r="5.8"/><circle cx="-40.4" cy="103.3" r="5.8"/><circle cx="-23.6" cy="86.5" r="5.8"/><circle cx="-7.2" cy="70.1" r="5.8"/><circle cx="9.2" cy="53.7" r="5.8"/><circle cx="25.6" cy="37.3" r="5.8"/><circle cx="42" cy="20.9" r="5.8"/><circle cx="58.4" cy="4.5" r="5.8"/><circle cx="75.2" cy="-12.3" r="5.8"/><circle cx="91.6" cy="-28.7" r="5.8"/><circle cx="108" cy="-45.1" r="5.8"/><circle cx="124.4" cy="-61.5" r="5.8"/><circle cx="-221.7" cy="317.4" r="5.8"/><circle cx="-204.9" cy="300.6" r="5.8"/><circle cx="-188.5" cy="284.2" r="5.8"/><circle cx="-172.1" cy="267.8" r="5.8"/><circle cx="-155.7" cy="251.4" r="5.8"/><circle cx="-139.3" cy="235" r="5.8"/><circle cx="-122.9" cy="218.6" r="5.8"/><circle cx="-106" cy="201.7" r="5.8"/><circle cx="-89.6" cy="185.3" r="5.8"/><circle cx="-73.2" cy="168.9" r="5.8"/><circle cx="-56.8" cy="152.5" r="5.8"/><circle cx="-40.4" cy="136.1" r="5.8"/><circle cx="-24" cy="119.7" r="5.8"/><circle cx="-7.2" cy="102.9" r="5.8"/><circle cx="9.2" cy="86.5" r="5.8"/><circle cx="25.6" cy="70.1" r="5.8"/><circle cx="42" cy="53.7" r="5.8"/><circle cx="58.4" cy="37.3" r="5.8"/><circle cx="74.8" cy="20.9" r="5.8"/><circle cx="91.6" cy="4.1" r="5.8"/><circle cx="108" cy="-12.3" r="5.8"/><circle cx="124.4" cy="-28.7" r="5.8"/><circle cx="140.8" cy="-45.1" r="5.8"/><circle cx="108" cy="-110.7" r="5.8"/><circle cx="124.9" cy="-127.6" r="5.8"/><circle cx="124.4" cy="-94.3" r="5.8"/><circle cx="141.3" cy="-111.2" r="5.8"/><circle cx="140.8" cy="-77.9" r="5.8"/><circle cx="157.7" cy="-94.8" r="5.8"/><circle cx="157.2" cy="-61.5" r="5.8"/><circle cx="174.1" cy="-78.4" r="5.8"/><circle cx="-205.3" cy="333.8" r="5.8"/><circle cx="-188.5" cy="317" r="5.8"/><circle cx="-172.1" cy="300.6" r="5.8"/><circle cx="-155.7" cy="284.2" r="5.8"/><circle cx="-139.3" cy="267.8" r="5.8"/><circle cx="-122.9" cy="251.4" r="5.8"/><circle cx="-106.5" cy="235" r="5.8"/><circle cx="-89.6" cy="218.1" r="5.8"/><circle cx="-73.2" cy="201.7" r="5.8"/><circle cx="-56.8" cy="185.3" r="5.8"/><circle cx="-40.4" cy="168.9" r="5.8"/><circle cx="-24" cy="152.5" r="5.8"/><circle cx="-7.6" cy="136.1" r="5.8"/><circle cx="9.2" cy="119.3" r="5.8"/><circle cx="25.6" cy="102.9" r="5.8"/><circle cx="42" cy="86.5" r="5.8"/><circle cx="58.4" cy="70.1" r="5.8"/><circle cx="74.8" cy="53.7" r="5.8"/><circle cx="91.2" cy="37.3" r="5.8"/><circle cx="108" cy="20.5" r="5.8"/><circle cx="124.4" cy="4.1" r="5.8"/><circle cx="140.8" cy="-12.3" r="5.8"/><circle cx="157.2" cy="-28.7" r="5.8"/><circle cx="-188.9" cy="350.2" r="5.8"/><circle cx="-172.1" cy="333.4" r="5.8"/><circle cx="-155.7" cy="317" r="5.8"/><circle cx="-139.3" cy="300.6" r="5.8"/><circle cx="-122.9" cy="284.2" r="5.8"/><circle cx="-106.5" cy="267.8" r="5.8"/><circle cx="-90.1" cy="251.4" r="5.8"/><circle cx="-73.2" cy="234.5" r="5.8"/><circle cx="-56.8" cy="218.1" r="5.8"/><circle cx="-40.4" cy="201.7" r="5.8"/><circle cx="-24" cy="185.3" r="5.8"/><circle cx="-7.6" cy="168.9" r="5.8"/><circle cx="8.8" cy="152.5" r="5.8"/><circle cx="25.6" cy="135.7" r="5.8"/><circle cx="42" cy="119.3" r="5.8"/><circle cx="58.4" cy="102.9" r="5.8"/><circle cx="74.8" cy="86.5" r="5.8"/><circle cx="91.2" cy="70.1" r="5.8"/><circle cx="107.6" cy="53.7" r="5.8"/><circle cx="124.4" cy="36.9" r="5.8"/><circle cx="140.8" cy="20.5" r="5.8"/><circle cx="157.2" cy="4.1" r="5.8"/><circle cx="173.6" cy="-12.3" r="5.8"/><circle cx="-172.5" cy="366.6" r="5.8"/><circle cx="-155.7" cy="349.8" r="5.8"/><circle cx="-139.3" cy="333.4" r="5.8"/><circle cx="-122.9" cy="317" r="5.8"/><circle cx="-106.5" cy="300.6" r="5.8"/><circle cx="-90.1" cy="284.2" r="5.8"/><circle cx="-73.7" cy="267.8" r="5.8"/><circle cx="-56.8" cy="250.9" r="5.8"/><circle cx="-40.4" cy="234.5" r="5.8"/><circle cx="-24" cy="218.1" r="5.8"/><circle cx="-7.6" cy="201.7" r="5.8"/><circle cx="8.8" cy="185.3" r="5.8"/><circle cx="25.2" cy="168.9" r="5.8"/><circle cx="42" cy="152.1" r="5.8"/><circle cx="58.4" cy="135.7" r="5.8"/><circle cx="74.8" cy="119.3" r="5.8"/><circle cx="91.2" cy="102.9" r="5.8"/><circle cx="107.6" cy="86.5" r="5.8"/><circle cx="124" cy="70.1" r="5.8"/><circle cx="140.8" cy="53.3" r="5.8"/><circle cx="157.2" cy="36.9" r="5.8"/><circle cx="173.6" cy="20.5" r="5.8"/><circle cx="190" cy="4.1" r="5.8"/><circle cx="-156.1" cy="383" r="5.8"/><circle cx="-139.3" cy="366.2" r="5.8"/><circle cx="-122.9" cy="349.8" r="5.8"/><circle cx="-106.5" cy="333.4" r="5.8"/><circle cx="-90.1" cy="317" r="5.8"/><circle cx="-73.7" cy="300.6" r="5.8"/><circle cx="-57.3" cy="284.2" r="5.8"/><circle cx="-40.4" cy="267.3" r="5.8"/><circle cx="-24" cy="250.9" r="5.8"/><circle cx="-7.6" cy="234.5" r="5.8"/><circle cx="8.8" cy="218.1" r="5.8"/><circle cx="25.2" cy="201.7" r="5.8"/><circle cx="41.6" cy="185.3" r="5.8"/><circle cx="58.4" cy="168.5" r="5.8"/><circle cx="74.8" cy="152.1" r="5.8"/><circle cx="91.2" cy="135.7" r="5.8"/><circle cx="107.6" cy="119.3" r="5.8"/><circle cx="124" cy="102.9" r="5.8"/><circle cx="140.4" cy="86.5" r="5.8"/><circle cx="157.2" cy="69.7" r="5.8"/><circle cx="173.6" cy="53.3" r="5.8"/><circle cx="190" cy="36.9" r="5.8"/><circle cx="206.4" cy="20.5" r="5.8"/><circle cx="173.6" cy="-45.1" r="5.8"/><circle cx="190.5" cy="-62" r="5.8"/><circle cx="190" cy="-28.7" r="5.8"/><circle cx="206.9" cy="-45.6" r="5.8"/><circle cx="206.4" cy="-12.3" r="5.8"/><circle cx="223.3" cy="-29.2" r="5.8"/><circle cx="222.8" cy="4.1" r="5.8"/><circle cx="239.7" cy="-12.8" r="5.8"/><circle cx="-7.6" cy="268.2" r="5.8"/><circle cx="9.2" cy="251.4" r="5.8"/><circle cx="25.6" cy="235" r="5.8"/><circle cx="42" cy="218.6" r="5.8"/><circle cx="58.4" cy="202.2" r="5.8"/><circle cx="74.8" cy="185.8" r="5.8"/><circle cx="91.2" cy="169.4" r="5.8"/><circle cx="108" cy="152.5" r="5.8"/><circle cx="124.4" cy="136.1" r="5.8"/><circle cx="140.8" cy="119.7" r="5.8"/><circle cx="157.2" cy="103.3" r="5.8"/><circle cx="173.6" cy="87" r="5.8"/><circle cx="190" cy="70.6" r="5.8"/><circle cx="206.9" cy="53.7" r="5.8"/><circle cx="223.3" cy="37.3" r="5.8"/><circle cx="239.7" cy="20.9" r="5.8"/><circle cx="256.1" cy="4.5" r="5.8"/><circle cx="272.5" cy="-11.9" r="5.8"/><circle cx="288.9" cy="-28.3" r="5.8"/><circle cx="305.7" cy="-45.1" r="5.8"/><circle cx="322.1" cy="-61.5" r="5.8"/><circle cx="338.5" cy="-77.9" r="5.8"/><circle cx="354.9" cy="-94.3" r="5.8"/><circle cx="8.8" cy="284.6" r="5.8"/><circle cx="25.6" cy="267.8" r="5.8"/><circle cx="42" cy="251.4" r="5.8"/><circle cx="58.4" cy="235" r="5.8"/><circle cx="74.8" cy="218.6" r="5.8"/><circle cx="91.2" cy="202.2" r="5.8"/><circle cx="107.6" cy="185.8" r="5.8"/><circle cx="124.4" cy="168.9" r="5.8"/><circle cx="140.8" cy="152.5" r="5.8"/><circle cx="157.2" cy="136.1" r="5.8"/><circle cx="173.6" cy="119.7" r="5.8"/><circle cx="190" cy="103.3" r="5.8"/><circle cx="206.4" cy="87" r="5.8"/><circle cx="223.3" cy="70.1" r="5.8"/><circle cx="239.7" cy="53.7" r="5.8"/><circle cx="256.1" cy="37.3" r="5.8"/><circle cx="272.5" cy="20.9" r="5.8"/><circle cx="288.9" cy="4.5" r="5.8"/><circle cx="305.3" cy="-11.9" r="5.8"/><circle cx="322.1" cy="-28.7" r="5.8"/><circle cx="338.5" cy="-45.1" r="5.8"/><circle cx="354.9" cy="-61.5" r="5.8"/><circle cx="371.3" cy="-77.9" r="5.8"/><circle cx="25.2" cy="301" r="5.8"/><circle cx="42" cy="284.2" r="5.8"/><circle cx="58.4" cy="267.8" r="5.8"/><circle cx="74.8" cy="251.4" r="5.8"/><circle cx="91.2" cy="235" r="5.8"/><circle cx="107.6" cy="218.6" r="5.8"/><circle cx="124" cy="202.2" r="5.8"/><circle cx="140.8" cy="185.3" r="5.8"/><circle cx="157.2" cy="168.9" r="5.8"/><circle cx="173.6" cy="152.5" r="5.8"/><circle cx="190" cy="136.1" r="5.8"/><circle cx="206.4" cy="119.7" r="5.8"/><circle cx="222.8" cy="103.3" r="5.8"/><circle cx="239.7" cy="86.5" r="5.8"/><circle cx="256.1" cy="70.1" r="5.8"/><circle cx="272.5" cy="53.7" r="5.8"/><circle cx="288.9" cy="37.3" r="5.8"/><circle cx="305.3" cy="20.9" r="5.8"/><circle cx="321.7" cy="4.5" r="5.8"/><circle cx="338.5" cy="-12.3" r="5.8"/><circle cx="354.9" cy="-28.7" r="5.8"/><circle cx="371.3" cy="-45.1" r="5.8"/><circle cx="387.7" cy="-61.5" r="5.8"/><circle cx="41.6" cy="317.4" r="5.8"/><circle cx="58.4" cy="300.6" r="5.8"/><circle cx="74.8" cy="284.2" r="5.8"/><circle cx="91.2" cy="267.8" r="5.8"/><circle cx="107.6" cy="251.4" r="5.8"/><circle cx="124" cy="235" r="5.8"/><circle cx="140.4" cy="218.6" r="5.8"/><circle cx="157.2" cy="201.7" r="5.8"/><circle cx="173.6" cy="185.3" r="5.8"/><circle cx="190" cy="168.9" r="5.8"/><circle cx="206.4" cy="152.5" r="5.8"/><circle cx="222.8" cy="136.1" r="5.8"/><circle cx="239.2" cy="119.7" r="5.8"/><circle cx="256.1" cy="102.9" r="5.8"/><circle cx="272.5" cy="86.5" r="5.8"/><circle cx="288.9" cy="70.1" r="5.8"/><circle cx="305.3" cy="53.7" r="5.8"/><circle cx="321.7" cy="37.3" r="5.8"/><circle cx="338.1" cy="20.9" r="5.8"/><circle cx="354.9" cy="4.1" r="5.8"/><circle cx="371.3" cy="-12.3" r="5.8"/><circle cx="387.7" cy="-28.7" r="5.8"/><circle cx="404.1" cy="-45.1" r="5.8"/><circle cx="371.3" cy="-110.7" r="5.8"/><circle cx="388.1" cy="-127.6" r="5.8"/><circle cx="387.7" cy="-94.3" r="5.8"/><circle cx="404.5" cy="-111.2" r="5.8"/><circle cx="404.1" cy="-77.9" r="5.8"/><circle cx="420.9" cy="-94.8" r="5.8"/><circle cx="420.5" cy="-61.5" r="5.8"/><circle cx="437.3" cy="-78.4" r="5.8"/><circle cx="58" cy="333.8" r="5.8"/><circle cx="74.8" cy="317" r="5.8"/><circle cx="91.2" cy="300.6" r="5.8"/><circle cx="107.6" cy="284.2" r="5.8"/><circle cx="124" cy="267.8" r="5.8"/><circle cx="140.4" cy="251.4" r="5.8"/><circle cx="156.8" cy="235" r="5.8"/><circle cx="173.6" cy="218.1" r="5.8"/><circle cx="190" cy="201.7" r="5.8"/><circle cx="206.4" cy="185.3" r="5.8"/><circle cx="222.8" cy="168.9" r="5.8"/><circle cx="239.2" cy="152.5" r="5.8"/><circle cx="255.6" cy="136.1" r="5.8"/><circle cx="272.5" cy="119.3" r="5.8"/><circle cx="288.9" cy="102.9" r="5.8"/><circle cx="305.3" cy="86.5" r="5.8"/><circle cx="321.7" cy="70.1" r="5.8"/><circle cx="338.1" cy="53.7" r="5.8"/><circle cx="354.5" cy="37.3" r="5.8"/><circle cx="371.3" cy="20.5" r="5.8"/><circle cx="387.7" cy="4.1" r="5.8"/><circle cx="404.1" cy="-12.3" r="5.8"/><circle cx="420.5" cy="-28.7" r="5.8"/><circle cx="74.4" cy="350.2" r="5.8"/><circle cx="91.2" cy="333.4" r="5.8"/><circle cx="107.6" cy="317" r="5.8"/><circle cx="124" cy="300.6" r="5.8"/><circle cx="140.4" cy="284.2" r="5.8"/><circle cx="156.8" cy="267.8" r="5.8"/><circle cx="173.2" cy="251.4" r="5.8"/><circle cx="190" cy="234.5" r="5.8"/><circle cx="206.4" cy="218.1" r="5.8"/><circle cx="222.8" cy="201.7" r="5.8"/><circle cx="239.2" cy="185.3" r="5.8"/><circle cx="255.6" cy="168.9" r="5.8"/><circle cx="272" cy="152.5" r="5.8"/><circle cx="288.9" cy="135.7" r="5.8"/><circle cx="305.3" cy="119.3" r="5.8"/><circle cx="321.7" cy="102.9" r="5.8"/><circle cx="338.1" cy="86.5" r="5.8"/><circle cx="354.5" cy="70.1" r="5.8"/><circle cx="370.9" cy="53.7" r="5.8"/><circle cx="387.7" cy="36.9" r="5.8"/><circle cx="404.1" cy="20.5" r="5.8"/><circle cx="420.5" cy="4.1" r="5.8"/><circle cx="436.9" cy="-12.3" r="5.8"/><circle cx="90.8" cy="366.6" r="5.8"/><circle cx="107.6" cy="349.8" r="5.8"/><circle cx="124" cy="333.4" r="5.8"/><circle cx="140.4" cy="317" r="5.8"/><circle cx="156.8" cy="300.6" r="5.8"/><circle cx="173.2" cy="284.2" r="5.8"/><circle cx="189.6" cy="267.8" r="5.8"/><circle cx="206.4" cy="250.9" r="5.8"/><circle cx="222.8" cy="234.5" r="5.8"/><circle cx="239.2" cy="218.1" r="5.8"/><circle cx="255.6" cy="201.7" r="5.8"/><circle cx="272" cy="185.3" r="5.8"/><circle cx="288.4" cy="168.9" r="5.8"/><circle cx="305.3" cy="152.1" r="5.8"/><circle cx="321.7" cy="135.7" r="5.8"/><circle cx="338.1" cy="119.3" r="5.8"/><circle cx="354.5" cy="102.9" r="5.8"/><circle cx="370.9" cy="86.5" r="5.8"/><circle cx="387.2" cy="70.1" r="5.8"/><circle cx="404.1" cy="53.3" r="5.8"/><circle cx="420.5" cy="36.9" r="5.8"/><circle cx="436.9" cy="20.5" r="5.8"/><circle cx="453.3" cy="4.1" r="5.8"/><circle cx="107.1" cy="383" r="5.8"/><circle cx="124" cy="366.2" r="5.8"/><circle cx="140.4" cy="349.8" r="5.8"/><circle cx="156.8" cy="333.4" r="5.8"/><circle cx="173.2" cy="317" r="5.8"/><circle cx="189.6" cy="300.6" r="5.8"/><circle cx="206" cy="284.2" r="5.8"/><circle cx="222.8" cy="267.3" r="5.8"/><circle cx="239.2" cy="250.9" r="5.8"/><circle cx="255.6" cy="234.5" r="5.8"/><circle cx="272" cy="218.1" r="5.8"/><circle cx="288.4" cy="201.7" r="5.8"/><circle cx="304.8" cy="185.3" r="5.8"/><circle cx="321.7" cy="168.5" r="5.8"/><circle cx="338.1" cy="152.1" r="5.8"/><circle cx="354.5" cy="135.7" r="5.8"/><circle cx="370.9" cy="119.3" r="5.8"/><circle cx="387.2" cy="102.9" r="5.8"/><circle cx="403.6" cy="86.5" r="5.8"/><circle cx="420.5" cy="69.7" r="5.8"/><circle cx="436.9" cy="53.3" r="5.8"/><circle cx="453.3" cy="36.9" r="5.8"/><circle cx="469.7" cy="20.5" r="5.8"/><circle cx="436.9" cy="-45.1" r="5.8"/><circle cx="453.7" cy="-62" r="5.8"/><circle cx="453.3" cy="-28.7" r="5.8"/><circle cx="470.1" cy="-45.6" r="5.8"/><circle cx="469.7" cy="-12.3" r="5.8"/><circle cx="486.5" cy="-29.2" r="5.8"/><circle cx="486.1" cy="4.1" r="5.8"/><circle cx="502.9" cy="-12.8" r="5.8"/><circle cx="255.6" cy="268.2" r="5.8"/><circle cx="272.5" cy="251.4" r="5.8"/><circle cx="288.9" cy="235" r="5.8"/><circle cx="305.3" cy="218.6" r="5.8"/><circle cx="321.7" cy="202.2" r="5.8"/><circle cx="338.1" cy="185.8" r="5.8"/><circle cx="354.5" cy="169.4" r="5.8"/><circle cx="371.3" cy="152.5" r="5.8"/><circle cx="387.7" cy="136.1" r="5.8"/><circle cx="404.1" cy="119.7" r="5.8"/><circle cx="420.5" cy="103.3" r="5.8"/><circle cx="436.9" cy="87" r="5.8"/><circle cx="453.3" cy="70.6" r="5.8"/><circle cx="470.1" cy="53.7" r="5.8"/><circle cx="486.5" cy="37.3" r="5.8"/><circle cx="502.9" cy="20.9" r="5.8"/><circle cx="519.3" cy="4.5" r="5.8"/><circle cx="535.7" cy="-11.9" r="5.8"/><circle cx="552.1" cy="-28.3" r="5.8"/><circle cx="569" cy="-45.1" r="5.8"/><circle cx="585.4" cy="-61.5" r="5.8"/><circle cx="601.8" cy="-77.9" r="5.8"/><circle cx="618.2" cy="-94.3" r="5.8"/><circle cx="272" cy="284.6" r="5.8"/><circle cx="288.9" cy="267.8" r="5.8"/><circle cx="305.3" cy="251.4" r="5.8"/><circle cx="321.7" cy="235" r="5.8"/><circle cx="338.1" cy="218.6" r="5.8"/><circle cx="354.5" cy="202.2" r="5.8"/><circle cx="370.9" cy="185.8" r="5.8"/><circle cx="387.7" cy="168.9" r="5.8"/><circle cx="404.1" cy="152.5" r="5.8"/><circle cx="420.5" cy="136.1" r="5.8"/><circle cx="436.9" cy="119.7" r="5.8"/><circle cx="453.3" cy="103.3" r="5.8"/><circle cx="469.7" cy="87" r="5.8"/><circle cx="486.5" cy="70.1" r="5.8"/><circle cx="502.9" cy="53.7" r="5.8"/><circle cx="519.3" cy="37.3" r="5.8"/><circle cx="535.7" cy="20.9" r="5.8"/><circle cx="552.1" cy="4.5" r="5.8"/><circle cx="568.5" cy="-11.9" r="5.8"/><circle cx="585.4" cy="-28.7" r="5.8"/><circle cx="601.8" cy="-45.1" r="5.8"/><circle cx="618.2" cy="-61.5" r="5.8"/><circle cx="634.6" cy="-77.9" r="5.8"/><circle cx="288.4" cy="301" r="5.8"/><circle cx="305.3" cy="284.2" r="5.8"/><circle cx="321.7" cy="267.8" r="5.8"/><circle cx="338.1" cy="251.4" r="5.8"/><circle cx="354.5" cy="235" r="5.8"/><circle cx="370.9" cy="218.6" r="5.8"/><circle cx="387.2" cy="202.2" r="5.8"/><circle cx="404.1" cy="185.3" r="5.8"/><circle cx="420.5" cy="168.9" r="5.8"/><circle cx="436.9" cy="152.5" r="5.8"/><circle cx="453.3" cy="136.1" r="5.8"/><circle cx="469.7" cy="119.7" r="5.8"/><circle cx="486.1" cy="103.3" r="5.8"/><circle cx="502.9" cy="86.5" r="5.8"/><circle cx="519.3" cy="70.1" r="5.8"/><circle cx="535.7" cy="53.7" r="5.8"/><circle cx="552.1" cy="37.3" r="5.8"/><circle cx="568.5" cy="20.9" r="5.8"/><circle cx="584.9" cy="4.5" r="5.8"/><circle cx="601.8" cy="-12.3" r="5.8"/><circle cx="618.2" cy="-28.7" r="5.8"/><circle cx="634.6" cy="-45.1" r="5.8"/><circle cx="651" cy="-61.5" r="5.8"/><circle cx="304.8" cy="317.4" r="5.8"/><circle cx="321.7" cy="300.6" r="5.8"/><circle cx="338.1" cy="284.2" r="5.8"/><circle cx="354.5" cy="267.8" r="5.8"/><circle cx="370.9" cy="251.4" r="5.8"/><circle cx="387.2" cy="235" r="5.8"/><circle cx="403.6" cy="218.6" r="5.8"/><circle cx="420.5" cy="201.7" r="5.8"/><circle cx="436.9" cy="185.3" r="5.8"/><circle cx="453.3" cy="168.9" r="5.8"/><circle cx="469.7" cy="152.5" r="5.8"/><circle cx="486.1" cy="136.1" r="5.8"/><circle cx="502.5" cy="119.7" r="5.8"/><circle cx="519.3" cy="102.9" r="5.8"/><circle cx="535.7" cy="86.5" r="5.8"/><circle cx="552.1" cy="70.1" r="5.8"/><circle cx="568.5" cy="53.7" r="5.8"/><circle cx="584.9" cy="37.3" r="5.8"/><circle cx="601.3" cy="20.9" r="5.8"/><circle cx="618.2" cy="4.1" r="5.8"/><circle cx="634.6" cy="-12.3" r="5.8"/><circle cx="651" cy="-28.7" r="5.8"/><circle cx="667.3" cy="-45.1" r="5.8"/><circle cx="634.6" cy="-110.7" r="5.8"/><circle cx="651.4" cy="-127.6" r="5.8"/><circle cx="651" cy="-94.3" r="5.8"/><circle cx="667.8" cy="-111.2" r="5.8"/><circle cx="667.3" cy="-77.9" r="5.8"/><circle cx="684.2" cy="-94.8" r="5.8"/><circle cx="683.7" cy="-61.5" r="5.8"/><circle cx="700.6" cy="-78.4" r="5.8"/><circle cx="321.2" cy="333.8" r="5.8"/><circle cx="338.1" cy="317" r="5.8"/><circle cx="354.5" cy="300.6" r="5.8"/><circle cx="370.9" cy="284.2" r="5.8"/><circle cx="387.2" cy="267.8" r="5.8"/><circle cx="403.6" cy="251.4" r="5.8"/><circle cx="420" cy="235" r="5.8"/><circle cx="436.9" cy="218.1" r="5.8"/><circle cx="453.3" cy="201.7" r="5.8"/><circle cx="469.7" cy="185.3" r="5.8"/><circle cx="486.1" cy="168.9" r="5.8"/><circle cx="502.5" cy="152.5" r="5.8"/><circle cx="518.9" cy="136.1" r="5.8"/><circle cx="535.7" cy="119.3" r="5.8"/><circle cx="552.1" cy="102.9" r="5.8"/><circle cx="568.5" cy="86.5" r="5.8"/><circle cx="584.9" cy="70.1" r="5.8"/><circle cx="601.3" cy="53.7" r="5.8"/><circle cx="617.7" cy="37.3" r="5.8"/><circle cx="634.6" cy="20.5" r="5.8"/><circle cx="651" cy="4.1" r="5.8"/><circle cx="667.3" cy="-12.3" r="5.8"/><circle cx="683.7" cy="-28.7" r="5.8"/><circle cx="337.6" cy="350.2" r="5.8"/><circle cx="354.5" cy="333.4" r="5.8"/><circle cx="370.9" cy="317" r="5.8"/><circle cx="387.2" cy="300.6" r="5.8"/><circle cx="403.6" cy="284.2" r="5.8"/><circle cx="420" cy="267.8" r="5.8"/><circle cx="436.4" cy="251.4" r="5.8"/><circle cx="453.3" cy="234.5" r="5.8"/><circle cx="469.7" cy="218.1" r="5.8"/><circle cx="486.1" cy="201.7" r="5.8"/><circle cx="502.5" cy="185.3" r="5.8"/><circle cx="518.9" cy="168.9" r="5.8"/><circle cx="535.3" cy="152.5" r="5.8"/><circle cx="552.1" cy="135.7" r="5.8"/><circle cx="568.5" cy="119.3" r="5.8"/><circle cx="584.9" cy="102.9" r="5.8"/><circle cx="601.3" cy="86.5" r="5.8"/><circle cx="617.7" cy="70.1" r="5.8"/><circle cx="634.1" cy="53.7" r="5.8"/><circle cx="651" cy="36.9" r="5.8"/><circle cx="667.3" cy="20.5" r="5.8"/><circle cx="683.7" cy="4.1" r="5.8"/><circle cx="700.1" cy="-12.3" r="5.8"/><circle cx="354" cy="366.6" r="5.8"/><circle cx="370.9" cy="349.8" r="5.8"/><circle cx="387.2" cy="333.4" r="5.8"/><circle cx="403.6" cy="317" r="5.8"/><circle cx="420" cy="300.6" r="5.8"/><circle cx="436.4" cy="284.2" r="5.8"/><circle cx="452.8" cy="267.8" r="5.8"/><circle cx="469.7" cy="250.9" r="5.8"/><circle cx="486.1" cy="234.5" r="5.8"/><circle cx="502.5" cy="218.1" r="5.8"/><circle cx="518.9" cy="201.7" r="5.8"/><circle cx="535.3" cy="185.3" r="5.8"/><circle cx="551.7" cy="168.9" r="5.8"/><circle cx="568.5" cy="152.1" r="5.8"/><circle cx="584.9" cy="135.7" r="5.8"/><circle cx="601.3" cy="119.3" r="5.8"/><circle cx="617.7" cy="102.9" r="5.8"/><circle cx="634.1" cy="86.5" r="5.8"/><circle cx="650.5" cy="70.1" r="5.8"/><circle cx="667.3" cy="53.3" r="5.8"/><circle cx="683.7" cy="36.9" r="5.8"/><circle cx="700.1" cy="20.5" r="5.8"/><circle cx="716.5" cy="4.1" r="5.8"/><circle cx="370.4" cy="383" r="5.8"/><circle cx="387.2" cy="366.2" r="5.8"/><circle cx="403.6" cy="349.8" r="5.8"/><circle cx="420" cy="333.4" r="5.8"/><circle cx="436.4" cy="317" r="5.8"/><circle cx="452.8" cy="300.6" r="5.8"/><circle cx="469.2" cy="284.2" r="5.8"/><circle cx="486.1" cy="267.3" r="5.8"/><circle cx="502.5" cy="250.9" r="5.8"/><circle cx="518.9" cy="234.5" r="5.8"/><circle cx="535.3" cy="218.1" r="5.8"/><circle cx="551.7" cy="201.7" r="5.8"/><circle cx="568.1" cy="185.3" r="5.8"/><circle cx="584.9" cy="168.5" r="5.8"/><circle cx="601.3" cy="152.1" r="5.8"/><circle cx="617.7" cy="135.7" r="5.8"/><circle cx="634.1" cy="119.3" r="5.8"/><circle cx="650.5" cy="102.9" r="5.8"/><circle cx="666.9" cy="86.5" r="5.8"/><circle cx="683.7" cy="69.7" r="5.8"/><circle cx="700.1" cy="53.3" r="5.8"/><circle cx="716.5" cy="36.9" r="5.8"/><circle cx="732.9" cy="20.5" r="5.8"/><circle cx="700.1" cy="-45.1" r="5.8"/><circle cx="717" cy="-62" r="5.8"/><circle cx="716.5" cy="-28.7" r="5.8"/><circle cx="733.4" cy="-45.6" r="5.8"/><circle cx="732.9" cy="-12.3" r="5.8"/><circle cx="749.8" cy="-29.2" r="5.8"/><circle cx="749.3" cy="4.1" r="5.8"/><circle cx="766.2" cy="-12.8" r="5.8"/></g></svg>