<?xml version="1.0" encoding="utf-8"?>
<!-- Generator: Adobe Illustrator 22.0.1, SVG Export Plug-In . SVG Version: 6.00 Build 0)  -->
<svg version="1.1" id="Layer_1" xmlns="http://www.w3.org/2000/svg" xmlns:xlink="http://www.w3.org/1999/xlink" x="0px" y="0px"
	 viewBox="0 0 1160 156" style="enable-background:new 0 0 1160 156;" xml:space="preserve">
<style type="text/css">
	.st0{opacity:5.000000e-02;}
	.st1{clip-path:url(#SVGID_2_);fill:#919396;}
</style>
<g class="st0">
	<defs>
		<rect id="SVGID_1_" class="st0" width="1160" height="156"/>
	</defs>
	<clipPath id="SVGID_2_">
		<use xlink:href="#SVGID_1_"  style="overflow:visible;"/>
	</clipPath>
	<circle class="st1" cx="-275.5" cy="254.5" r="7.5"/>
	<circle class="st1" cx="-253.5" cy="231.5" r="7.5"/>
	<circle class="st1" cx="-231.5" cy="210.5" r="7.5"/>
	<circle class="st1" cx="-209.5" cy="188.5" r="7.5"/>
	<circle class="st1" cx="-187.5" cy="166.5" r="7.5"/>
	<circle class="st1" cx="-166.5" cy="144.5" r="7.5"/>
	<circle class="st1" cx="-144.5" cy="122.5" r="7.5"/>
	<circle class="st1" cx="-121.5" cy="100.5" r="7.5"/>
	<circle class="st1" cx="-99.5" cy="78.5" r="7.5"/>
	<circle class="st1" cx="-78.5" cy="56.5" r="7.5"/>
	<circle class="st1" cx="-56.5" cy="34.5" r="7.5"/>
	<circle class="st1" cx="-34.5" cy="12.5" r="7.5"/>
	<circle class="st1" cx="-12.5" cy="-9.5" r="7.5"/>
	<circle class="st1" cx="10.5" cy="-31.5" r="7.5"/>
	<circle class="st1" cx="31.5" cy="-53.5" r="7.5"/>
	<circle class="st1" cx="53.5" cy="-75.5" r="7.5"/>
	<circle class="st1" cx="75.5" cy="-97.5" r="7.5"/>
	<circle class="st1" cx="97.5" cy="-119.5" r="7.5"/>
	<circle class="st1" cx="119.5" cy="-140.5" r="7.5"/>
	<circle class="st1" cx="141.5" cy="-163.5" r="7.5"/>
	<circle class="st1" cx="163.5" cy="-185.5" r="7.5"/>
	<circle class="st1" cx="185.5" cy="-207.5" r="7.5"/>
	<circle class="st1" cx="207.5" cy="-228.5" r="7.5"/>
	<circle class="st1" cx="-254.5" cy="276.5" r="7.5"/>
	<circle class="st1" cx="-231.5" cy="253.5" r="7.5"/>
	<circle class="st1" cx="-209.5" cy="231.5" r="7.5"/>
	<circle class="st1" cx="-187.5" cy="210.5" r="7.5"/>
	<circle class="st1" cx="-166.5" cy="188.5" r="7.5"/>
	<circle class="st1" cx="-144.5" cy="166.5" r="7.5"/>
	<circle class="st1" cx="-122.5" cy="144.5" r="7.5"/>
	<circle class="st1" cx="-99.5" cy="122.5" r="7.5"/>
	<circle class="st1" cx="-78.5" cy="100.5" r="7.5"/>
	<circle class="st1" cx="-56.5" cy="78.5" r="7.5"/>
	<circle class="st1" cx="-34.5" cy="56.5" r="7.5"/>
	<circle class="st1" cx="-12.5" cy="34.5" r="7.5"/>
	<circle class="st1" cx="9.5" cy="12.5" r="7.5"/>
	<circle class="st1" cx="31.5" cy="-9.5" r="7.5"/>
	<circle class="st1" cx="53.5" cy="-31.5" r="7.5"/>
	<circle class="st1" cx="75.5" cy="-53.5" r="7.5"/>
	<circle class="st1" cx="97.5" cy="-75.5" r="7.5"/>
	<circle class="st1" cx="119.5" cy="-97.5" r="7.5"/>
	<circle class="st1" cx="141.5" cy="-119.5" r="7.5"/>
	<circle class="st1" cx="163.5" cy="-141.5" r="7.5"/>
	<circle class="st1" cx="185.5" cy="-163.5" r="7.5"/>
	<circle class="st1" cx="207.5" cy="-185.5" r="7.5"/>
	<circle class="st1" cx="229.5" cy="-207.5" r="7.5"/>
	<circle class="st1" cx="-232.5" cy="298.5" r="7.5"/>
	<circle class="st1" cx="-209.5" cy="275.5" r="7.5"/>
	<circle class="st1" cx="-187.5" cy="253.5" r="7.5"/>
	<circle class="st1" cx="-166.5" cy="231.5" r="7.5"/>
	<circle class="st1" cx="-144.5" cy="210.5" r="7.5"/>
	<circle class="st1" cx="-122.5" cy="188.5" r="7.5"/>
	<circle class="st1" cx="-100.5" cy="166.5" r="7.5"/>
	<circle class="st1" cx="-78.5" cy="143.5" r="7.5"/>
	<circle class="st1" cx="-56.5" cy="122.5" r="7.5"/>
	<circle class="st1" cx="-34.5" cy="100.5" r="7.5"/>
	<circle class="st1" cx="-12.5" cy="78.5" r="7.5"/>
	<circle class="st1" cx="9.5" cy="56.5" r="7.5"/>
	<circle class="st1" cx="31.5" cy="34.5" r="7.5"/>
	<circle class="st1" cx="53.5" cy="12.5" r="7.5"/>
	<circle class="st1" cx="75.5" cy="-9.5" r="7.5"/>
	<circle class="st1" cx="97.5" cy="-31.5" r="7.5"/>
	<circle class="st1" cx="119.5" cy="-53.5" r="7.5"/>
	<circle class="st1" cx="141.5" cy="-75.5" r="7.5"/>
	<circle class="st1" cx="163.5" cy="-97.5" r="7.5"/>
	<circle class="st1" cx="185.5" cy="-119.5" r="7.5"/>
	<circle class="st1" cx="207.5" cy="-141.5" r="7.5"/>
	<circle class="st1" cx="229.5" cy="-163.5" r="7.5"/>
	<circle class="st1" cx="251.5" cy="-185.5" r="7.5"/>
	<circle class="st1" cx="-210.5" cy="320.5" r="7.5"/>
	<circle class="st1" cx="-187.5" cy="297.5" r="7.5"/>
	<circle class="st1" cx="-166.5" cy="275.5" r="7.5"/>
	<circle class="st1" cx="-144.5" cy="253.5" r="7.5"/>
	<circle class="st1" cx="-122.5" cy="231.5" r="7.5"/>
	<circle class="st1" cx="-100.5" cy="210.5" r="7.5"/>
	<circle class="st1" cx="-78.5" cy="188.5" r="7.5"/>
	<circle class="st1" cx="-56.5" cy="165.5" r="7.5"/>
	<circle class="st1" cx="-34.5" cy="143.5" r="7.5"/>
	<circle class="st1" cx="-12.5" cy="122.5" r="7.5"/>
	<circle class="st1" cx="9.5" cy="100.5" r="7.5"/>
	<circle class="st1" cx="31.5" cy="78.5" r="7.5"/>
	<circle class="st1" cx="53.5" cy="56.5" r="7.5"/>
	<circle class="st1" cx="75.5" cy="34.5" r="7.5"/>
	<circle class="st1" cx="97.5" cy="12.5" r="7.5"/>
	<circle class="st1" cx="119.5" cy="-9.5" r="7.5"/>
	<circle class="st1" cx="141.5" cy="-31.5" r="7.5"/>
	<circle class="st1" cx="163.5" cy="-53.5" r="7.5"/>
	<circle class="st1" cx="184.5" cy="-75.5" r="7.5"/>
	<circle class="st1" cx="207.5" cy="-97.5" r="7.5"/>
	<circle class="st1" cx="229.5" cy="-119.5" r="7.5"/>
	<circle class="st1" cx="251.5" cy="-141.5" r="7.5"/>
	<circle class="st1" cx="272.5" cy="-163.5" r="7.5"/>
	<circle class="st1" cx="229.5" cy="-250.5" r="7.5"/>
	<circle class="st1" cx="251.5" cy="-273.5" r="7.5"/>
	<circle class="st1" cx="251.5" cy="-228.5" r="7.5"/>
	<circle class="st1" cx="273.5" cy="-251.5" r="7.5"/>
	<circle class="st1" cx="272.5" cy="-207.5" r="7.5"/>
	<circle class="st1" cx="295.5" cy="-229.5" r="7.5"/>
	<circle class="st1" cx="294.5" cy="-185.5" r="7.5"/>
	<circle class="st1" cx="317.5" cy="-207.5" r="7.5"/>
	<circle class="st1" cx="-188.5" cy="341.5" r="7.5"/>
	<circle class="st1" cx="-166.5" cy="319.5" r="7.5"/>
	<circle class="st1" cx="-144.5" cy="297.5" r="7.5"/>
	<circle class="st1" cx="-122.5" cy="275.5" r="7.5"/>
	<circle class="st1" cx="-100.5" cy="253.5" r="7.5"/>
	<circle class="st1" cx="-78.5" cy="231.5" r="7.5"/>
	<circle class="st1" cx="-56.5" cy="210.5" r="7.5"/>
	<circle class="st1" cx="-34.5" cy="187.5" r="7.5"/>
	<circle class="st1" cx="-12.5" cy="165.5" r="7.5"/>
	<circle class="st1" cx="9.5" cy="143.5" r="7.5"/>
	<circle class="st1" cx="31.5" cy="122.5" r="7.5"/>
	<circle class="st1" cx="53.5" cy="100.5" r="7.5"/>
	<circle class="st1" cx="75.5" cy="78.5" r="7.5"/>
	<circle class="st1" cx="97.5" cy="55.5" r="7.5"/>
	<circle class="st1" cx="119.5" cy="34.5" r="7.5"/>
	<circle class="st1" cx="141.5" cy="12.5" r="7.5"/>
	<circle class="st1" cx="163.5" cy="-9.5" r="7.5"/>
	<circle class="st1" cx="184.5" cy="-31.5" r="7.5"/>
	<circle class="st1" cx="206.5" cy="-53.5" r="7.5"/>
	<circle class="st1" cx="229.5" cy="-75.5" r="7.5"/>
	<circle class="st1" cx="251.5" cy="-97.5" r="7.5"/>
	<circle class="st1" cx="272.5" cy="-119.5" r="7.5"/>
	<circle class="st1" cx="294.5" cy="-141.5" r="7.5"/>
	<circle class="st1" cx="-166.5" cy="363.5" r="7.5"/>
	<circle class="st1" cx="-144.5" cy="341.5" r="7.5"/>
	<circle class="st1" cx="-122.5" cy="319.5" r="7.5"/>
	<circle class="st1" cx="-100.5" cy="297.5" r="7.5"/>
	<circle class="st1" cx="-78.5" cy="275.5" r="7.5"/>
	<circle class="st1" cx="-56.5" cy="253.5" r="7.5"/>
	<circle class="st1" cx="-34.5" cy="231.5" r="7.5"/>
	<circle class="st1" cx="-12.5" cy="209.5" r="7.5"/>
	<circle class="st1" cx="9.5" cy="187.5" r="7.5"/>
	<circle class="st1" cx="31.5" cy="165.5" r="7.5"/>
	<circle class="st1" cx="53.5" cy="143.5" r="7.5"/>
	<circle class="st1" cx="75.5" cy="122.5" r="7.5"/>
	<circle class="st1" cx="96.5" cy="100.5" r="7.5"/>
	<circle class="st1" cx="119.5" cy="77.5" r="7.5"/>
	<circle class="st1" cx="141.5" cy="55.5" r="7.5"/>
	<circle class="st1" cx="163.5" cy="34.5" r="7.5"/>
	<circle class="st1" cx="184.5" cy="12.5" r="7.5"/>
	<circle class="st1" cx="206.5" cy="-9.5" r="7.5"/>
	<circle class="st1" cx="228.5" cy="-31.5" r="7.5"/>
	<circle class="st1" cx="251.5" cy="-54.5" r="7.5"/>
	<circle class="st1" cx="272.5" cy="-75.5" r="7.5"/>
	<circle class="st1" cx="294.5" cy="-97.5" r="7.5"/>
	<circle class="st1" cx="316.5" cy="-119.5" r="7.5"/>
	<circle class="st1" cx="-144.5" cy="385.5" r="7.5"/>
	<circle class="st1" cx="-122.5" cy="363.5" r="7.5"/>
	<circle class="st1" cx="-100.5" cy="341.5" r="7.5"/>
	<circle class="st1" cx="-78.5" cy="319.5" r="7.5"/>
	<circle class="st1" cx="-56.5" cy="297.5" r="7.5"/>
	<circle class="st1" cx="-34.5" cy="275.5" r="7.5"/>
	<circle class="st1" cx="-13.5" cy="253.5" r="7.5"/>
	<circle class="st1" cx="9.5" cy="231.5" r="7.5"/>
	<circle class="st1" cx="31.5" cy="209.5" r="7.5"/>
	<circle class="st1" cx="53.5" cy="187.5" r="7.5"/>
	<circle class="st1" cx="75.5" cy="165.5" r="7.5"/>
	<circle class="st1" cx="96.5" cy="143.5" r="7.5"/>
	<circle class="st1" cx="118.5" cy="122.5" r="7.5"/>
	<circle class="st1" cx="141.5" cy="99.5" r="7.5"/>
	<circle class="st1" cx="163.5" cy="77.5" r="7.5"/>
	<circle class="st1" cx="184.5" cy="55.5" r="7.5"/>
	<circle class="st1" cx="206.5" cy="34.5" r="7.5"/>
	<circle class="st1" cx="228.5" cy="12.5" r="7.5"/>
	<circle class="st1" cx="250.5" cy="-9.5" r="7.5"/>
	<circle class="st1" cx="272.5" cy="-32.5" r="7.5"/>
	<circle class="st1" cx="294.5" cy="-54.5" r="7.5"/>
	<circle class="st1" cx="316.5" cy="-75.5" r="7.5"/>
	<circle class="st1" cx="338.5" cy="-97.5" r="7.5"/>
	<circle class="st1" cx="-122.5" cy="407.5" r="7.5"/>
	<circle class="st1" cx="-100.5" cy="385.5" r="7.5"/>
	<circle class="st1" cx="-78.5" cy="363.5" r="7.5"/>
	<circle class="st1" cx="-56.5" cy="341.5" r="7.5"/>
	<circle class="st1" cx="-34.5" cy="319.5" r="7.5"/>
	<circle class="st1" cx="-13.5" cy="297.5" r="7.5"/>
	<circle class="st1" cx="8.5" cy="275.5" r="7.5"/>
	<circle class="st1" cx="31.5" cy="253.5" r="7.5"/>
	<circle class="st1" cx="53.5" cy="231.5" r="7.5"/>
	<circle class="st1" cx="75.5" cy="209.5" r="7.5"/>
	<circle class="st1" cx="96.5" cy="187.5" r="7.5"/>
	<circle class="st1" cx="118.5" cy="165.5" r="7.5"/>
	<circle class="st1" cx="140.5" cy="143.5" r="7.5"/>
	<circle class="st1" cx="163.5" cy="121.5" r="7.5"/>
	<circle class="st1" cx="184.5" cy="99.5" r="7.5"/>
	<circle class="st1" cx="206.5" cy="77.5" r="7.5"/>
	<circle class="st1" cx="228.5" cy="55.5" r="7.5"/>
	<circle class="st1" cx="250.5" cy="34.5" r="7.5"/>
	<circle class="st1" cx="272.5" cy="12.5" r="7.5"/>
	<circle class="st1" cx="294.5" cy="-10.5" r="7.5"/>
	<circle class="st1" cx="316.5" cy="-32.5" r="7.5"/>
	<circle class="st1" cx="338.5" cy="-54.5" r="7.5"/>
	<circle class="st1" cx="360.5" cy="-75.5" r="7.5"/>
	<circle class="st1" cx="316.5" cy="-163.5" r="7.5"/>
	<circle class="st1" cx="339.5" cy="-185.5" r="7.5"/>
	<circle class="st1" cx="338.5" cy="-141.5" r="7.5"/>
	<circle class="st1" cx="361.5" cy="-163.5" r="7.5"/>
	<circle class="st1" cx="360.5" cy="-119.5" r="7.5"/>
	<circle class="st1" cx="382.5" cy="-142.5" r="7.5"/>
	<circle class="st1" cx="382.5" cy="-97.5" r="7.5"/>
	<circle class="st1" cx="404.5" cy="-120.5" r="7.5"/>
	<circle class="st1" cx="75.5" cy="254.5" r="7.5"/>
	<circle class="st1" cx="98.5" cy="231.5" r="7.5"/>
	<circle class="st1" cx="119.5" cy="210.5" r="7.5"/>
	<circle class="st1" cx="141.5" cy="188.5" r="7.5"/>
	<circle class="st1" cx="163.5" cy="166.5" r="7.5"/>
	<circle class="st1" cx="185.5" cy="144.5" r="7.5"/>
	<circle class="st1" cx="207.5" cy="122.5" r="7.5"/>
	<circle class="st1" cx="229.5" cy="100.5" r="7.5"/>
	<circle class="st1" cx="251.5" cy="78.5" r="7.5"/>
	<circle class="st1" cx="273.5" cy="56.5" r="7.5"/>
	<circle class="st1" cx="295.5" cy="34.5" r="7.5"/>
	<circle class="st1" cx="317.5" cy="12.5" r="7.5"/>
	<circle class="st1" cx="339.5" cy="-9.5" r="7.5"/>
	<circle class="st1" cx="361.5" cy="-31.5" r="7.5"/>
	<circle class="st1" cx="383.5" cy="-53.5" r="7.5"/>
	<circle class="st1" cx="405.5" cy="-75.5" r="7.5"/>
	<circle class="st1" cx="427.5" cy="-97.5" r="7.5"/>
	<circle class="st1" cx="449.5" cy="-119.5" r="7.5"/>
	<circle class="st1" cx="470.5" cy="-140.5" r="7.5"/>
	<circle class="st1" cx="493.5" cy="-163.5" r="7.5"/>
	<circle class="st1" cx="515.5" cy="-185.5" r="7.5"/>
	<circle class="st1" cx="537.5" cy="-207.5" r="7.5"/>
	<circle class="st1" cx="558.5" cy="-228.5" r="7.5"/>
	<circle class="st1" cx="97.5" cy="276.5" r="7.5"/>
	<circle class="st1" cx="119.5" cy="253.5" r="7.5"/>
	<circle class="st1" cx="141.5" cy="231.5" r="7.5"/>
	<circle class="st1" cx="163.5" cy="210.5" r="7.5"/>
	<circle class="st1" cx="185.5" cy="188.5" r="7.5"/>
	<circle class="st1" cx="207.5" cy="166.5" r="7.5"/>
	<circle class="st1" cx="229.5" cy="144.5" r="7.5"/>
	<circle class="st1" cx="251.5" cy="122.5" r="7.5"/>
	<circle class="st1" cx="273.5" cy="100.5" r="7.5"/>
	<circle class="st1" cx="295.5" cy="78.5" r="7.5"/>
	<circle class="st1" cx="317.5" cy="56.5" r="7.5"/>
	<circle class="st1" cx="339.5" cy="34.5" r="7.5"/>
	<circle class="st1" cx="361.5" cy="12.5" r="7.5"/>
	<circle class="st1" cx="383.5" cy="-9.5" r="7.5"/>
	<circle class="st1" cx="405.5" cy="-31.5" r="7.5"/>
	<circle class="st1" cx="427.5" cy="-53.5" r="7.5"/>
	<circle class="st1" cx="449.5" cy="-75.5" r="7.5"/>
	<circle class="st1" cx="470.5" cy="-97.5" r="7.5"/>
	<circle class="st1" cx="492.5" cy="-119.5" r="7.5"/>
	<circle class="st1" cx="515.5" cy="-141.5" r="7.5"/>
	<circle class="st1" cx="537.5" cy="-163.5" r="7.5"/>
	<circle class="st1" cx="558.5" cy="-185.5" r="7.5"/>
	<circle class="st1" cx="580.5" cy="-207.5" r="7.5"/>
	<circle class="st1" cx="119.5" cy="298.5" r="7.5"/>
	<circle class="st1" cx="141.5" cy="275.5" r="7.5"/>
	<circle class="st1" cx="163.5" cy="253.5" r="7.5"/>
	<circle class="st1" cx="185.5" cy="231.5" r="7.5"/>
	<circle class="st1" cx="207.5" cy="210.5" r="7.5"/>
	<circle class="st1" cx="229.5" cy="188.5" r="7.5"/>
	<circle class="st1" cx="251.5" cy="166.5" r="7.5"/>
	<circle class="st1" cx="273.5" cy="143.5" r="7.5"/>
	<circle class="st1" cx="295.5" cy="122.5" r="7.5"/>
	<circle class="st1" cx="317.5" cy="100.5" r="7.5"/>
	<circle class="st1" cx="339.5" cy="78.5" r="7.5"/>
	<circle class="st1" cx="361.5" cy="56.5" r="7.5"/>
	<circle class="st1" cx="382.5" cy="34.5" r="7.5"/>
	<circle class="st1" cx="405.5" cy="12.5" r="7.5"/>
	<circle class="st1" cx="427.5" cy="-9.5" r="7.5"/>
	<circle class="st1" cx="449.5" cy="-31.5" r="7.5"/>
	<circle class="st1" cx="470.5" cy="-53.5" r="7.5"/>
	<circle class="st1" cx="492.5" cy="-75.5" r="7.5"/>
	<circle class="st1" cx="514.5" cy="-97.5" r="7.5"/>
	<circle class="st1" cx="537.5" cy="-119.5" r="7.5"/>
	<circle class="st1" cx="558.5" cy="-141.5" r="7.5"/>
	<circle class="st1" cx="580.5" cy="-163.5" r="7.5"/>
	<circle class="st1" cx="602.5" cy="-185.5" r="7.5"/>
	<circle class="st1" cx="141.5" cy="320.5" r="7.5"/>
	<circle class="st1" cx="163.5" cy="297.5" r="7.5"/>
	<circle class="st1" cx="185.5" cy="275.5" r="7.5"/>
	<circle class="st1" cx="207.5" cy="253.5" r="7.5"/>
	<circle class="st1" cx="229.5" cy="231.5" r="7.5"/>
	<circle class="st1" cx="251.5" cy="210.5" r="7.5"/>
	<circle class="st1" cx="272.5" cy="188.5" r="7.5"/>
	<circle class="st1" cx="295.5" cy="165.5" r="7.5"/>
	<circle class="st1" cx="317.5" cy="143.5" r="7.5"/>
	<circle class="st1" cx="339.5" cy="122.5" r="7.5"/>
	<circle class="st1" cx="361.5" cy="100.5" r="7.5"/>
	<circle class="st1" cx="382.5" cy="78.5" r="7.5"/>
	<circle class="st1" cx="404.5" cy="56.5" r="7.5"/>
	<circle class="st1" cx="427.5" cy="34.5" r="7.5"/>
	<circle class="st1" cx="449.5" cy="12.5" r="7.5"/>
	<circle class="st1" cx="470.5" cy="-9.5" r="7.5"/>
	<circle class="st1" cx="492.5" cy="-31.5" r="7.5"/>
	<circle class="st1" cx="514.5" cy="-53.5" r="7.5"/>
	<circle class="st1" cx="536.5" cy="-75.5" r="7.5"/>
	<circle class="st1" cx="558.5" cy="-97.5" r="7.5"/>
	<circle class="st1" cx="580.5" cy="-119.5" r="7.5"/>
	<circle class="st1" cx="602.5" cy="-141.5" r="7.5"/>
	<circle class="st1" cx="624.5" cy="-163.5" r="7.5"/>
	<circle class="st1" cx="580.5" cy="-250.5" r="7.5"/>
	<circle class="st1" cx="603.5" cy="-273.5" r="7.5"/>
	<circle class="st1" cx="602.5" cy="-228.5" r="7.5"/>
	<circle class="st1" cx="625.5" cy="-251.5" r="7.5"/>
	<circle class="st1" cx="624.5" cy="-207.5" r="7.5"/>
	<circle class="st1" cx="647.5" cy="-229.5" r="7.5"/>
	<circle class="st1" cx="646.5" cy="-185.5" r="7.5"/>
	<circle class="st1" cx="668.5" cy="-207.5" r="7.5"/>
	<circle class="st1" cx="163.5" cy="341.5" r="7.5"/>
	<circle class="st1" cx="185.5" cy="319.5" r="7.5"/>
	<circle class="st1" cx="207.5" cy="297.5" r="7.5"/>
	<circle class="st1" cx="229.5" cy="275.5" r="7.5"/>
	<circle class="st1" cx="251.5" cy="253.5" r="7.5"/>
	<circle class="st1" cx="272.5" cy="231.5" r="7.5"/>
	<circle class="st1" cx="294.5" cy="210.5" r="7.5"/>
	<circle class="st1" cx="317.5" cy="187.5" r="7.5"/>
	<circle class="st1" cx="339.5" cy="165.5" r="7.5"/>
	<circle class="st1" cx="361.5" cy="143.5" r="7.5"/>
	<circle class="st1" cx="382.5" cy="122.5" r="7.5"/>
	<circle class="st1" cx="404.5" cy="100.5" r="7.5"/>
	<circle class="st1" cx="426.5" cy="78.5" r="7.5"/>
	<circle class="st1" cx="449.5" cy="55.5" r="7.5"/>
	<circle class="st1" cx="470.5" cy="34.5" r="7.5"/>
	<circle class="st1" cx="492.5" cy="12.5" r="7.5"/>
	<circle class="st1" cx="514.5" cy="-9.5" r="7.5"/>
	<circle class="st1" cx="536.5" cy="-31.5" r="7.5"/>
	<circle class="st1" cx="558.5" cy="-53.5" r="7.5"/>
	<circle class="st1" cx="580.5" cy="-75.5" r="7.5"/>
	<circle class="st1" cx="602.5" cy="-97.5" r="7.5"/>
	<circle class="st1" cx="624.5" cy="-119.5" r="7.5"/>
	<circle class="st1" cx="646.5" cy="-141.5" r="7.5"/>
	<circle class="st1" cx="184.5" cy="363.5" r="7.5"/>
	<circle class="st1" cx="207.5" cy="341.5" r="7.5"/>
	<circle class="st1" cx="229.5" cy="319.5" r="7.5"/>
	<circle class="st1" cx="251.5" cy="297.5" r="7.5"/>
	<circle class="st1" cx="272.5" cy="275.5" r="7.5"/>
	<circle class="st1" cx="294.5" cy="253.5" r="7.5"/>
	<circle class="st1" cx="316.5" cy="231.5" r="7.5"/>
	<circle class="st1" cx="339.5" cy="209.5" r="7.5"/>
	<circle class="st1" cx="361.5" cy="187.5" r="7.5"/>
	<circle class="st1" cx="382.5" cy="165.5" r="7.5"/>
	<circle class="st1" cx="404.5" cy="143.5" r="7.5"/>
	<circle class="st1" cx="426.5" cy="122.5" r="7.5"/>
	<circle class="st1" cx="448.5" cy="100.5" r="7.5"/>
	<circle class="st1" cx="470.5" cy="77.5" r="7.5"/>
	<circle class="st1" cx="492.5" cy="55.5" r="7.5"/>
	<circle class="st1" cx="514.5" cy="34.5" r="7.5"/>
	<circle class="st1" cx="536.5" cy="12.5" r="7.5"/>
	<circle class="st1" cx="558.5" cy="-9.5" r="7.5"/>
	<circle class="st1" cx="580.5" cy="-31.5" r="7.5"/>
	<circle class="st1" cx="602.5" cy="-54.5" r="7.5"/>
	<circle class="st1" cx="624.5" cy="-75.5" r="7.5"/>
	<circle class="st1" cx="646.5" cy="-97.5" r="7.5"/>
	<circle class="st1" cx="668.5" cy="-119.5" r="7.5"/>
	<circle class="st1" cx="206.5" cy="385.5" r="7.5"/>
	<circle class="st1" cx="229.5" cy="363.5" r="7.5"/>
	<circle class="st1" cx="251.5" cy="341.5" r="7.5"/>
	<circle class="st1" cx="272.5" cy="319.5" r="7.5"/>
	<circle class="st1" cx="294.5" cy="297.5" r="7.5"/>
	<circle class="st1" cx="316.5" cy="275.5" r="7.5"/>
	<circle class="st1" cx="338.5" cy="253.5" r="7.5"/>
	<circle class="st1" cx="361.5" cy="231.5" r="7.5"/>
	<circle class="st1" cx="382.5" cy="209.5" r="7.5"/>
	<circle class="st1" cx="404.5" cy="187.5" r="7.5"/>
	<circle class="st1" cx="426.5" cy="165.5" r="7.5"/>
	<circle class="st1" cx="448.5" cy="143.5" r="7.5"/>
	<circle class="st1" cx="470.5" cy="122.5" r="7.5"/>
	<circle class="st1" cx="492.5" cy="99.5" r="7.5"/>
	<circle class="st1" cx="514.5" cy="77.5" r="7.5"/>
	<circle class="st1" cx="536.5" cy="55.5" r="7.5"/>
	<circle class="st1" cx="558.5" cy="34.5" r="7.5"/>
	<circle class="st1" cx="580.5" cy="12.5" r="7.5"/>
	<circle class="st1" cx="602.5" cy="-9.5" r="7.5"/>
	<circle class="st1" cx="624.5" cy="-32.5" r="7.5"/>
	<circle class="st1" cx="646.5" cy="-54.5" r="7.5"/>
	<circle class="st1" cx="668.5" cy="-75.5" r="7.5"/>
	<circle class="st1" cx="690.5" cy="-97.5" r="7.5"/>
	<circle class="st1" cx="228.5" cy="407.5" r="7.5"/>
	<circle class="st1" cx="251.5" cy="385.5" r="7.5"/>
	<circle class="st1" cx="272.5" cy="363.5" r="7.5"/>
	<circle class="st1" cx="294.5" cy="341.5" r="7.5"/>
	<circle class="st1" cx="316.5" cy="319.5" r="7.5"/>
	<circle class="st1" cx="338.5" cy="297.5" r="7.5"/>
	<circle class="st1" cx="360.5" cy="275.5" r="7.5"/>
	<circle class="st1" cx="382.5" cy="253.5" r="7.5"/>
	<circle class="st1" cx="404.5" cy="231.5" r="7.5"/>
	<circle class="st1" cx="426.5" cy="209.5" r="7.5"/>
	<circle class="st1" cx="448.5" cy="187.5" r="7.5"/>
	<circle class="st1" cx="470.5" cy="165.5" r="7.5"/>
	<circle class="st1" cx="492.5" cy="143.5" r="7.5"/>
	<circle class="st1" cx="514.5" cy="121.5" r="7.5"/>
	<circle class="st1" cx="536.5" cy="99.5" r="7.5"/>
	<circle class="st1" cx="558.5" cy="77.5" r="7.5"/>
	<circle class="st1" cx="580.5" cy="55.5" r="7.5"/>
	<circle class="st1" cx="602.5" cy="34.5" r="7.5"/>
	<circle class="st1" cx="623.5" cy="12.5" r="7.5"/>
	<circle class="st1" cx="646.5" cy="-10.5" r="7.5"/>
	<circle class="st1" cx="668.5" cy="-32.5" r="7.5"/>
	<circle class="st1" cx="690.5" cy="-54.5" r="7.5"/>
	<circle class="st1" cx="712.5" cy="-75.5" r="7.5"/>
	<circle class="st1" cx="668.5" cy="-163.5" r="7.5"/>
	<circle class="st1" cx="690.5" cy="-185.5" r="7.5"/>
	<circle class="st1" cx="690.5" cy="-141.5" r="7.5"/>
	<circle class="st1" cx="712.5" cy="-163.5" r="7.5"/>
	<circle class="st1" cx="712.5" cy="-119.5" r="7.5"/>
	<circle class="st1" cx="734.5" cy="-142.5" r="7.5"/>
	<circle class="st1" cx="733.5" cy="-97.5" r="7.5"/>
	<circle class="st1" cx="756.5" cy="-120.5" r="7.5"/>
	<circle class="st1" cx="426.5" cy="254.5" r="7.5"/>
	<circle class="st1" cx="449.5" cy="231.5" r="7.5"/>
	<circle class="st1" cx="470.5" cy="210.5" r="7.5"/>
	<circle class="st1" cx="492.5" cy="188.5" r="7.5"/>
	<circle class="st1" cx="514.5" cy="166.5" r="7.5"/>
	<circle class="st1" cx="536.5" cy="144.5" r="7.5"/>
	<circle class="st1" cx="558.5" cy="122.5" r="7.5"/>
	<circle class="st1" cx="580.5" cy="100.5" r="7.5"/>
	<circle class="st1" cx="602.5" cy="78.5" r="7.5"/>
	<circle class="st1" cx="624.5" cy="56.5" r="7.5"/>
	<circle class="st1" cx="646.5" cy="34.5" r="7.5"/>
	<circle class="st1" cx="668.5" cy="12.5" r="7.5"/>
	<circle class="st1" cx="690.5" cy="-9.5" r="7.5"/>
	<circle class="st1" cx="712.5" cy="-31.5" r="7.5"/>
	<circle class="st1" cx="734.5" cy="-53.5" r="7.5"/>
	<circle class="st1" cx="756.5" cy="-75.5" r="7.5"/>
	<circle class="st1" cx="778.5" cy="-97.5" r="7.5"/>
	<circle class="st1" cx="800.5" cy="-119.5" r="7.5"/>
	<circle class="st1" cx="821.5" cy="-140.5" r="7.5"/>
	<circle class="st1" cx="844.5" cy="-163.5" r="7.5"/>
	<circle class="st1" cx="866.5" cy="-185.5" r="7.5"/>
	<circle class="st1" cx="888.5" cy="-207.5" r="7.5"/>
	<circle class="st1" cx="909.5" cy="-228.5" r="7.5"/>
	<circle class="st1" cx="448.5" cy="276.5" r="7.5"/>
	<circle class="st1" cx="470.5" cy="253.5" r="7.5"/>
	<circle class="st1" cx="492.5" cy="231.5" r="7.5"/>
	<circle class="st1" cx="514.5" cy="210.5" r="7.5"/>
	<circle class="st1" cx="536.5" cy="188.5" r="7.5"/>
	<circle class="st1" cx="558.5" cy="166.5" r="7.5"/>
	<circle class="st1" cx="580.5" cy="144.5" r="7.5"/>
	<circle class="st1" cx="602.5" cy="122.5" r="7.5"/>
	<circle class="st1" cx="624.5" cy="100.5" r="7.5"/>
	<circle class="st1" cx="646.5" cy="78.5" r="7.5"/>
	<circle class="st1" cx="668.5" cy="56.5" r="7.5"/>
	<circle class="st1" cx="690.5" cy="34.5" r="7.5"/>
	<circle class="st1" cx="712.5" cy="12.5" r="7.5"/>
	<circle class="st1" cx="734.5" cy="-9.5" r="7.5"/>
	<circle class="st1" cx="756.5" cy="-31.5" r="7.5"/>
	<circle class="st1" cx="778.5" cy="-53.5" r="7.5"/>
	<circle class="st1" cx="800.5" cy="-75.5" r="7.5"/>
	<circle class="st1" cx="821.5" cy="-97.5" r="7.5"/>
	<circle class="st1" cx="843.5" cy="-119.5" r="7.5"/>
	<circle class="st1" cx="866.5" cy="-141.5" r="7.5"/>
	<circle class="st1" cx="888.5" cy="-163.5" r="7.5"/>
	<circle class="st1" cx="909.5" cy="-185.5" r="7.5"/>
	<circle class="st1" cx="931.5" cy="-207.5" r="7.5"/>
	<circle class="st1" cx="470.5" cy="298.5" r="7.5"/>
	<circle class="st1" cx="492.5" cy="275.5" r="7.5"/>
	<circle class="st1" cx="514.5" cy="253.5" r="7.5"/>
	<circle class="st1" cx="536.5" cy="231.5" r="7.5"/>
	<circle class="st1" cx="558.5" cy="210.5" r="7.5"/>
	<circle class="st1" cx="580.5" cy="188.5" r="7.5"/>
	<circle class="st1" cx="602.5" cy="166.5" r="7.5"/>
	<circle class="st1" cx="624.5" cy="143.5" r="7.5"/>
	<circle class="st1" cx="646.5" cy="122.5" r="7.5"/>
	<circle class="st1" cx="668.5" cy="100.5" r="7.5"/>
	<circle class="st1" cx="690.5" cy="78.5" r="7.5"/>
	<circle class="st1" cx="712.5" cy="56.5" r="7.5"/>
	<circle class="st1" cx="733.5" cy="34.5" r="7.5"/>
	<circle class="st1" cx="756.5" cy="12.5" r="7.5"/>
	<circle class="st1" cx="778.5" cy="-9.5" r="7.5"/>
	<circle class="st1" cx="800.5" cy="-31.5" r="7.5"/>
	<circle class="st1" cx="821.5" cy="-53.5" r="7.5"/>
	<circle class="st1" cx="843.5" cy="-75.5" r="7.5"/>
	<circle class="st1" cx="865.5" cy="-97.5" r="7.5"/>
	<circle class="st1" cx="888.5" cy="-119.5" r="7.5"/>
	<circle class="st1" cx="909.5" cy="-141.5" r="7.5"/>
	<circle class="st1" cx="931.5" cy="-163.5" r="7.5"/>
	<circle class="st1" cx="953.5" cy="-185.5" r="7.5"/>
	<circle class="st1" cx="492.5" cy="320.5" r="7.5"/>
	<circle class="st1" cx="514.5" cy="297.5" r="7.5"/>
	<circle class="st1" cx="536.5" cy="275.5" r="7.5"/>
	<circle class="st1" cx="558.5" cy="253.5" r="7.5"/>
	<circle class="st1" cx="580.5" cy="231.5" r="7.5"/>
	<circle class="st1" cx="602.5" cy="210.5" r="7.5"/>
	<circle class="st1" cx="623.5" cy="188.5" r="7.5"/>
	<circle class="st1" cx="646.5" cy="165.5" r="7.5"/>
	<circle class="st1" cx="668.5" cy="143.5" r="7.5"/>
	<circle class="st1" cx="690.5" cy="122.5" r="7.5"/>
	<circle class="st1" cx="712.5" cy="100.5" r="7.5"/>
	<circle class="st1" cx="733.5" cy="78.5" r="7.5"/>
	<circle class="st1" cx="755.5" cy="56.5" r="7.5"/>
	<circle class="st1" cx="778.5" cy="34.5" r="7.5"/>
	<circle class="st1" cx="800.5" cy="12.5" r="7.5"/>
	<circle class="st1" cx="821.5" cy="-9.5" r="7.5"/>
	<circle class="st1" cx="843.5" cy="-31.5" r="7.5"/>
	<circle class="st1" cx="865.5" cy="-53.5" r="7.5"/>
	<circle class="st1" cx="887.5" cy="-75.5" r="7.5"/>
	<circle class="st1" cx="909.5" cy="-97.5" r="7.5"/>
	<circle class="st1" cx="931.5" cy="-119.5" r="7.5"/>
	<circle class="st1" cx="953.5" cy="-141.5" r="7.5"/>
	<circle class="st1" cx="975.5" cy="-163.5" r="7.5"/>
	<circle class="st1" cx="931.5" cy="-250.5" r="7.5"/>
	<circle class="st1" cx="954.5" cy="-273.5" r="7.5"/>
	<circle class="st1" cx="953.5" cy="-228.5" r="7.5"/>
	<circle class="st1" cx="976.5" cy="-251.5" r="7.5"/>
	<circle class="st1" cx="975.5" cy="-207.5" r="7.5"/>
	<circle class="st1" cx="998.5" cy="-229.5" r="7.5"/>
	<circle class="st1" cx="997.5" cy="-185.5" r="7.5"/>
	<circle class="st1" cx="1019.5" cy="-207.5" r="7.5"/>
	<circle class="st1" cx="514.5" cy="341.5" r="7.5"/>
	<circle class="st1" cx="536.5" cy="319.5" r="7.5"/>
	<circle class="st1" cx="558.5" cy="297.5" r="7.5"/>
	<circle class="st1" cx="580.5" cy="275.5" r="7.5"/>
	<circle class="st1" cx="602.5" cy="253.5" r="7.5"/>
	<circle class="st1" cx="623.5" cy="231.5" r="7.5"/>
	<circle class="st1" cx="645.5" cy="210.5" r="7.5"/>
	<circle class="st1" cx="668.5" cy="187.5" r="7.5"/>
	<circle class="st1" cx="690.5" cy="165.5" r="7.5"/>
	<circle class="st1" cx="712.5" cy="143.5" r="7.5"/>
	<circle class="st1" cx="733.5" cy="122.5" r="7.5"/>
	<circle class="st1" cx="755.5" cy="100.5" r="7.5"/>
	<circle class="st1" cx="777.5" cy="78.5" r="7.5"/>
	<circle class="st1" cx="800.5" cy="55.5" r="7.5"/>
	<circle class="st1" cx="821.5" cy="34.5" r="7.5"/>
	<circle class="st1" cx="843.5" cy="12.5" r="7.5"/>
	<circle class="st1" cx="865.5" cy="-9.5" r="7.5"/>
	<circle class="st1" cx="887.5" cy="-31.5" r="7.5"/>
	<circle class="st1" cx="909.5" cy="-53.5" r="7.5"/>
	<circle class="st1" cx="931.5" cy="-75.5" r="7.5"/>
	<circle class="st1" cx="953.5" cy="-97.5" r="7.5"/>
	<circle class="st1" cx="975.5" cy="-119.5" r="7.5"/>
	<circle class="st1" cx="997.5" cy="-141.5" r="7.5"/>
	<circle class="st1" cx="535.5" cy="363.5" r="7.5"/>
	<circle class="st1" cx="558.5" cy="341.5" r="7.5"/>
	<circle class="st1" cx="580.5" cy="319.5" r="7.5"/>
	<circle class="st1" cx="602.5" cy="297.5" r="7.5"/>
	<circle class="st1" cx="623.5" cy="275.5" r="7.5"/>
	<circle class="st1" cx="645.5" cy="253.5" r="7.5"/>
	<circle class="st1" cx="667.5" cy="231.5" r="7.5"/>
	<circle class="st1" cx="690.5" cy="209.5" r="7.5"/>
	<circle class="st1" cx="712.5" cy="187.5" r="7.5"/>
	<circle class="st1" cx="733.5" cy="165.5" r="7.5"/>
	<circle class="st1" cx="755.5" cy="143.5" r="7.5"/>
	<circle class="st1" cx="777.5" cy="122.5" r="7.5"/>
	<circle class="st1" cx="799.5" cy="100.5" r="7.5"/>
	<circle class="st1" cx="821.5" cy="77.5" r="7.5"/>
	<circle class="st1" cx="843.5" cy="55.5" r="7.5"/>
	<circle class="st1" cx="865.5" cy="34.5" r="7.5"/>
	<circle class="st1" cx="887.5" cy="12.5" r="7.5"/>
	<circle class="st1" cx="909.5" cy="-9.5" r="7.5"/>
	<circle class="st1" cx="931.5" cy="-31.5" r="7.5"/>
	<circle class="st1" cx="953.5" cy="-54.5" r="7.5"/>
	<circle class="st1" cx="975.5" cy="-75.5" r="7.5"/>
	<circle class="st1" cx="997.5" cy="-97.5" r="7.5"/>
	<circle class="st1" cx="1019.5" cy="-119.5" r="7.5"/>
	<circle class="st1" cx="557.5" cy="385.5" r="7.5"/>
	<circle class="st1" cx="580.5" cy="363.5" r="7.5"/>
	<circle class="st1" cx="602.5" cy="341.5" r="7.5"/>
	<circle class="st1" cx="623.5" cy="319.5" r="7.5"/>
	<circle class="st1" cx="645.5" cy="297.5" r="7.5"/>
	<circle class="st1" cx="667.5" cy="275.5" r="7.5"/>
	<circle class="st1" cx="689.5" cy="253.5" r="7.5"/>
	<circle class="st1" cx="712.5" cy="231.5" r="7.5"/>
	<circle class="st1" cx="733.5" cy="209.5" r="7.5"/>
	<circle class="st1" cx="755.5" cy="187.5" r="7.5"/>
	<circle class="st1" cx="777.5" cy="165.5" r="7.5"/>
	<circle class="st1" cx="799.5" cy="143.5" r="7.5"/>
	<circle class="st1" cx="821.5" cy="122.5" r="7.5"/>
	<circle class="st1" cx="843.5" cy="99.5" r="7.5"/>
	<circle class="st1" cx="865.5" cy="77.5" r="7.5"/>
	<circle class="st1" cx="887.5" cy="55.5" r="7.5"/>
	<circle class="st1" cx="909.5" cy="34.5" r="7.5"/>
	<circle class="st1" cx="931.5" cy="12.5" r="7.5"/>
	<circle class="st1" cx="953.5" cy="-9.5" r="7.5"/>
	<circle class="st1" cx="975.5" cy="-32.5" r="7.5"/>
	<circle class="st1" cx="997.5" cy="-54.5" r="7.5"/>
	<circle class="st1" cx="1019.5" cy="-75.5" r="7.5"/>
	<circle class="st1" cx="1041.5" cy="-97.5" r="7.5"/>
	<circle class="st1" cx="579.5" cy="407.5" r="7.5"/>
	<circle class="st1" cx="602.5" cy="385.5" r="7.5"/>
	<circle class="st1" cx="623.5" cy="363.5" r="7.5"/>
	<circle class="st1" cx="645.5" cy="341.5" r="7.5"/>
	<circle class="st1" cx="667.5" cy="319.5" r="7.5"/>
	<circle class="st1" cx="689.5" cy="297.5" r="7.5"/>
	<circle class="st1" cx="711.5" cy="275.5" r="7.5"/>
	<circle class="st1" cx="733.5" cy="253.5" r="7.5"/>
	<circle class="st1" cx="755.5" cy="231.5" r="7.5"/>
	<circle class="st1" cx="777.5" cy="209.5" r="7.5"/>
	<circle class="st1" cx="799.5" cy="187.5" r="7.5"/>
	<circle class="st1" cx="821.5" cy="165.5" r="7.5"/>
	<circle class="st1" cx="843.5" cy="143.5" r="7.5"/>
	<circle class="st1" cx="865.5" cy="121.5" r="7.5"/>
	<circle class="st1" cx="887.5" cy="99.5" r="7.5"/>
	<circle class="st1" cx="909.5" cy="77.5" r="7.5"/>
	<circle class="st1" cx="931.5" cy="55.5" r="7.5"/>
	<circle class="st1" cx="953.5" cy="34.5" r="7.5"/>
	<circle class="st1" cx="974.5" cy="12.5" r="7.5"/>
	<circle class="st1" cx="997.5" cy="-10.5" r="7.5"/>
	<circle class="st1" cx="1019.5" cy="-32.5" r="7.5"/>
	<circle class="st1" cx="1041.5" cy="-54.5" r="7.5"/>
	<circle class="st1" cx="1063.5" cy="-75.5" r="7.5"/>
	<circle class="st1" cx="1019.5" cy="-163.5" r="7.5"/>
	<circle class="st1" cx="1041.5" cy="-185.5" r="7.5"/>
	<circle class="st1" cx="1041.5" cy="-141.5" r="7.5"/>
	<circle class="st1" cx="1063.5" cy="-163.5" r="7.5"/>
	<circle class="st1" cx="1063.5" cy="-119.5" r="7.5"/>
	<circle class="st1" cx="1085.5" cy="-142.5" r="7.5"/>
	<circle class="st1" cx="1084.5" cy="-97.5" r="7.5"/>
	<circle class="st1" cx="1107.5" cy="-120.5" r="7.5"/>
	<circle class="st1" cx="777.5" cy="254.5" r="7.5"/>
	<circle class="st1" cx="800.5" cy="231.5" r="7.5"/>
	<circle class="st1" cx="821.5" cy="210.5" r="7.5"/>
	<circle class="st1" cx="843.5" cy="188.5" r="7.5"/>
	<circle class="st1" cx="865.5" cy="166.5" r="7.5"/>
	<circle class="st1" cx="887.5" cy="144.5" r="7.5"/>
	<circle class="st1" cx="909.5" cy="122.5" r="7.5"/>
	<circle class="st1" cx="931.5" cy="100.5" r="7.5"/>
	<circle class="st1" cx="953.5" cy="78.5" r="7.5"/>
	<circle class="st1" cx="975.5" cy="56.5" r="7.5"/>
	<circle class="st1" cx="997.5" cy="34.5" r="7.5"/>
	<circle class="st1" cx="1019.5" cy="12.5" r="7.5"/>
	<circle class="st1" cx="1041.5" cy="-9.5" r="7.5"/>
	<circle class="st1" cx="1063.5" cy="-31.5" r="7.5"/>
	<circle class="st1" cx="1085.5" cy="-53.5" r="7.5"/>
	<circle class="st1" cx="1107.5" cy="-75.5" r="7.5"/>
	<circle class="st1" cx="1129.5" cy="-97.5" r="7.5"/>
	<circle class="st1" cx="1151.5" cy="-119.5" r="7.5"/>
	<circle class="st1" cx="1172.5" cy="-140.5" r="7.5"/>
	<circle class="st1" cx="1195.5" cy="-163.5" r="7.5"/>
	<circle class="st1" cx="1217.5" cy="-185.5" r="7.5"/>
	<circle class="st1" cx="1239.5" cy="-207.5" r="7.5"/>
	<circle class="st1" cx="1261.5" cy="-228.5" r="7.5"/>
	<circle class="st1" cx="799.5" cy="276.5" r="7.5"/>
	<circle class="st1" cx="821.5" cy="253.5" r="7.5"/>
	<circle class="st1" cx="843.5" cy="231.5" r="7.5"/>
	<circle class="st1" cx="865.5" cy="210.5" r="7.5"/>
	<circle class="st1" cx="887.5" cy="188.5" r="7.5"/>
	<circle class="st1" cx="909.5" cy="166.5" r="7.5"/>
	<circle class="st1" cx="931.5" cy="144.5" r="7.5"/>
	<circle class="st1" cx="953.5" cy="122.5" r="7.5"/>
	<circle class="st1" cx="975.5" cy="100.5" r="7.5"/>
	<circle class="st1" cx="997.5" cy="78.5" r="7.5"/>
	<circle class="st1" cx="1019.5" cy="56.5" r="7.5"/>
	<circle class="st1" cx="1041.5" cy="34.5" r="7.5"/>
	<circle class="st1" cx="1063.5" cy="12.5" r="7.5"/>
	<circle class="st1" cx="1085.5" cy="-9.5" r="7.5"/>
	<circle class="st1" cx="1107.5" cy="-31.5" r="7.5"/>
	<circle class="st1" cx="1129.5" cy="-53.5" r="7.5"/>
	<circle class="st1" cx="1151.5" cy="-75.5" r="7.5"/>
	<circle class="st1" cx="1172.5" cy="-97.5" r="7.5"/>
	<circle class="st1" cx="1194.5" cy="-119.5" r="7.5"/>
	<circle class="st1" cx="1217.5" cy="-141.5" r="7.5"/>
	<circle class="st1" cx="1239.5" cy="-163.5" r="7.5"/>
	<circle class="st1" cx="1261.5" cy="-185.5" r="7.5"/>
	<circle class="st1" cx="1282.5" cy="-207.5" r="7.5"/>
	<circle class="st1" cx="821.5" cy="298.5" r="7.5"/>
	<circle class="st1" cx="843.5" cy="275.5" r="7.5"/>
	<circle class="st1" cx="865.5" cy="253.5" r="7.5"/>
	<circle class="st1" cx="887.5" cy="231.5" r="7.5"/>
	<circle class="st1" cx="909.5" cy="210.5" r="7.5"/>
	<circle class="st1" cx="931.5" cy="188.5" r="7.5"/>
	<circle class="st1" cx="953.5" cy="166.5" r="7.5"/>
	<circle class="st1" cx="975.5" cy="143.5" r="7.5"/>
	<circle class="st1" cx="997.5" cy="122.5" r="7.5"/>
	<circle class="st1" cx="1019.5" cy="100.5" r="7.5"/>
	<circle class="st1" cx="1041.5" cy="78.5" r="7.5"/>
	<circle class="st1" cx="1063.5" cy="56.5" r="7.5"/>
	<circle class="st1" cx="1084.5" cy="34.5" r="7.5"/>
	<circle class="st1" cx="1107.5" cy="12.5" r="7.5"/>
	<circle class="st1" cx="1129.5" cy="-9.5" r="7.5"/>
	<circle class="st1" cx="1151.5" cy="-31.5" r="7.5"/>
	<circle class="st1" cx="1172.5" cy="-53.5" r="7.5"/>
	<circle class="st1" cx="1194.5" cy="-75.5" r="7.5"/>
	<circle class="st1" cx="1216.5" cy="-97.5" r="7.5"/>
	<circle class="st1" cx="1239.5" cy="-119.5" r="7.5"/>
	<circle class="st1" cx="1261.5" cy="-141.5" r="7.5"/>
	<circle class="st1" cx="1282.5" cy="-163.5" r="7.5"/>
	<circle class="st1" cx="1304.5" cy="-185.5" r="7.5"/>
	<circle class="st1" cx="843.5" cy="320.5" r="7.5"/>
	<circle class="st1" cx="865.5" cy="297.5" r="7.5"/>
	<circle class="st1" cx="887.5" cy="275.5" r="7.5"/>
	<circle class="st1" cx="909.5" cy="253.5" r="7.5"/>
	<circle class="st1" cx="931.5" cy="231.5" r="7.5"/>
	<circle class="st1" cx="953.5" cy="210.5" r="7.5"/>
	<circle class="st1" cx="974.5" cy="188.5" r="7.5"/>
	<circle class="st1" cx="997.5" cy="165.5" r="7.5"/>
	<circle class="st1" cx="1019.5" cy="143.5" r="7.5"/>
	<circle class="st1" cx="1041.5" cy="122.5" r="7.5"/>
	<circle class="st1" cx="1063.5" cy="100.5" r="7.5"/>
	<circle class="st1" cx="1084.5" cy="78.5" r="7.5"/>
	<circle class="st1" cx="1106.5" cy="56.5" r="7.5"/>
	<circle class="st1" cx="1129.5" cy="34.5" r="7.5"/>
	<circle class="st1" cx="1151.5" cy="12.5" r="7.5"/>
	<circle class="st1" cx="1172.5" cy="-9.5" r="7.5"/>
	<circle class="st1" cx="1194.5" cy="-31.5" r="7.5"/>
	<circle class="st1" cx="1216.5" cy="-53.5" r="7.5"/>
	<circle class="st1" cx="1238.5" cy="-75.5" r="7.5"/>
	<circle class="st1" cx="1261.5" cy="-97.5" r="7.5"/>
	<circle class="st1" cx="1282.5" cy="-119.5" r="7.5"/>
	<circle class="st1" cx="1304.5" cy="-141.5" r="7.5"/>
	<circle class="st1" cx="1326.5" cy="-163.5" r="7.5"/>
	<circle class="st1" cx="1282.5" cy="-250.5" r="7.5"/>
	<circle class="st1" cx="1305.5" cy="-273.5" r="7.5"/>
	<circle class="st1" cx="1304.5" cy="-228.5" r="7.5"/>
	<circle class="st1" cx="1327.5" cy="-251.5" r="7.5"/>
	<circle class="st1" cx="1326.5" cy="-207.5" r="7.5"/>
	<circle class="st1" cx="1349.5" cy="-229.5" r="7.5"/>
	<circle class="st1" cx="1348.5" cy="-185.5" r="7.5"/>
	<circle class="st1" cx="1370.5" cy="-207.5" r="7.5"/>
	<circle class="st1" cx="865.5" cy="341.5" r="7.5"/>
	<circle class="st1" cx="887.5" cy="319.5" r="7.5"/>
	<circle class="st1" cx="909.5" cy="297.5" r="7.5"/>
	<circle class="st1" cx="931.5" cy="275.5" r="7.5"/>
	<circle class="st1" cx="953.5" cy="253.5" r="7.5"/>
	<circle class="st1" cx="974.5" cy="231.5" r="7.5"/>
	<circle class="st1" cx="996.5" cy="210.5" r="7.5"/>
	<circle class="st1" cx="1019.5" cy="187.5" r="7.5"/>
	<circle class="st1" cx="1041.5" cy="165.5" r="7.5"/>
	<circle class="st1" cx="1063.5" cy="143.5" r="7.5"/>
	<circle class="st1" cx="1084.5" cy="122.5" r="7.5"/>
	<circle class="st1" cx="1106.5" cy="100.5" r="7.5"/>
	<circle class="st1" cx="1128.5" cy="78.5" r="7.5"/>
	<circle class="st1" cx="1151.5" cy="55.5" r="7.5"/>
	<circle class="st1" cx="1172.5" cy="34.5" r="7.5"/>
	<circle class="st1" cx="1194.5" cy="12.5" r="7.5"/>
	<circle class="st1" cx="1216.5" cy="-9.5" r="7.5"/>
	<circle class="st1" cx="1238.5" cy="-31.5" r="7.5"/>
	<circle class="st1" cx="1260.5" cy="-53.5" r="7.5"/>
	<circle class="st1" cx="1282.5" cy="-75.5" r="7.5"/>
	<circle class="st1" cx="1304.5" cy="-97.5" r="7.5"/>
	<circle class="st1" cx="1326.5" cy="-119.5" r="7.5"/>
	<circle class="st1" cx="1348.5" cy="-141.5" r="7.5"/>
	<circle class="st1" cx="886.5" cy="363.5" r="7.5"/>
	<circle class="st1" cx="909.5" cy="341.5" r="7.5"/>
	<circle class="st1" cx="931.5" cy="319.5" r="7.5"/>
	<circle class="st1" cx="953.5" cy="297.5" r="7.5"/>
	<circle class="st1" cx="974.5" cy="275.5" r="7.5"/>
	<circle class="st1" cx="996.5" cy="253.5" r="7.5"/>
	<circle class="st1" cx="1018.5" cy="231.5" r="7.5"/>
	<circle class="st1" cx="1041.5" cy="209.5" r="7.5"/>
	<circle class="st1" cx="1063.5" cy="187.5" r="7.5"/>
	<circle class="st1" cx="1084.5" cy="165.5" r="7.5"/>
	<circle class="st1" cx="1106.5" cy="143.5" r="7.5"/>
	<circle class="st1" cx="1128.5" cy="122.5" r="7.5"/>
	<circle class="st1" cx="1150.5" cy="100.5" r="7.5"/>
	<circle class="st1" cx="1172.5" cy="77.5" r="7.5"/>
	<circle class="st1" cx="1194.5" cy="55.5" r="7.5"/>
	<circle class="st1" cx="1216.5" cy="34.5" r="7.5"/>
	<circle class="st1" cx="1238.5" cy="12.5" r="7.5"/>
	<circle class="st1" cx="1260.5" cy="-9.5" r="7.5"/>
	<circle class="st1" cx="1282.5" cy="-31.5" r="7.5"/>
	<circle class="st1" cx="1304.5" cy="-54.5" r="7.5"/>
	<circle class="st1" cx="1326.5" cy="-75.5" r="7.5"/>
	<circle class="st1" cx="1348.5" cy="-97.5" r="7.5"/>
	<circle class="st1" cx="1370.5" cy="-119.5" r="7.5"/>
	<circle class="st1" cx="908.5" cy="385.5" r="7.5"/>
	<circle class="st1" cx="931.5" cy="363.5" r="7.5"/>
	<circle class="st1" cx="953.5" cy="341.5" r="7.5"/>
	<circle class="st1" cx="974.5" cy="319.5" r="7.5"/>
	<circle class="st1" cx="996.5" cy="297.5" r="7.5"/>
	<circle class="st1" cx="1018.5" cy="275.5" r="7.5"/>
	<circle class="st1" cx="1040.5" cy="253.5" r="7.5"/>
	<circle class="st1" cx="1063.5" cy="231.5" r="7.5"/>
	<circle class="st1" cx="1084.5" cy="209.5" r="7.5"/>
	<circle class="st1" cx="1106.5" cy="187.5" r="7.5"/>
	<circle class="st1" cx="1128.5" cy="165.5" r="7.5"/>
	<circle class="st1" cx="1150.5" cy="143.5" r="7.5"/>
	<circle class="st1" cx="1172.5" cy="122.5" r="7.5"/>
	<circle class="st1" cx="1194.5" cy="99.5" r="7.5"/>
	<circle class="st1" cx="1216.5" cy="77.5" r="7.5"/>
	<circle class="st1" cx="1238.5" cy="55.5" r="7.5"/>
	<circle class="st1" cx="1260.5" cy="34.5" r="7.5"/>
	<circle class="st1" cx="1282.5" cy="12.5" r="7.5"/>
	<circle class="st1" cx="1304.5" cy="-9.5" r="7.5"/>
	<circle class="st1" cx="1326.5" cy="-32.5" r="7.5"/>
	<circle class="st1" cx="1348.5" cy="-54.5" r="7.5"/>
	<circle class="st1" cx="1370.5" cy="-75.5" r="7.5"/>
	<circle class="st1" cx="1392.5" cy="-97.5" r="7.5"/>
	<circle class="st1" cx="930.5" cy="407.5" r="7.5"/>
	<circle class="st1" cx="953.5" cy="385.5" r="7.5"/>
	<circle class="st1" cx="974.5" cy="363.5" r="7.5"/>
	<circle class="st1" cx="996.5" cy="341.5" r="7.5"/>
	<circle class="st1" cx="1018.5" cy="319.5" r="7.5"/>
	<circle class="st1" cx="1040.5" cy="297.5" r="7.5"/>
	<circle class="st1" cx="1062.5" cy="275.5" r="7.5"/>
	<circle class="st1" cx="1084.5" cy="253.5" r="7.5"/>
	<circle class="st1" cx="1106.5" cy="231.5" r="7.5"/>
	<circle class="st1" cx="1128.5" cy="209.5" r="7.5"/>
	<circle class="st1" cx="1150.5" cy="187.5" r="7.5"/>
	<circle class="st1" cx="1172.5" cy="165.5" r="7.5"/>
	<circle class="st1" cx="1194.5" cy="143.5" r="7.5"/>
	<circle class="st1" cx="1216.5" cy="121.5" r="7.5"/>
	<circle class="st1" cx="1238.5" cy="99.5" r="7.5"/>
	<circle class="st1" cx="1260.5" cy="77.5" r="7.5"/>
	<circle class="st1" cx="1282.5" cy="55.5" r="7.5"/>
	<circle class="st1" cx="1304.5" cy="34.5" r="7.5"/>
	<circle class="st1" cx="1326.5" cy="12.5" r="7.5"/>
	<circle class="st1" cx="1348.5" cy="-10.5" r="7.5"/>
	<circle class="st1" cx="1370.5" cy="-32.5" r="7.5"/>
	<circle class="st1" cx="1392.5" cy="-54.5" r="7.5"/>
	<circle class="st1" cx="1414.5" cy="-75.5" r="7.5"/>
	<circle class="st1" cx="1370.5" cy="-163.5" r="7.5"/>
	<circle class="st1" cx="1392.5" cy="-185.5" r="7.5"/>
	<circle class="st1" cx="1392.5" cy="-141.5" r="7.5"/>
	<circle class="st1" cx="1414.5" cy="-163.5" r="7.5"/>
	<circle class="st1" cx="1414.5" cy="-119.5" r="7.5"/>
	<circle class="st1" cx="1436.5" cy="-142.5" r="7.5"/>
	<circle class="st1" cx="1435.5" cy="-97.5" r="7.5"/>
	<circle class="st1" cx="1458.5" cy="-120.5" r="7.5"/>
</g>
</svg>
