<svg enable-background="new 0 0 320 119" viewBox="0 0 320 119" xmlns="http://www.w3.org/2000/svg" xmlns:xlink="http://www.w3.org/1999/xlink"><clipPath id="a"><path d="m0 0h320v119h-320z"/></clipPath><g clip-path="url(#a)" fill="#147368" opacity=".3"><circle cx="-227" cy="177" r="5"/><circle cx="-212" cy="162" r="5"/><circle cx="-198" cy="147" r="5"/><circle cx="-183" cy="133" r="5"/><circle cx="-169" cy="118" r="5"/><circle cx="-154" cy="104" r="5"/><circle cx="-140" cy="89" r="5"/><circle cx="-125" cy="74" r="5"/><circle cx="-110" cy="60" r="5"/><circle cx="-96" cy="45" r="5"/><circle cx="-81" cy="30" r="5"/><circle cx="-66" cy="16" r="5"/><circle cx="-52" cy="1" r="5"/><circle cx="-37" cy="-14" r="5"/><circle cx="-22" cy="-28" r="5"/><circle cx="-8" cy="-43" r="5"/><circle cx="7" cy="-57" r="5"/><circle cx="21" cy="-72" r="5"/><circle cx="36" cy="-86" r="5"/><circle cx="51" cy="-101" r="5"/><circle cx="65" cy="-116" r="5"/><circle cx="80" cy="-131" r="5"/><circle cx="95" cy="-145" r="5"/><circle cx="-213" cy="191" r="5"/><circle cx="-198" cy="176" r="5"/><circle cx="-183" cy="162" r="5"/><circle cx="-169" cy="147" r="5"/><circle cx="-154" cy="133" r="5"/><circle cx="-140" cy="118" r="5"/><circle cx="-125" cy="104" r="5"/><circle cx="-110" cy="89" r="5"/><circle cx="-96" cy="74" r="5"/><circle cx="-81" cy="60" r="5"/><circle cx="-66" cy="45" r="5"/><circle cx="-52" cy="30" r="5"/><circle cx="-37" cy="16" r="5"/><circle cx="-22" cy="1" r="5"/><circle cx="-8" cy="-14" r="5"/><circle cx="7" cy="-28" r="5"/><circle cx="21" cy="-43" r="5"/><circle cx="36" cy="-57" r="5"/><circle cx="50" cy="-72" r="5"/><circle cx="65" cy="-87" r="5"/><circle cx="80" cy="-101" r="5"/><circle cx="95" cy="-116" r="5"/><circle cx="109" cy="-131" r="5"/><circle cx="-198" cy="206" r="5"/><circle cx="-183" cy="191" r="5"/><circle cx="-169" cy="176" r="5"/><circle cx="-154" cy="162" r="5"/><circle cx="-140" cy="147" r="5"/><circle cx="-125" cy="133" r="5"/><circle cx="-111" cy="118" r="5"/><circle cx="-96" cy="103" r="5"/><circle cx="-81" cy="89" r="5"/><circle cx="-66" cy="74" r="5"/><circle cx="-52" cy="60" r="5"/><circle cx="-37" cy="45" r="5"/><circle cx="-23" cy="30" r="5"/><circle cx="-8" cy="15" r="5"/><circle cx="7" cy="1" r="5"/><circle cx="21" cy="-14" r="5"/><circle cx="36" cy="-28" r="5"/><circle cx="50" cy="-43" r="5"/><circle cx="65" cy="-57" r="5"/><circle cx="80" cy="-72" r="5"/><circle cx="95" cy="-87" r="5"/><circle cx="109" cy="-101" r="5"/><circle cx="124" cy="-116" r="5"/><circle cx="-184" cy="221" r="5"/><circle cx="-169" cy="206" r="5"/><circle cx="-154" cy="191" r="5"/><circle cx="-140" cy="176" r="5"/><circle cx="-125" cy="162" r="5"/><circle cx="-111" cy="147" r="5"/><circle cx="-96" cy="133" r="5"/><circle cx="-81" cy="118" r="5"/><circle cx="-66" cy="103" r="5"/><circle cx="-52" cy="89" r="5"/><circle cx="-37" cy="74" r="5"/><circle cx="-23" cy="60" r="5"/><circle cx="-8" cy="45" r="5"/><circle cx="7" cy="30" r="5"/><circle cx="21" cy="15" r="5"/><circle cx="36" cy="1" r="5"/><circle cx="50" cy="-14" r="5"/><circle cx="65" cy="-28" r="5"/><circle cx="80" cy="-43" r="5"/><circle cx="95" cy="-58" r="5"/><circle cx="109" cy="-72" r="5"/><circle cx="124" cy="-87" r="5"/><circle cx="138" cy="-101" r="5"/><circle cx="109" cy="-160" r="5"/><circle cx="124" cy="-175" r="5"/><circle cx="124" cy="-145" r="5"/><circle cx="139" cy="-160" r="5"/><circle cx="138" cy="-131" r="5"/><circle cx="153" cy="-146" r="5"/><circle cx="153" cy="-116" r="5"/><circle cx="168" cy="-131" r="5"/><circle cx="-169" cy="235" r="5"/><circle cx="-154" cy="220" r="5"/><circle cx="-140" cy="206" r="5"/><circle cx="-125" cy="191" r="5"/><circle cx="-111" cy="176" r="5"/><circle cx="-96" cy="162" r="5"/><circle cx="-81" cy="147" r="5"/><circle cx="-66" cy="132" r="5"/><circle cx="-52" cy="118" r="5"/><circle cx="-37" cy="103" r="5"/><circle cx="-23" cy="89" r="5"/><circle cx="-8" cy="74" r="5"/><circle cx="6" cy="60" r="5"/><circle cx="21" cy="45" r="5"/><circle cx="36" cy="30" r="5"/><circle cx="50" cy="15" r="5"/><circle cx="65" cy="1" r="5"/><circle cx="80" cy="-14" r="5"/><circle cx="94" cy="-28" r="5"/><circle cx="109" cy="-43" r="5"/><circle cx="124" cy="-58" r="5"/><circle cx="138" cy="-72" r="5"/><circle cx="153" cy="-87" r="5"/><circle cx="-155" cy="250" r="5"/><circle cx="-140" cy="235" r="5"/><circle cx="-125" cy="220" r="5"/><circle cx="-111" cy="206" r="5"/><circle cx="-96" cy="191" r="5"/><circle cx="-81" cy="176" r="5"/><circle cx="-67" cy="162" r="5"/><circle cx="-52" cy="147" r="5"/><circle cx="-37" cy="132" r="5"/><circle cx="-23" cy="118" r="5"/><circle cx="-8" cy="103" r="5"/><circle cx="6" cy="89" r="5"/><circle cx="21" cy="74" r="5"/><circle cx="36" cy="59" r="5"/><circle cx="50" cy="45" r="5"/><circle cx="65" cy="30" r="5"/><circle cx="80" cy="15" r="5"/><circle cx="94" cy="1" r="5"/><circle cx="109" cy="-14" r="5"/><circle cx="124" cy="-29" r="5"/><circle cx="138" cy="-43" r="5"/><circle cx="153" cy="-58" r="5"/><circle cx="167" cy="-72" r="5"/><circle cx="-140" cy="264" r="5"/><circle cx="-125" cy="249" r="5"/><circle cx="-111" cy="235" r="5"/><circle cx="-96" cy="220" r="5"/><circle cx="-81" cy="206" r="5"/><circle cx="-67" cy="191" r="5"/><circle cx="-52" cy="176" r="5"/><circle cx="-37" cy="161" r="5"/><circle cx="-23" cy="147" r="5"/><circle cx="-8" cy="132" r="5"/><circle cx="6" cy="118" r="5"/><circle cx="21" cy="103" r="5"/><circle cx="35" cy="89" r="5"/><circle cx="50" cy="74" r="5"/><circle cx="65" cy="59" r="5"/><circle cx="80" cy="45" r="5"/><circle cx="94" cy="30" r="5"/><circle cx="109" cy="15" r="5"/><circle cx="123" cy="1" r="5"/><circle cx="138" cy="-14" r="5"/><circle cx="153" cy="-29" r="5"/><circle cx="167" cy="-43" r="5"/><circle cx="182" cy="-58" r="5"/><circle cx="-126" cy="279" r="5"/><circle cx="-111" cy="264" r="5"/><circle cx="-96" cy="249" r="5"/><circle cx="-81" cy="235" r="5"/><circle cx="-67" cy="220" r="5"/><circle cx="-52" cy="206" r="5"/><circle cx="-38" cy="191" r="5"/><circle cx="-23" cy="176" r="5"/><circle cx="-8" cy="161" r="5"/><circle cx="6" cy="147" r="5"/><circle cx="21" cy="132" r="5"/><circle cx="35" cy="118" r="5"/><circle cx="50" cy="103" r="5"/><circle cx="65" cy="88" r="5"/><circle cx="80" cy="74" r="5"/><circle cx="94" cy="59" r="5"/><circle cx="109" cy="45" r="5"/><circle cx="123" cy="30" r="5"/><circle cx="138" cy="15" r="5"/><circle cx="153" r="5"/><circle cx="167" cy="-14" r="5"/><circle cx="182" cy="-29" r="5"/><circle cx="196" cy="-43" r="5"/><circle cx="167" cy="-101" r="5"/><circle cx="182" cy="-116" r="5"/><circle cx="182" cy="-87" r="5"/><circle cx="197" cy="-102" r="5"/><circle cx="196" cy="-72" r="5"/><circle cx="211" cy="-87" r="5"/><circle cx="211" cy="-58" r="5"/><circle cx="226" cy="-73" r="5"/><circle cx="7" cy="177" r="5"/><circle cx="22" cy="162" r="5"/><circle cx="36" cy="147" r="5"/><circle cx="51" cy="133" r="5"/><circle cx="65" cy="118" r="5"/><circle cx="80" cy="104" r="5"/><circle cx="95" cy="89" r="5"/><circle cx="110" cy="74" r="5"/><circle cx="124" cy="60" r="5"/><circle cx="139" cy="45" r="5"/><circle cx="153" cy="30" r="5"/><circle cx="168" cy="16" r="5"/><circle cx="182" cy="1" r="5"/><circle cx="197" cy="-14" r="5"/><circle cx="212" cy="-28" r="5"/><circle cx="226" cy="-43" r="5"/><circle cx="241" cy="-57" r="5"/><circle cx="256" cy="-72" r="5"/><circle cx="270" cy="-86" r="5"/><circle cx="285" cy="-101" r="5"/><circle cx="300" cy="-116" r="5"/><circle cx="314" cy="-131" r="5"/><circle cx="329" cy="-145" r="5"/><circle cx="21" cy="191" r="5"/><circle cx="36" cy="176" r="5"/><circle cx="51" cy="162" r="5"/><circle cx="65" cy="147" r="5"/><circle cx="80" cy="133" r="5"/><circle cx="95" cy="118" r="5"/><circle cx="109" cy="104" r="5"/><circle cx="124" cy="89" r="5"/><circle cx="139" cy="74" r="5"/><circle cx="153" cy="60" r="5"/><circle cx="168" cy="45" r="5"/><circle cx="182" cy="30" r="5"/><circle cx="197" cy="16" r="5"/><circle cx="212" cy="1" r="5"/><circle cx="226" cy="-14" r="5"/><circle cx="241" cy="-28" r="5"/><circle cx="256" cy="-43" r="5"/><circle cx="270" cy="-57" r="5"/><circle cx="285" cy="-72" r="5"/><circle cx="300" cy="-87" r="5"/><circle cx="314" cy="-101" r="5"/><circle cx="329" cy="-116" r="5"/><circle cx="343" cy="-131" r="5"/><circle cx="36" cy="206" r="5"/><circle cx="51" cy="191" r="5"/><circle cx="65" cy="176" r="5"/><circle cx="80" cy="162" r="5"/><circle cx="95" cy="147" r="5"/><circle cx="109" cy="133" r="5"/><circle cx="124" cy="118" r="5"/><circle cx="139" cy="103" r="5"/><circle cx="153" cy="89" r="5"/><circle cx="168" cy="74" r="5"/><circle cx="182" cy="60" r="5"/><circle cx="197" cy="45" r="5"/><circle cx="211" cy="30" r="5"/><circle cx="226" cy="15" r="5"/><circle cx="241" cy="1" r="5"/><circle cx="256" cy="-14" r="5"/><circle cx="270" cy="-28" r="5"/><circle cx="285" cy="-43" r="5"/><circle cx="299" cy="-57" r="5"/><circle cx="314" cy="-72" r="5"/><circle cx="329" cy="-87" r="5"/><circle cx="343" cy="-101" r="5"/><circle cx="358" cy="-116" r="5"/><circle cx="50" cy="221" r="5"/><circle cx="65" cy="206" r="5"/><circle cx="80" cy="191" r="5"/><circle cx="95" cy="176" r="5"/><circle cx="109" cy="162" r="5"/><circle cx="124" cy="147" r="5"/><circle cx="138" cy="133" r="5"/><circle cx="153" cy="118" r="5"/><circle cx="168" cy="103" r="5"/><circle cx="182" cy="89" r="5"/><circle cx="197" cy="74" r="5"/><circle cx="211" cy="60" r="5"/><circle cx="226" cy="45" r="5"/><circle cx="241" cy="30" r="5"/><circle cx="256" cy="15" r="5"/><circle cx="270" cy="1" r="5"/><circle cx="285" cy="-14" r="5"/><circle cx="299" cy="-28" r="5"/><circle cx="314" cy="-43" r="5"/><circle cx="329" cy="-58" r="5"/><circle cx="343" cy="-72" r="5"/><circle cx="358" cy="-87" r="5"/><circle cx="372" cy="-101" r="5"/><circle cx="343" cy="-160" r="5"/><circle cx="358" cy="-175" r="5"/><circle cx="358" cy="-145" r="5"/><circle cx="373" cy="-160" r="5"/><circle cx="372" cy="-131" r="5"/><circle cx="387" cy="-146" r="5"/><circle cx="387" cy="-116" r="5"/><circle cx="402" cy="-131" r="5"/><circle cx="65" cy="235" r="5"/><circle cx="80" cy="220" r="5"/><circle cx="95" cy="206" r="5"/><circle cx="109" cy="191" r="5"/><circle cx="124" cy="176" r="5"/><circle cx="138" cy="162" r="5"/><circle cx="153" cy="147" r="5"/><circle cx="168" cy="132" r="5"/><circle cx="182" cy="118" r="5"/><circle cx="197" cy="103" r="5"/><circle cx="211" cy="89" r="5"/><circle cx="226" cy="74" r="5"/><circle cx="241" cy="60" r="5"/><circle cx="256" cy="45" r="5"/><circle cx="270" cy="30" r="5"/><circle cx="285" cy="15" r="5"/><circle cx="299" cy="1" r="5"/><circle cx="314" cy="-14" r="5"/><circle cx="328" cy="-28" r="5"/><circle cx="343" cy="-43" r="5"/><circle cx="358" cy="-58" r="5"/><circle cx="372" cy="-72" r="5"/><circle cx="387" cy="-87" r="5"/><circle cx="80" cy="250" r="5"/><circle cx="95" cy="235" r="5"/><circle cx="109" cy="220" r="5"/><circle cx="124" cy="206" r="5"/><circle cx="138" cy="191" r="5"/><circle cx="153" cy="176" r="5"/><circle cx="167" cy="162" r="5"/><circle cx="182" cy="147" r="5"/><circle cx="197" cy="132" r="5"/><circle cx="211" cy="118" r="5"/><circle cx="226" cy="103" r="5"/><circle cx="241" cy="89" r="5"/><circle cx="255" cy="74" r="5"/><circle cx="270" cy="59" r="5"/><circle cx="285" cy="45" r="5"/><circle cx="299" cy="30" r="5"/><circle cx="314" cy="15" r="5"/><circle cx="328" cy="1" r="5"/><circle cx="343" cy="-14" r="5"/><circle cx="358" cy="-29" r="5"/><circle cx="372" cy="-43" r="5"/><circle cx="387" cy="-58" r="5"/><circle cx="402" cy="-72" r="5"/><circle cx="94" cy="264" r="5"/><circle cx="109" cy="249" r="5"/><circle cx="124" cy="235" r="5"/><circle cx="138" cy="220" r="5"/><circle cx="153" cy="206" r="5"/><circle cx="167" cy="191" r="5"/><circle cx="182" cy="176" r="5"/><circle cx="197" cy="161" r="5"/><circle cx="211" cy="147" r="5"/><circle cx="226" cy="132" r="5"/><circle cx="241" cy="118" r="5"/><circle cx="255" cy="103" r="5"/><circle cx="270" cy="89" r="5"/><circle cx="285" cy="74" r="5"/><circle cx="299" cy="59" r="5"/><circle cx="314" cy="45" r="5"/><circle cx="328" cy="30" r="5"/><circle cx="343" cy="15" r="5"/><circle cx="357" cy="1" r="5"/><circle cx="372" cy="-14" r="5"/><circle cx="387" cy="-29" r="5"/><circle cx="402" cy="-43" r="5"/><circle cx="416" cy="-58" r="5"/><circle cx="109" cy="279" r="5"/><circle cx="124" cy="264" r="5"/><circle cx="138" cy="249" r="5"/><circle cx="153" cy="235" r="5"/><circle cx="167" cy="220" r="5"/><circle cx="182" cy="206" r="5"/><circle cx="196" cy="191" r="5"/><circle cx="211" cy="176" r="5"/><circle cx="226" cy="161" r="5"/><circle cx="241" cy="147" r="5"/><circle cx="255" cy="132" r="5"/><circle cx="270" cy="118" r="5"/><circle cx="284" cy="103" r="5"/><circle cx="299" cy="88" r="5"/><circle cx="314" cy="74" r="5"/><circle cx="328" cy="59" r="5"/><circle cx="343" cy="45" r="5"/><circle cx="357" cy="30" r="5"/><circle cx="372" cy="15" r="5"/><circle cx="387" r="5"/><circle cx="402" cy="-14" r="5"/><circle cx="416" cy="-29" r="5"/><circle cx="431" cy="-43" r="5"/><circle cx="402" cy="-101" r="5"/><circle cx="417" cy="-116" r="5"/><circle cx="416" cy="-87" r="5"/><circle cx="431" cy="-102" r="5"/><circle cx="431" cy="-72" r="5"/><circle cx="446" cy="-87" r="5"/><circle cx="445" cy="-58" r="5"/><circle cx="460" cy="-73" r="5"/><circle cx="241" cy="177" r="5"/><circle cx="256" cy="162" r="5"/><circle cx="270" cy="147" r="5"/><circle cx="285" cy="133" r="5"/><circle cx="299" cy="118" r="5"/><circle cx="314" cy="104" r="5"/><circle cx="328" cy="89" r="5"/><circle cx="343" cy="74" r="5"/><circle cx="358" cy="60" r="5"/><circle cx="372" cy="45" r="5"/><circle cx="387" cy="30" r="5"/><circle cx="402" cy="16" r="5"/><circle cx="416" cy="1" r="5"/><circle cx="431" cy="-14" r="5"/><circle cx="446" cy="-28" r="5"/><circle cx="460" cy="-43" r="5"/><circle cx="475" cy="-57" r="5"/><circle cx="489" cy="-72" r="5"/><circle cx="504" cy="-86" r="5"/><circle cx="519" cy="-101" r="5"/><circle cx="533" cy="-116" r="5"/><circle cx="548" cy="-131" r="5"/><circle cx="563" cy="-145" r="5"/><circle cx="255" cy="191" r="5"/><circle cx="270" cy="176" r="5"/><circle cx="285" cy="162" r="5"/><circle cx="299" cy="147" r="5"/><circle cx="314" cy="133" r="5"/><circle cx="328" cy="118" r="5"/><circle cx="343" cy="104" r="5"/><circle cx="358" cy="89" r="5"/><circle cx="372" cy="74" r="5"/><circle cx="387" cy="60" r="5"/><circle cx="402" cy="45" r="5"/><circle cx="416" cy="30" r="5"/><circle cx="431" cy="16" r="5"/><circle cx="446" cy="1" r="5"/><circle cx="460" cy="-14" r="5"/><circle cx="475" cy="-28" r="5"/><circle cx="489" cy="-43" r="5"/><circle cx="504" cy="-57" r="5"/><circle cx="518" cy="-72" r="5"/><circle cx="533" cy="-87" r="5"/><circle cx="548" cy="-101" r="5"/><circle cx="563" cy="-116" r="5"/><circle cx="577" cy="-131" r="5"/><circle cx="270" cy="206" r="5"/><circle cx="285" cy="191" r="5"/><circle cx="299" cy="176" r="5"/><circle cx="314" cy="162" r="5"/><circle cx="328" cy="147" r="5"/><circle cx="343" cy="133" r="5"/><circle cx="357" cy="118" r="5"/><circle cx="372" cy="103" r="5"/><circle cx="387" cy="89" r="5"/><circle cx="402" cy="74" r="5"/><circle cx="416" cy="60" r="5"/><circle cx="431" cy="45" r="5"/><circle cx="445" cy="30" r="5"/><circle cx="460" cy="15" r="5"/><circle cx="475" cy="1" r="5"/><circle cx="489" cy="-14" r="5"/><circle cx="504" cy="-28" r="5"/><circle cx="518" cy="-43" r="5"/><circle cx="533" cy="-57" r="5"/><circle cx="548" cy="-72" r="5"/><circle cx="563" cy="-87" r="5"/><circle cx="577" cy="-101" r="5"/><circle cx="592" cy="-116" r="5"/><circle cx="284" cy="221" r="5"/><circle cx="299" cy="206" r="5"/><circle cx="314" cy="191" r="5"/><circle cx="328" cy="176" r="5"/><circle cx="343" cy="162" r="5"/><circle cx="357" cy="147" r="5"/><circle cx="372" cy="133" r="5"/><circle cx="387" cy="118" r="5"/><circle cx="402" cy="103" r="5"/><circle cx="416" cy="89" r="5"/><circle cx="431" cy="74" r="5"/><circle cx="445" cy="60" r="5"/><circle cx="460" cy="45" r="5"/><circle cx="475" cy="30" r="5"/><circle cx="489" cy="15" r="5"/><circle cx="504" cy="1" r="5"/><circle cx="518" cy="-14" r="5"/><circle cx="533" cy="-28" r="5"/><circle cx="548" cy="-43" r="5"/><circle cx="563" cy="-58" r="5"/><circle cx="577" cy="-72" r="5"/><circle cx="592" cy="-87" r="5"/><circle cx="606" cy="-101" r="5"/><circle cx="577" cy="-160" r="5"/><circle cx="592" cy="-175" r="5"/><circle cx="592" cy="-145" r="5"/><circle cx="607" cy="-160" r="5"/><circle cx="606" cy="-131" r="5"/><circle cx="621" cy="-146" r="5"/><circle cx="621" cy="-116" r="5"/><circle cx="636" cy="-131" r="5"/><circle cx="299" cy="235" r="5"/><circle cx="314" cy="220" r="5"/><circle cx="328" cy="206" r="5"/><circle cx="343" cy="191" r="5"/><circle cx="357" cy="176" r="5"/><circle cx="372" cy="162" r="5"/><circle cx="387" cy="147" r="5"/><circle cx="402" cy="132" r="5"/><circle cx="416" cy="118" r="5"/><circle cx="431" cy="103" r="5"/><circle cx="445" cy="89" r="5"/><circle cx="460" cy="74" r="5"/><circle cx="474" cy="60" r="5"/><circle cx="489" cy="45" r="5"/><circle cx="504" cy="30" r="5"/><circle cx="518" cy="15" r="5"/><circle cx="533" cy="1" r="5"/><circle cx="548" cy="-14" r="5"/><circle cx="562" cy="-28" r="5"/><circle cx="577" cy="-43" r="5"/><circle cx="592" cy="-58" r="5"/><circle cx="606" cy="-72" r="5"/><circle cx="621" cy="-87" r="5"/><circle cx="313" cy="250" r="5"/><circle cx="328" cy="235" r="5"/><circle cx="343" cy="220" r="5"/><circle cx="357" cy="206" r="5"/><circle cx="372" cy="191" r="5"/><circle cx="387" cy="176" r="5"/><circle cx="401" cy="162" r="5"/><circle cx="416" cy="147" r="5"/><circle cx="431" cy="132" r="5"/><circle cx="445" cy="118" r="5"/><circle cx="460" cy="103" r="5"/><circle cx="474" cy="89" r="5"/><circle cx="489" cy="74" r="5"/><circle cx="504" cy="59" r="5"/><circle cx="518" cy="45" r="5"/><circle cx="533" cy="30" r="5"/><circle cx="548" cy="15" r="5"/><circle cx="562" cy="1" r="5"/><circle cx="577" cy="-14" r="5"/><circle cx="592" cy="-29" r="5"/><circle cx="606" cy="-43" r="5"/><circle cx="621" cy="-58" r="5"/><circle cx="635" cy="-72" r="5"/><circle cx="328" cy="264" r="5"/><circle cx="343" cy="249" r="5"/><circle cx="357" cy="235" r="5"/><circle cx="372" cy="220" r="5"/><circle cx="387" cy="206" r="5"/><circle cx="401" cy="191" r="5"/><circle cx="416" cy="176" r="5"/><circle cx="431" cy="161" r="5"/><circle cx="445" cy="147" r="5"/><circle cx="460" cy="132" r="5"/><circle cx="474" cy="118" r="5"/><circle cx="489" cy="103" r="5"/><circle cx="504" cy="89" r="5"/><circle cx="518" cy="74" r="5"/><circle cx="533" cy="59" r="5"/><circle cx="548" cy="45" r="5"/><circle cx="562" cy="30" r="5"/><circle cx="577" cy="15" r="5"/><circle cx="591" cy="1" r="5"/><circle cx="606" cy="-14" r="5"/><circle cx="621" cy="-29" r="5"/><circle cx="635" cy="-43" r="5"/><circle cx="650" cy="-58" r="5"/><circle cx="343" cy="279" r="5"/><circle cx="357" cy="264" r="5"/><circle cx="372" cy="249" r="5"/><circle cx="387" cy="235" r="5"/><circle cx="401" cy="220" r="5"/><circle cx="416" cy="206" r="5"/><circle cx="430" cy="191" r="5"/><circle cx="445" cy="176" r="5"/><circle cx="460" cy="161" r="5"/><circle cx="474" cy="147" r="5"/><circle cx="489" cy="132" r="5"/><circle cx="504" cy="118" r="5"/><circle cx="518" cy="103" r="5"/><circle cx="533" cy="88" r="5"/><circle cx="548" cy="74" r="5"/><circle cx="562" cy="59" r="5"/><circle cx="577" cy="45" r="5"/><circle cx="591" cy="30" r="5"/><circle cx="606" cy="15" r="5"/><circle cx="621" r="5"/><circle cx="635" cy="-14" r="5"/><circle cx="650" cy="-29" r="5"/><circle cx="665" cy="-43" r="5"/><circle cx="635" cy="-101" r="5"/><circle cx="650" cy="-116" r="5"/><circle cx="650" cy="-87" r="5"/><circle cx="665" cy="-102" r="5"/><circle cx="665" cy="-72" r="5"/><circle cx="679" cy="-87" r="5"/><circle cx="679" cy="-58" r="5"/><circle cx="694" cy="-73" r="5"/><circle cx="474" cy="177" r="5"/><circle cx="489" cy="162" r="5"/><circle cx="504" cy="147" r="5"/><circle cx="518" cy="133" r="5"/><circle cx="533" cy="118" r="5"/><circle cx="548" cy="104" r="5"/><circle cx="562" cy="89" r="5"/><circle cx="577" cy="74" r="5"/><circle cx="592" cy="60" r="5"/><circle cx="606" cy="45" r="5"/><circle cx="621" cy="30" r="5"/><circle cx="635" cy="16" r="5"/><circle cx="650" cy="1" r="5"/><circle cx="665" cy="-14" r="5"/><circle cx="679" cy="-28" r="5"/><circle cx="694" cy="-43" r="5"/><circle cx="709" cy="-57" r="5"/><circle cx="723" cy="-72" r="5"/><circle cx="738" cy="-86" r="5"/><circle cx="753" cy="-101" r="5"/><circle cx="767" cy="-116" r="5"/><circle cx="782" cy="-131" r="5"/><circle cx="796" cy="-145" r="5"/><circle cx="489" cy="191" r="5"/><circle cx="504" cy="176" r="5"/><circle cx="518" cy="162" r="5"/><circle cx="533" cy="147" r="5"/><circle cx="548" cy="133" r="5"/><circle cx="562" cy="118" r="5"/><circle cx="577" cy="104" r="5"/><circle cx="592" cy="89" r="5"/><circle cx="606" cy="74" r="5"/><circle cx="621" cy="60" r="5"/><circle cx="635" cy="45" r="5"/><circle cx="650" cy="30" r="5"/><circle cx="665" cy="16" r="5"/><circle cx="679" cy="1" r="5"/><circle cx="694" cy="-14" r="5"/><circle cx="709" cy="-28" r="5"/><circle cx="723" cy="-43" r="5"/><circle cx="738" cy="-57" r="5"/><circle cx="752" cy="-72" r="5"/><circle cx="767" cy="-87" r="5"/><circle cx="782" cy="-101" r="5"/><circle cx="796" cy="-116" r="5"/><circle cx="811" cy="-131" r="5"/><circle cx="504" cy="206" r="5"/><circle cx="518" cy="191" r="5"/><circle cx="533" cy="176" r="5"/><circle cx="548" cy="162" r="5"/><circle cx="562" cy="147" r="5"/><circle cx="577" cy="133" r="5"/><circle cx="591" cy="118" r="5"/><circle cx="606" cy="103" r="5"/><circle cx="621" cy="89" r="5"/><circle cx="635" cy="74" r="5"/><circle cx="650" cy="60" r="5"/><circle cx="665" cy="45" r="5"/><circle cx="679" cy="30" r="5"/><circle cx="694" cy="15" r="5"/><circle cx="709" cy="1" r="5"/><circle cx="723" cy="-14" r="5"/><circle cx="738" cy="-28" r="5"/><circle cx="752" cy="-43" r="5"/><circle cx="767" cy="-57" r="5"/><circle cx="782" cy="-72" r="5"/><circle cx="796" cy="-87" r="5"/><circle cx="811" cy="-101" r="5"/><circle cx="826" cy="-116" r="5"/><circle cx="518" cy="221" r="5"/><circle cx="533" cy="206" r="5"/><circle cx="548" cy="191" r="5"/><circle cx="562" cy="176" r="5"/><circle cx="577" cy="162" r="5"/><circle cx="591" cy="147" r="5"/><circle cx="606" cy="133" r="5"/><circle cx="621" cy="118" r="5"/><circle cx="635" cy="103" r="5"/><circle cx="650" cy="89" r="5"/><circle cx="665" cy="74" r="5"/><circle cx="679" cy="60" r="5"/><circle cx="694" cy="45" r="5"/><circle cx="709" cy="30" r="5"/><circle cx="723" cy="15" r="5"/><circle cx="738" cy="1" r="5"/><circle cx="752" cy="-14" r="5"/><circle cx="767" cy="-28" r="5"/><circle cx="781" cy="-43" r="5"/><circle cx="796" cy="-58" r="5"/><circle cx="811" cy="-72" r="5"/><circle cx="826" cy="-87" r="5"/><circle cx="840" cy="-101" r="5"/><circle cx="811" cy="-160" r="5"/><circle cx="826" cy="-175" r="5"/><circle cx="826" cy="-145" r="5"/><circle cx="840" cy="-160" r="5"/><circle cx="840" cy="-131" r="5"/><circle cx="855" cy="-146" r="5"/><circle cx="855" cy="-116" r="5"/><circle cx="870" cy="-131" r="5"/><circle cx="533" cy="235" r="5"/><circle cx="548" cy="220" r="5"/><circle cx="562" cy="206" r="5"/><circle cx="577" cy="191" r="5"/><circle cx="591" cy="176" r="5"/><circle cx="606" cy="162" r="5"/><circle cx="620" cy="147" r="5"/><circle cx="635" cy="132" r="5"/><circle cx="650" cy="118" r="5"/><circle cx="665" cy="103" r="5"/><circle cx="679" cy="89" r="5"/><circle cx="694" cy="74" r="5"/><circle cx="708" cy="60" r="5"/><circle cx="723" cy="45" r="5"/><circle cx="738" cy="30" r="5"/><circle cx="752" cy="15" r="5"/><circle cx="767" cy="1" r="5"/><circle cx="781" cy="-14" r="5"/><circle cx="796" cy="-28" r="5"/><circle cx="811" cy="-43" r="5"/><circle cx="826" cy="-58" r="5"/><circle cx="840" cy="-72" r="5"/><circle cx="855" cy="-87" r="5"/><circle cx="547" cy="250" r="5"/><circle cx="562" cy="235" r="5"/><circle cx="577" cy="220" r="5"/><circle cx="591" cy="206" r="5"/><circle cx="606" cy="191" r="5"/><circle cx="620" cy="176" r="5"/><circle cx="635" cy="162" r="5"/><circle cx="650" cy="147" r="5"/><circle cx="665" cy="132" r="5"/><circle cx="679" cy="118" r="5"/><circle cx="694" cy="103" r="5"/><circle cx="708" cy="89" r="5"/><circle cx="723" cy="74" r="5"/><circle cx="738" cy="59" r="5"/><circle cx="752" cy="45" r="5"/><circle cx="767" cy="30" r="5"/><circle cx="781" cy="15" r="5"/><circle cx="796" cy="1" r="5"/><circle cx="811" cy="-14" r="5"/><circle cx="826" cy="-29" r="5"/><circle cx="840" cy="-43" r="5"/><circle cx="855" cy="-58" r="5"/><circle cx="869" cy="-72" r="5"/><circle cx="562" cy="264" r="5"/><circle cx="577" cy="249" r="5"/><circle cx="591" cy="235" r="5"/><circle cx="606" cy="220" r="5"/><circle cx="620" cy="206" r="5"/><circle cx="635" cy="191" r="5"/><circle cx="650" cy="176" r="5"/><circle cx="665" cy="161" r="5"/><circle cx="679" cy="147" r="5"/><circle cx="694" cy="132" r="5"/><circle cx="708" cy="118" r="5"/><circle cx="723" cy="103" r="5"/><circle cx="737" cy="89" r="5"/><circle cx="752" cy="74" r="5"/><circle cx="767" cy="59" r="5"/><circle cx="781" cy="45" r="5"/><circle cx="796" cy="30" r="5"/><circle cx="811" cy="15" r="5"/><circle cx="825" cy="1" r="5"/><circle cx="840" cy="-14" r="5"/><circle cx="855" cy="-29" r="5"/><circle cx="869" cy="-43" r="5"/><circle cx="884" cy="-58" r="5"/><circle cx="576" cy="279" r="5"/><circle cx="591" cy="264" r="5"/><circle cx="606" cy="249" r="5"/><circle cx="620" cy="235" r="5"/><circle cx="635" cy="220" r="5"/><circle cx="650" cy="206" r="5"/><circle cx="664" cy="191" r="5"/><circle cx="679" cy="176" r="5"/><circle cx="694" cy="161" r="5"/><circle cx="708" cy="147" r="5"/><circle cx="723" cy="132" r="5"/><circle cx="737" cy="118" r="5"/><circle cx="752" cy="103" r="5"/><circle cx="767" cy="88" r="5"/><circle cx="781" cy="74" r="5"/><circle cx="796" cy="59" r="5"/><circle cx="811" cy="45" r="5"/><circle cx="825" cy="30" r="5"/><circle cx="840" cy="15" r="5"/><circle cx="855" r="5"/><circle cx="869" cy="-14" r="5"/><circle cx="884" cy="-29" r="5"/><circle cx="898" cy="-43" r="5"/><circle cx="869" cy="-101" r="5"/><circle cx="884" cy="-116" r="5"/><circle cx="884" cy="-87" r="5"/><circle cx="899" cy="-102" r="5"/><circle cx="898" cy="-72" r="5"/><circle cx="913" cy="-87" r="5"/><circle cx="913" cy="-58" r="5"/><circle cx="928" cy="-73" r="5"/></g></svg>