<svg enable-background="new 0 0 320 119" viewBox="0 0 320 119" xmlns="http://www.w3.org/2000/svg" xmlns:xlink="http://www.w3.org/1999/xlink"><clipPath id="a"><path d="m0 0h320v119h-320z"/></clipPath><g clip-path="url(#a)" fill="#b47a02" opacity=".3"><circle cx="-228" cy="178" r="5"/><circle cx="-213" cy="163" r="5"/><circle cx="-198" cy="148" r="5"/><circle cx="-184" cy="133" r="5"/><circle cx="-169" cy="119" r="5"/><circle cx="-155" cy="104" r="5"/><circle cx="-140" cy="90" r="5"/><circle cx="-125" cy="75" r="5"/><circle cx="-110" cy="60" r="5"/><circle cx="-96" cy="46" r="5"/><circle cx="-81" cy="31" r="5"/><circle cx="-67" cy="17" r="5"/><circle cx="-52" cy="2" r="5"/><circle cx="-37" cy="-13" r="5"/><circle cx="-23" cy="-28" r="5"/><circle cx="-8" cy="-42" r="5"/><circle cx="6" cy="-57" r="5"/><circle cx="21" cy="-71" r="5"/><circle cx="36" cy="-86" r="5"/><circle cx="51" cy="-101" r="5"/><circle cx="65" cy="-115" r="5"/><circle cx="80" cy="-130" r="5"/><circle cx="94" cy="-144" r="5"/><circle cx="-213" cy="192" r="5"/><circle cx="-198" cy="177" r="5"/><circle cx="-184" cy="163" r="5"/><circle cx="-169" cy="148" r="5"/><circle cx="-155" cy="133" r="5"/><circle cx="-140" cy="119" r="5"/><circle cx="-125" cy="104" r="5"/><circle cx="-110" cy="89" r="5"/><circle cx="-96" cy="75" r="5"/><circle cx="-81" cy="60" r="5"/><circle cx="-67" cy="46" r="5"/><circle cx="-52" cy="31" r="5"/><circle cx="-38" cy="17" r="5"/><circle cx="-23" cy="2" r="5"/><circle cx="-8" cy="-13" r="5"/><circle cx="6" cy="-28" r="5"/><circle cx="21" cy="-42" r="5"/><circle cx="36" cy="-57" r="5"/><circle cx="50" cy="-71" r="5"/><circle cx="65" cy="-86" r="5"/><circle cx="80" cy="-101" r="5"/><circle cx="94" cy="-115" r="5"/><circle cx="109" cy="-130" r="5"/><circle cx="-199" cy="207" r="5"/><circle cx="-184" cy="192" r="5"/><circle cx="-169" cy="177" r="5"/><circle cx="-155" cy="163" r="5"/><circle cx="-140" cy="148" r="5"/><circle cx="-125" cy="133" r="5"/><circle cx="-111" cy="119" r="5"/><circle cx="-96" cy="104" r="5"/><circle cx="-81" cy="89" r="5"/><circle cx="-67" cy="75" r="5"/><circle cx="-52" cy="60" r="5"/><circle cx="-38" cy="46" r="5"/><circle cx="-23" cy="31" r="5"/><circle cx="-8" cy="16" r="5"/><circle cx="6" cy="2" r="5"/><circle cx="21" cy="-13" r="5"/><circle cx="36" cy="-28" r="5"/><circle cx="50" cy="-42" r="5"/><circle cx="65" cy="-57" r="5"/><circle cx="80" cy="-72" r="5"/><circle cx="94" cy="-86" r="5"/><circle cx="109" cy="-101" r="5"/><circle cx="123" cy="-115" r="5"/><circle cx="-184" cy="221" r="5"/><circle cx="-169" cy="206" r="5"/><circle cx="-155" cy="192" r="5"/><circle cx="-140" cy="177" r="5"/><circle cx="-125" cy="163" r="5"/><circle cx="-111" cy="148" r="5"/><circle cx="-96" cy="133" r="5"/><circle cx="-81" cy="118" r="5"/><circle cx="-67" cy="104" r="5"/><circle cx="-52" cy="89" r="5"/><circle cx="-38" cy="75" r="5"/><circle cx="-23" cy="60" r="5"/><circle cx="-8" cy="46" r="5"/><circle cx="6" cy="31" r="5"/><circle cx="21" cy="16" r="5"/><circle cx="36" cy="2" r="5"/><circle cx="50" cy="-13" r="5"/><circle cx="65" cy="-28" r="5"/><circle cx="79" cy="-42" r="5"/><circle cx="94" cy="-57" r="5"/><circle cx="109" cy="-72" r="5"/><circle cx="123" cy="-86" r="5"/><circle cx="138" cy="-101" r="5"/><circle cx="109" cy="-159" r="5"/><circle cx="124" cy="-174" r="5"/><circle cx="123" cy="-144" r="5"/><circle cx="138" cy="-159" r="5"/><circle cx="138" cy="-130" r="5"/><circle cx="153" cy="-145" r="5"/><circle cx="153" cy="-115" r="5"/><circle cx="167" cy="-130" r="5"/><circle cx="-169" cy="236" r="5"/><circle cx="-155" cy="221" r="5"/><circle cx="-140" cy="206" r="5"/><circle cx="-125" cy="192" r="5"/><circle cx="-111" cy="177" r="5"/><circle cx="-96" cy="163" r="5"/><circle cx="-82" cy="148" r="5"/><circle cx="-67" cy="133" r="5"/><circle cx="-52" cy="118" r="5"/><circle cx="-38" cy="104" r="5"/><circle cx="-23" cy="89" r="5"/><circle cx="-8" cy="75" r="5"/><circle cx="6" cy="60" r="5"/><circle cx="21" cy="45" r="5"/><circle cx="36" cy="31" r="5"/><circle cx="50" cy="16" r="5"/><circle cx="65" cy="2" r="5"/><circle cx="79" cy="-13" r="5"/><circle cx="94" cy="-28" r="5"/><circle cx="109" cy="-43" r="5"/><circle cx="123" cy="-57" r="5"/><circle cx="138" cy="-72" r="5"/><circle cx="153" cy="-86" r="5"/><circle cx="-155" cy="250" r="5"/><circle cx="-140" cy="235" r="5"/><circle cx="-125" cy="221" r="5"/><circle cx="-111" cy="206" r="5"/><circle cx="-96" cy="192" r="5"/><circle cx="-82" cy="177" r="5"/><circle cx="-67" cy="163" r="5"/><circle cx="-52" cy="148" r="5"/><circle cx="-38" cy="133" r="5"/><circle cx="-23" cy="118" r="5"/><circle cx="-8" cy="104" r="5"/><circle cx="6" cy="89" r="5"/><circle cx="21" cy="75" r="5"/><circle cx="36" cy="60" r="5"/><circle cx="50" cy="45" r="5"/><circle cx="65" cy="31" r="5"/><circle cx="79" cy="16" r="5"/><circle cx="94" cy="2" r="5"/><circle cx="108" cy="-13" r="5"/><circle cx="123" cy="-28" r="5"/><circle cx="138" cy="-43" r="5"/><circle cx="153" cy="-57" r="5"/><circle cx="167" cy="-72" r="5"/><circle cx="-140" cy="265" r="5"/><circle cx="-125" cy="250" r="5"/><circle cx="-111" cy="235" r="5"/><circle cx="-96" cy="221" r="5"/><circle cx="-82" cy="206" r="5"/><circle cx="-67" cy="192" r="5"/><circle cx="-53" cy="177" r="5"/><circle cx="-38" cy="162" r="5"/><circle cx="-23" cy="148" r="5"/><circle cx="-8" cy="133" r="5"/><circle cx="6" cy="118" r="5"/><circle cx="21" cy="104" r="5"/><circle cx="35" cy="89" r="5"/><circle cx="50" cy="74" r="5"/><circle cx="65" cy="60" r="5"/><circle cx="79" cy="45" r="5"/><circle cx="94" cy="31" r="5"/><circle cx="108" cy="16" r="5"/><circle cx="123" cy="2" r="5"/><circle cx="138" cy="-13" r="5"/><circle cx="153" cy="-28" r="5"/><circle cx="167" cy="-43" r="5"/><circle cx="182" cy="-57" r="5"/><circle cx="-126" cy="279" r="5"/><circle cx="-111" cy="265" r="5"/><circle cx="-96" cy="250" r="5"/><circle cx="-82" cy="235" r="5"/><circle cx="-67" cy="221" r="5"/><circle cx="-53" cy="206" r="5"/><circle cx="-38" cy="192" r="5"/><circle cx="-23" cy="177" r="5"/><circle cx="-8" cy="162" r="5"/><circle cx="6" cy="148" r="5"/><circle cx="21" cy="133" r="5"/><circle cx="35" cy="118" r="5"/><circle cx="50" cy="104" r="5"/><circle cx="65" cy="89" r="5"/><circle cx="79" cy="74" r="5"/><circle cx="94" cy="60" r="5"/><circle cx="108" cy="45" r="5"/><circle cx="123" cy="31" r="5"/><circle cx="138" cy="16" r="5"/><circle cx="153" cy="1" r="5"/><circle cx="167" cy="-13" r="5"/><circle cx="182" cy="-28" r="5"/><circle cx="196" cy="-43" r="5"/><circle cx="167" cy="-101" r="5"/><circle cx="182" cy="-116" r="5"/><circle cx="182" cy="-86" r="5"/><circle cx="197" cy="-101" r="5"/><circle cx="196" cy="-72" r="5"/><circle cx="211" cy="-87" r="5"/><circle cx="211" cy="-57" r="5"/><circle cx="226" cy="-72" r="5"/><circle cx="6" cy="178" r="5"/><circle cx="21" cy="163" r="5"/><circle cx="36" cy="148" r="5"/><circle cx="51" cy="133" r="5"/><circle cx="65" cy="119" r="5"/><circle cx="80" cy="104" r="5"/><circle cx="94" cy="90" r="5"/><circle cx="109" cy="75" r="5"/><circle cx="124" cy="60" r="5"/><circle cx="138" cy="46" r="5"/><circle cx="153" cy="31" r="5"/><circle cx="167" cy="17" r="5"/><circle cx="182" cy="2" r="5"/><circle cx="197" cy="-13" r="5"/><circle cx="212" cy="-28" r="5"/><circle cx="226" cy="-42" r="5"/><circle cx="241" cy="-57" r="5"/><circle cx="255" cy="-71" r="5"/><circle cx="270" cy="-86" r="5"/><circle cx="285" cy="-101" r="5"/><circle cx="299" cy="-115" r="5"/><circle cx="314" cy="-130" r="5"/><circle cx="328" cy="-144" r="5"/><circle cx="21" cy="192" r="5"/><circle cx="36" cy="177" r="5"/><circle cx="51" cy="163" r="5"/><circle cx="65" cy="148" r="5"/><circle cx="80" cy="133" r="5"/><circle cx="94" cy="119" r="5"/><circle cx="109" cy="104" r="5"/><circle cx="124" cy="89" r="5"/><circle cx="138" cy="75" r="5"/><circle cx="153" cy="60" r="5"/><circle cx="167" cy="46" r="5"/><circle cx="182" cy="31" r="5"/><circle cx="197" cy="17" r="5"/><circle cx="212" cy="2" r="5"/><circle cx="226" cy="-13" r="5"/><circle cx="241" cy="-28" r="5"/><circle cx="255" cy="-42" r="5"/><circle cx="270" cy="-57" r="5"/><circle cx="284" cy="-71" r="5"/><circle cx="299" cy="-86" r="5"/><circle cx="314" cy="-101" r="5"/><circle cx="328" cy="-115" r="5"/><circle cx="343" cy="-130" r="5"/><circle cx="36" cy="207" r="5"/><circle cx="51" cy="192" r="5"/><circle cx="65" cy="177" r="5"/><circle cx="80" cy="163" r="5"/><circle cx="94" cy="148" r="5"/><circle cx="109" cy="133" r="5"/><circle cx="123" cy="119" r="5"/><circle cx="138" cy="104" r="5"/><circle cx="153" cy="89" r="5"/><circle cx="167" cy="75" r="5"/><circle cx="182" cy="60" r="5"/><circle cx="197" cy="46" r="5"/><circle cx="211" cy="31" r="5"/><circle cx="226" cy="16" r="5"/><circle cx="241" cy="2" r="5"/><circle cx="255" cy="-13" r="5"/><circle cx="270" cy="-28" r="5"/><circle cx="284" cy="-42" r="5"/><circle cx="299" cy="-57" r="5"/><circle cx="314" cy="-72" r="5"/><circle cx="328" cy="-86" r="5"/><circle cx="343" cy="-101" r="5"/><circle cx="358" cy="-115" r="5"/><circle cx="50" cy="221" r="5"/><circle cx="65" cy="206" r="5"/><circle cx="80" cy="192" r="5"/><circle cx="94" cy="177" r="5"/><circle cx="109" cy="163" r="5"/><circle cx="123" cy="148" r="5"/><circle cx="138" cy="133" r="5"/><circle cx="153" cy="118" r="5"/><circle cx="167" cy="104" r="5"/><circle cx="182" cy="89" r="5"/><circle cx="197" cy="75" r="5"/><circle cx="211" cy="60" r="5"/><circle cx="226" cy="46" r="5"/><circle cx="241" cy="31" r="5"/><circle cx="255" cy="16" r="5"/><circle cx="270" cy="2" r="5"/><circle cx="284" cy="-13" r="5"/><circle cx="299" cy="-28" r="5"/><circle cx="314" cy="-42" r="5"/><circle cx="328" cy="-57" r="5"/><circle cx="343" cy="-72" r="5"/><circle cx="358" cy="-86" r="5"/><circle cx="372" cy="-101" r="5"/><circle cx="343" cy="-159" r="5"/><circle cx="358" cy="-174" r="5"/><circle cx="358" cy="-144" r="5"/><circle cx="373" cy="-159" r="5"/><circle cx="372" cy="-130" r="5"/><circle cx="387" cy="-145" r="5"/><circle cx="387" cy="-115" r="5"/><circle cx="402" cy="-130" r="5"/><circle cx="65" cy="236" r="5"/><circle cx="80" cy="221" r="5"/><circle cx="94" cy="206" r="5"/><circle cx="109" cy="192" r="5"/><circle cx="123" cy="177" r="5"/><circle cx="138" cy="163" r="5"/><circle cx="153" cy="148" r="5"/><circle cx="167" cy="133" r="5"/><circle cx="182" cy="118" r="5"/><circle cx="197" cy="104" r="5"/><circle cx="211" cy="89" r="5"/><circle cx="226" cy="75" r="5"/><circle cx="240" cy="60" r="5"/><circle cx="255" cy="45" r="5"/><circle cx="270" cy="31" r="5"/><circle cx="284" cy="16" r="5"/><circle cx="299" cy="2" r="5"/><circle cx="314" cy="-13" r="5"/><circle cx="328" cy="-28" r="5"/><circle cx="343" cy="-43" r="5"/><circle cx="358" cy="-57" r="5"/><circle cx="372" cy="-72" r="5"/><circle cx="387" cy="-86" r="5"/><circle cx="79" cy="250" r="5"/><circle cx="94" cy="235" r="5"/><circle cx="109" cy="221" r="5"/><circle cx="123" cy="206" r="5"/><circle cx="138" cy="192" r="5"/><circle cx="153" cy="177" r="5"/><circle cx="167" cy="163" r="5"/><circle cx="182" cy="148" r="5"/><circle cx="197" cy="133" r="5"/><circle cx="211" cy="118" r="5"/><circle cx="226" cy="104" r="5"/><circle cx="240" cy="89" r="5"/><circle cx="255" cy="75" r="5"/><circle cx="270" cy="60" r="5"/><circle cx="284" cy="45" r="5"/><circle cx="299" cy="31" r="5"/><circle cx="314" cy="16" r="5"/><circle cx="328" cy="2" r="5"/><circle cx="343" cy="-13" r="5"/><circle cx="358" cy="-28" r="5"/><circle cx="372" cy="-43" r="5"/><circle cx="387" cy="-57" r="5"/><circle cx="401" cy="-72" r="5"/><circle cx="94" cy="265" r="5"/><circle cx="109" cy="250" r="5"/><circle cx="123" cy="235" r="5"/><circle cx="138" cy="221" r="5"/><circle cx="153" cy="206" r="5"/><circle cx="167" cy="192" r="5"/><circle cx="182" cy="177" r="5"/><circle cx="197" cy="162" r="5"/><circle cx="211" cy="148" r="5"/><circle cx="226" cy="133" r="5"/><circle cx="240" cy="118" r="5"/><circle cx="255" cy="104" r="5"/><circle cx="269" cy="89" r="5"/><circle cx="284" cy="74" r="5"/><circle cx="299" cy="60" r="5"/><circle cx="314" cy="45" r="5"/><circle cx="328" cy="31" r="5"/><circle cx="343" cy="16" r="5"/><circle cx="357" cy="2" r="5"/><circle cx="372" cy="-13" r="5"/><circle cx="387" cy="-28" r="5"/><circle cx="401" cy="-43" r="5"/><circle cx="416" cy="-57" r="5"/><circle cx="108" cy="279" r="5"/><circle cx="123" cy="265" r="5"/><circle cx="138" cy="250" r="5"/><circle cx="153" cy="235" r="5"/><circle cx="167" cy="221" r="5"/><circle cx="182" cy="206" r="5"/><circle cx="196" cy="192" r="5"/><circle cx="211" cy="177" r="5"/><circle cx="226" cy="162" r="5"/><circle cx="240" cy="148" r="5"/><circle cx="255" cy="133" r="5"/><circle cx="269" cy="118" r="5"/><circle cx="284" cy="104" r="5"/><circle cx="299" cy="89" r="5"/><circle cx="314" cy="74" r="5"/><circle cx="328" cy="60" r="5"/><circle cx="343" cy="45" r="5"/><circle cx="357" cy="31" r="5"/><circle cx="372" cy="16" r="5"/><circle cx="387" cy="1" r="5"/><circle cx="401" cy="-13" r="5"/><circle cx="416" cy="-28" r="5"/><circle cx="430" cy="-43" r="5"/><circle cx="401" cy="-101" r="5"/><circle cx="416" cy="-116" r="5"/><circle cx="416" cy="-86" r="5"/><circle cx="431" cy="-101" r="5"/><circle cx="430" cy="-72" r="5"/><circle cx="445" cy="-87" r="5"/><circle cx="445" cy="-57" r="5"/><circle cx="460" cy="-72" r="5"/><circle cx="240" cy="178" r="5"/><circle cx="255" cy="163" r="5"/><circle cx="270" cy="148" r="5"/><circle cx="284" cy="133" r="5"/><circle cx="299" cy="119" r="5"/><circle cx="314" cy="104" r="5"/><circle cx="328" cy="90" r="5"/><circle cx="343" cy="75" r="5"/><circle cx="358" cy="60" r="5"/><circle cx="372" cy="46" r="5"/><circle cx="387" cy="31" r="5"/><circle cx="401" cy="17" r="5"/><circle cx="416" cy="2" r="5"/><circle cx="431" cy="-13" r="5"/><circle cx="445" cy="-28" r="5"/><circle cx="460" cy="-42" r="5"/><circle cx="475" cy="-57" r="5"/><circle cx="489" cy="-71" r="5"/><circle cx="504" cy="-86" r="5"/><circle cx="519" cy="-101" r="5"/><circle cx="533" cy="-115" r="5"/><circle cx="548" cy="-130" r="5"/><circle cx="562" cy="-144" r="5"/><circle cx="255" cy="192" r="5"/><circle cx="270" cy="177" r="5"/><circle cx="284" cy="163" r="5"/><circle cx="299" cy="148" r="5"/><circle cx="314" cy="133" r="5"/><circle cx="328" cy="119" r="5"/><circle cx="343" cy="104" r="5"/><circle cx="358" cy="89" r="5"/><circle cx="372" cy="75" r="5"/><circle cx="387" cy="60" r="5"/><circle cx="401" cy="46" r="5"/><circle cx="416" cy="31" r="5"/><circle cx="430" cy="17" r="5"/><circle cx="445" cy="2" r="5"/><circle cx="460" cy="-13" r="5"/><circle cx="475" cy="-28" r="5"/><circle cx="489" cy="-42" r="5"/><circle cx="504" cy="-57" r="5"/><circle cx="518" cy="-71" r="5"/><circle cx="533" cy="-86" r="5"/><circle cx="548" cy="-101" r="5"/><circle cx="562" cy="-115" r="5"/><circle cx="577" cy="-130" r="5"/><circle cx="269" cy="207" r="5"/><circle cx="284" cy="192" r="5"/><circle cx="299" cy="177" r="5"/><circle cx="314" cy="163" r="5"/><circle cx="328" cy="148" r="5"/><circle cx="343" cy="133" r="5"/><circle cx="357" cy="119" r="5"/><circle cx="372" cy="104" r="5"/><circle cx="387" cy="89" r="5"/><circle cx="401" cy="75" r="5"/><circle cx="416" cy="60" r="5"/><circle cx="430" cy="46" r="5"/><circle cx="445" cy="31" r="5"/><circle cx="460" cy="16" r="5"/><circle cx="475" cy="2" r="5"/><circle cx="489" cy="-13" r="5"/><circle cx="504" cy="-28" r="5"/><circle cx="518" cy="-42" r="5"/><circle cx="533" cy="-57" r="5"/><circle cx="548" cy="-72" r="5"/><circle cx="562" cy="-86" r="5"/><circle cx="577" cy="-101" r="5"/><circle cx="591" cy="-115" r="5"/><circle cx="284" cy="221" r="5"/><circle cx="299" cy="206" r="5"/><circle cx="314" cy="192" r="5"/><circle cx="328" cy="177" r="5"/><circle cx="343" cy="163" r="5"/><circle cx="357" cy="148" r="5"/><circle cx="372" cy="133" r="5"/><circle cx="387" cy="118" r="5"/><circle cx="401" cy="104" r="5"/><circle cx="416" cy="89" r="5"/><circle cx="430" cy="75" r="5"/><circle cx="445" cy="60" r="5"/><circle cx="460" cy="46" r="5"/><circle cx="475" cy="31" r="5"/><circle cx="489" cy="16" r="5"/><circle cx="504" cy="2" r="5"/><circle cx="518" cy="-13" r="5"/><circle cx="533" cy="-28" r="5"/><circle cx="547" cy="-42" r="5"/><circle cx="562" cy="-57" r="5"/><circle cx="577" cy="-72" r="5"/><circle cx="591" cy="-86" r="5"/><circle cx="606" cy="-101" r="5"/><circle cx="577" cy="-159" r="5"/><circle cx="592" cy="-174" r="5"/><circle cx="591" cy="-144" r="5"/><circle cx="606" cy="-159" r="5"/><circle cx="606" cy="-130" r="5"/><circle cx="621" cy="-145" r="5"/><circle cx="621" cy="-115" r="5"/><circle cx="635" cy="-130" r="5"/><circle cx="299" cy="236" r="5"/><circle cx="314" cy="221" r="5"/><circle cx="328" cy="206" r="5"/><circle cx="343" cy="192" r="5"/><circle cx="357" cy="177" r="5"/><circle cx="372" cy="163" r="5"/><circle cx="386" cy="148" r="5"/><circle cx="401" cy="133" r="5"/><circle cx="416" cy="118" r="5"/><circle cx="430" cy="104" r="5"/><circle cx="445" cy="89" r="5"/><circle cx="460" cy="75" r="5"/><circle cx="474" cy="60" r="5"/><circle cx="489" cy="45" r="5"/><circle cx="504" cy="31" r="5"/><circle cx="518" cy="16" r="5"/><circle cx="533" cy="2" r="5"/><circle cx="547" cy="-13" r="5"/><circle cx="562" cy="-28" r="5"/><circle cx="577" cy="-43" r="5"/><circle cx="591" cy="-57" r="5"/><circle cx="606" cy="-72" r="5"/><circle cx="621" cy="-86" r="5"/><circle cx="313" cy="250" r="5"/><circle cx="328" cy="235" r="5"/><circle cx="343" cy="221" r="5"/><circle cx="357" cy="206" r="5"/><circle cx="372" cy="192" r="5"/><circle cx="386" cy="177" r="5"/><circle cx="401" cy="163" r="5"/><circle cx="416" cy="148" r="5"/><circle cx="430" cy="133" r="5"/><circle cx="445" cy="118" r="5"/><circle cx="460" cy="104" r="5"/><circle cx="474" cy="89" r="5"/><circle cx="489" cy="75" r="5"/><circle cx="504" cy="60" r="5"/><circle cx="518" cy="45" r="5"/><circle cx="533" cy="31" r="5"/><circle cx="547" cy="16" r="5"/><circle cx="562" cy="2" r="5"/><circle cx="576" cy="-13" r="5"/><circle cx="591" cy="-28" r="5"/><circle cx="606" cy="-43" r="5"/><circle cx="621" cy="-57" r="5"/><circle cx="635" cy="-72" r="5"/><circle cx="328" cy="265" r="5"/><circle cx="343" cy="250" r="5"/><circle cx="357" cy="235" r="5"/><circle cx="372" cy="221" r="5"/><circle cx="386" cy="206" r="5"/><circle cx="401" cy="192" r="5"/><circle cx="415" cy="177" r="5"/><circle cx="430" cy="162" r="5"/><circle cx="445" cy="148" r="5"/><circle cx="460" cy="133" r="5"/><circle cx="474" cy="118" r="5"/><circle cx="489" cy="104" r="5"/><circle cx="503" cy="89" r="5"/><circle cx="518" cy="74" r="5"/><circle cx="533" cy="60" r="5"/><circle cx="547" cy="45" r="5"/><circle cx="562" cy="31" r="5"/><circle cx="576" cy="16" r="5"/><circle cx="591" cy="2" r="5"/><circle cx="606" cy="-13" r="5"/><circle cx="621" cy="-28" r="5"/><circle cx="635" cy="-43" r="5"/><circle cx="650" cy="-57" r="5"/><circle cx="342" cy="279" r="5"/><circle cx="357" cy="265" r="5"/><circle cx="372" cy="250" r="5"/><circle cx="386" cy="235" r="5"/><circle cx="401" cy="221" r="5"/><circle cx="415" cy="206" r="5"/><circle cx="430" cy="192" r="5"/><circle cx="445" cy="177" r="5"/><circle cx="460" cy="162" r="5"/><circle cx="474" cy="148" r="5"/><circle cx="489" cy="133" r="5"/><circle cx="503" cy="118" r="5"/><circle cx="518" cy="104" r="5"/><circle cx="533" cy="89" r="5"/><circle cx="547" cy="74" r="5"/><circle cx="562" cy="60" r="5"/><circle cx="576" cy="45" r="5"/><circle cx="591" cy="31" r="5"/><circle cx="606" cy="16" r="5"/><circle cx="621" cy="1" r="5"/><circle cx="635" cy="-13" r="5"/><circle cx="650" cy="-28" r="5"/><circle cx="664" cy="-43" r="5"/><circle cx="635" cy="-101" r="5"/><circle cx="650" cy="-116" r="5"/><circle cx="650" cy="-86" r="5"/><circle cx="665" cy="-101" r="5"/><circle cx="664" cy="-72" r="5"/><circle cx="679" cy="-87" r="5"/><circle cx="679" cy="-57" r="5"/><circle cx="694" cy="-72" r="5"/><circle cx="474" cy="178" r="5"/><circle cx="489" cy="163" r="5"/><circle cx="504" cy="148" r="5"/><circle cx="518" cy="133" r="5"/><circle cx="533" cy="119" r="5"/><circle cx="547" cy="104" r="5"/><circle cx="562" cy="90" r="5"/><circle cx="577" cy="75" r="5"/><circle cx="591" cy="60" r="5"/><circle cx="606" cy="46" r="5"/><circle cx="621" cy="31" r="5"/><circle cx="635" cy="17" r="5"/><circle cx="650" cy="2" r="5"/><circle cx="665" cy="-13" r="5"/><circle cx="679" cy="-28" r="5"/><circle cx="694" cy="-42" r="5"/><circle cx="708" cy="-57" r="5"/><circle cx="723" cy="-71" r="5"/><circle cx="737" cy="-86" r="5"/><circle cx="752" cy="-101" r="5"/><circle cx="767" cy="-115" r="5"/><circle cx="782" cy="-130" r="5"/><circle cx="796" cy="-144" r="5"/><circle cx="489" cy="192" r="5"/><circle cx="504" cy="177" r="5"/><circle cx="518" cy="163" r="5"/><circle cx="533" cy="148" r="5"/><circle cx="547" cy="133" r="5"/><circle cx="562" cy="119" r="5"/><circle cx="576" cy="104" r="5"/><circle cx="591" cy="89" r="5"/><circle cx="606" cy="75" r="5"/><circle cx="621" cy="60" r="5"/><circle cx="635" cy="46" r="5"/><circle cx="650" cy="31" r="5"/><circle cx="664" cy="17" r="5"/><circle cx="679" cy="2" r="5"/><circle cx="694" cy="-13" r="5"/><circle cx="708" cy="-28" r="5"/><circle cx="723" cy="-42" r="5"/><circle cx="737" cy="-57" r="5"/><circle cx="752" cy="-71" r="5"/><circle cx="767" cy="-86" r="5"/><circle cx="782" cy="-101" r="5"/><circle cx="796" cy="-115" r="5"/><circle cx="811" cy="-130" r="5"/><circle cx="503" cy="207" r="5"/><circle cx="518" cy="192" r="5"/><circle cx="533" cy="177" r="5"/><circle cx="547" cy="163" r="5"/><circle cx="562" cy="148" r="5"/><circle cx="576" cy="133" r="5"/><circle cx="591" cy="119" r="5"/><circle cx="606" cy="104" r="5"/><circle cx="621" cy="89" r="5"/><circle cx="635" cy="75" r="5"/><circle cx="650" cy="60" r="5"/><circle cx="664" cy="46" r="5"/><circle cx="679" cy="31" r="5"/><circle cx="694" cy="16" r="5"/><circle cx="708" cy="2" r="5"/><circle cx="723" cy="-13" r="5"/><circle cx="737" cy="-28" r="5"/><circle cx="752" cy="-42" r="5"/><circle cx="767" cy="-57" r="5"/><circle cx="782" cy="-72" r="5"/><circle cx="796" cy="-86" r="5"/><circle cx="811" cy="-101" r="5"/><circle cx="825" cy="-115" r="5"/><circle cx="518" cy="221" r="5"/><circle cx="533" cy="206" r="5"/><circle cx="547" cy="192" r="5"/><circle cx="562" cy="177" r="5"/><circle cx="576" cy="163" r="5"/><circle cx="591" cy="148" r="5"/><circle cx="606" cy="133" r="5"/><circle cx="621" cy="118" r="5"/><circle cx="635" cy="104" r="5"/><circle cx="650" cy="89" r="5"/><circle cx="664" cy="75" r="5"/><circle cx="679" cy="60" r="5"/><circle cx="693" cy="46" r="5"/><circle cx="708" cy="31" r="5"/><circle cx="723" cy="16" r="5"/><circle cx="737" cy="2" r="5"/><circle cx="752" cy="-13" r="5"/><circle cx="767" cy="-28" r="5"/><circle cx="781" cy="-42" r="5"/><circle cx="796" cy="-57" r="5"/><circle cx="811" cy="-72" r="5"/><circle cx="825" cy="-86" r="5"/><circle cx="840" cy="-101" r="5"/><circle cx="811" cy="-159" r="5"/><circle cx="826" cy="-174" r="5"/><circle cx="825" cy="-144" r="5"/><circle cx="840" cy="-159" r="5"/><circle cx="840" cy="-130" r="5"/><circle cx="855" cy="-145" r="5"/><circle cx="854" cy="-115" r="5"/><circle cx="869" cy="-130" r="5"/><circle cx="532" cy="236" r="5"/><circle cx="547" cy="221" r="5"/><circle cx="562" cy="206" r="5"/><circle cx="576" cy="192" r="5"/><circle cx="591" cy="177" r="5"/><circle cx="606" cy="163" r="5"/><circle cx="620" cy="148" r="5"/><circle cx="635" cy="133" r="5"/><circle cx="650" cy="118" r="5"/><circle cx="664" cy="104" r="5"/><circle cx="679" cy="89" r="5"/><circle cx="693" cy="75" r="5"/><circle cx="708" cy="60" r="5"/><circle cx="723" cy="45" r="5"/><circle cx="737" cy="31" r="5"/><circle cx="752" cy="16" r="5"/><circle cx="767" cy="2" r="5"/><circle cx="781" cy="-13" r="5"/><circle cx="796" cy="-28" r="5"/><circle cx="811" cy="-43" r="5"/><circle cx="825" cy="-57" r="5"/><circle cx="840" cy="-72" r="5"/><circle cx="854" cy="-86" r="5"/><circle cx="547" cy="250" r="5"/><circle cx="562" cy="235" r="5"/><circle cx="576" cy="221" r="5"/><circle cx="591" cy="206" r="5"/><circle cx="606" cy="192" r="5"/><circle cx="620" cy="177" r="5"/><circle cx="635" cy="163" r="5"/><circle cx="650" cy="148" r="5"/><circle cx="664" cy="133" r="5"/><circle cx="679" cy="118" r="5"/><circle cx="693" cy="104" r="5"/><circle cx="708" cy="89" r="5"/><circle cx="722" cy="75" r="5"/><circle cx="737" cy="60" r="5"/><circle cx="752" cy="45" r="5"/><circle cx="767" cy="31" r="5"/><circle cx="781" cy="16" r="5"/><circle cx="796" cy="2" r="5"/><circle cx="810" cy="-13" r="5"/><circle cx="825" cy="-28" r="5"/><circle cx="840" cy="-43" r="5"/><circle cx="854" cy="-57" r="5"/><circle cx="869" cy="-72" r="5"/><circle cx="561" cy="265" r="5"/><circle cx="576" cy="250" r="5"/><circle cx="591" cy="235" r="5"/><circle cx="606" cy="221" r="5"/><circle cx="620" cy="206" r="5"/><circle cx="635" cy="192" r="5"/><circle cx="649" cy="177" r="5"/><circle cx="664" cy="162" r="5"/><circle cx="679" cy="148" r="5"/><circle cx="693" cy="133" r="5"/><circle cx="708" cy="118" r="5"/><circle cx="722" cy="104" r="5"/><circle cx="737" cy="89" r="5"/><circle cx="752" cy="74" r="5"/><circle cx="767" cy="60" r="5"/><circle cx="781" cy="45" r="5"/><circle cx="796" cy="31" r="5"/><circle cx="810" cy="16" r="5"/><circle cx="825" cy="2" r="5"/><circle cx="840" cy="-13" r="5"/><circle cx="854" cy="-28" r="5"/><circle cx="869" cy="-43" r="5"/><circle cx="883" cy="-57" r="5"/><circle cx="576" cy="279" r="5"/><circle cx="591" cy="265" r="5"/><circle cx="606" cy="250" r="5"/><circle cx="620" cy="235" r="5"/><circle cx="635" cy="221" r="5"/><circle cx="649" cy="206" r="5"/><circle cx="664" cy="192" r="5"/><circle cx="679" cy="177" r="5"/><circle cx="693" cy="162" r="5"/><circle cx="708" cy="148" r="5"/><circle cx="722" cy="133" r="5"/><circle cx="737" cy="118" r="5"/><circle cx="752" cy="104" r="5"/><circle cx="767" cy="89" r="5"/><circle cx="781" cy="74" r="5"/><circle cx="796" cy="60" r="5"/><circle cx="810" cy="45" r="5"/><circle cx="825" cy="31" r="5"/><circle cx="839" cy="16" r="5"/><circle cx="854" cy="1" r="5"/><circle cx="869" cy="-13" r="5"/><circle cx="883" cy="-28" r="5"/><circle cx="898" cy="-43" r="5"/><circle cx="869" cy="-101" r="5"/><circle cx="884" cy="-116" r="5"/><circle cx="883" cy="-86" r="5"/><circle cx="898" cy="-101" r="5"/><circle cx="898" cy="-72" r="5"/><circle cx="913" cy="-87" r="5"/><circle cx="913" cy="-57" r="5"/><circle cx="928" cy="-72" r="5"/></g></svg>